<?xml version="1.0" encoding="utf-8"?>
<!DOCTYPE svg PUBLIC "-//W3C//DTD SVG 1.1//EN" "http://www.w3.org/Graphics/SVG/1.1/DTD/svg11.dtd">
<svg version="1.1" id="moon-1265088_silhouette_xA0_Image_1_"
	 xmlns="http://www.w3.org/2000/svg" xmlns:xlink="http://www.w3.org/1999/xlink" x="0px" y="0px" viewBox="0 0 1261.495 1699.7284"
	 fill="#c4471a" enable-background="new 0 0 1261.495 1699.7284" xml:space="preserve">
<g>
	<path d="M520.6006,1244.1923c-3.8116-3.7477-8.196-4.9731-13.4202-5.0084c-6.2808-0.0426-10.975-4.166-15.4888-8.0503
		c-1.6051-1.3811-1.2559-3.3862-0.1992-5.1608c1.5461-2.5964,4.0073-3.3912,6.6109-2.4685
		c4.0312,1.4287,8.1848,2.2361,12.3029,3.2617c2.2605,0.563,4.2909,0.4985,6.4496-0.3878
		c7.3632-3.0231,14.949-5.3253,23.9709-6.5875c-6.4306-6.2916-12.2428-11.9803-18.0571-17.6667
		c-7.6415-7.4734-15.3248-14.9048-22.919-22.4259c-21.5073-21.3-42.6096-43.0254-64.5699-63.8466
		c-20.868-19.7855-40.3727-40.9558-61.8079-60.1499c-3.905-3.4967-7.5232-7.33-11.1155-11.1565
		c-9.0071-9.5944-20.3484-16.5347-29.4379-26.0297c-2.1491-2.2451-3.7445-2.2245-4.4122,1.251
		c-0.5404,2.8126-1.5462,4.9799-5.0862,5.3807c-2.7086,0.3068-1.7818,2.4701-1.2787,4.4148
		c2.5879,10.0039,6.3419,19.6516,7.9689,29.9674c4.5983,29.1549-0.0636,56.5306-14.0277,82.5299
		c-15.0244,27.9734-29.7546,56.1057-44.4883,84.2341c-12.352,23.5815-23.5826,47.8237-37.2763,70.5905
		c-4.9362,8.2069-10.9429,16.1458-15.9238,24.549c-6.6508,11.2206-12.9053,22.6769-19.5989,33.871
		c-3.9001,6.5227-8.3895,12.6902-12.4956,19.0934c-3.6584,5.7047-7.2995,11.3875-11.3164,16.8789
		c-5.0757,6.9391-9.4163,14.3633-15.0181,21.0098c-3.0893,3.6654-5.5404,8.0333-8.3837,12.0374
		c-7.6443,10.7648-16.1463,20.7957-24.9879,30.5221c-10.4015,11.4426-21.5761,22.1031-36.256,28.067
		c-28.3185,11.5045-52.0483-6.7634-53.2382-34.8464c-0.9475-22.3627,5.5089-43.3907,12.6746-64.1443
		c7.2133-20.8917,14.8908-41.6193,24.2532-61.6979c7.6658-16.4403,15.7138-32.6901,23.5013-49.0653
		c2.9158-6.1311,6.2965-11.97,9.4043-17.9719c2.0655-3.989,3.3711-8.0107,2.8045-12.5717c-0.3363-2.7067,0.426-5.7334,2.8286-6.709
		c9.3341-3.7899,11.729-12.6959,15.6905-20.399c13.449-26.151,26.6682-52.4204,40.1406-78.5593
		c10.0464-19.4918,20.4324-38.8087,30.5168-58.2811c14.9309-28.8308,37.0282-49.7089,67.6323-61.0953
		c6.3436-2.3602,13.0196-3.813,19.4594-5.9361c2.2123-0.7294,6.659-0.5248,3.0976-5.2963
		c-1.3476-1.8055,0.8145-4.0196,2.1088-5.3708c9.9947-10.4342,14.6463-24.009,21.5477-36.248
		c4.762-8.445,9.1024-17.1273,13.8365-25.5886c1.9188-3.4294,2.0619-5.7466-1.3524-8.6026
		c-16.9231-14.1561-31.6248-30.4427-44.0342-48.6575c-8.8076-12.9281-14.9525-27.143-14.9526-43.109
		c-0.0001-15.9843,6.4852-29.0782,19.7995-38.2962c3.1045-2.1494,3.7944-4.6552,3.8604-8.1583
		c0.5469-29.0179,0.9595-58.0444,2.0645-87.0435c0.5622-14.752-2.7816-27.8555-11.7347-39.6379
		c-1.9029-2.5042-3.2878-2.5084-5.3146-0.7339c-2.9221,2.558-6.3068,3.8342-10.1819,3.9687
		c-3.2939,0.1143-4.3028-1.5396-3.6535-4.5162c0.3991-1.8298,0.8464-3.6561,1.4014-5.4438
		c1.1884-3.8273-1.8738-4.9312-4.0449-6.7871c-2.4682-2.1099-3.562,0.0212-5.0843,1.207
		c-4.7832,3.7254-8.9202,4.0013-14.1065,0.6747c-3.8801-2.4889-8.1336-3.4902-12.6138-3.6729
		c-6.7849-0.2769-11.1492-3.145-12.7221-9.8787c-0.7627-3.2656-2.1611-3.4161-4.8261-3.6364
		c-5.0583-0.418-9.8285-1.6642-10.8978-7.8836c-0.3476-2.0218-2.0519-1.7545-3.6201-1.9227
		c-6.6629-0.715-9.1329-3.2959-9.6758-10.1256c-0.1642-2.0663-0.3808-3.4487-2.9827-3.8136
		c-4.648-0.6519-6.6439-3.7782-6.3041-8.3539c0.1506-2.0281,0.1042-4.2791,0.9799-6.0068c2.8152-5.5538-0.4774-7.8635-4.7005-9.8927
		c-1.8323-0.8804-3.6657-1.7601-5.4761-2.6841c-7.1544-3.6517-10.1056-11.1871-6.9487-18.5026
		c3.1222-7.2349,7.0105-13.4971,16.2181-14.3403c3.4864-0.3193,6.1774,0.1102,8.2717,2.5334
		c2.3759,2.7489,3.9476,2.0167,6.0163-0.2953c13.1455-14.6912,26.7737-28.9496,37.3115-45.8021
		c8.7519-13.9963,18.4713-27.43,25.3506-42.5024c3.756-8.2295,7.468-16.4087,12.6472-23.8728
		c13.4879-19.4386,27.7901-38.2533,43.3888-56.0419c12.1133-13.8139,26.205-25.2059,42.9719-33.0031
		c9.7682-4.5425,20.302-6.7638,30.6077-9.6297c13.6398-3.7932,26.4712-9.7314,39.6758-14.6699
		c13.7966-5.1599,27.6913-9.8601,41.9829-13.5309c12.7746-3.2812,26.0766-4.2832,38.4905-9.1072
		c1.7026-0.6616,3.5827-0.9016,3.1605-3.0815c-0.3385-1.7478-1.1627-3.3635-3.6826-3.4569
		c-4.9946-0.1853-8.0802-2.3473-8.3257-8.0283c-0.1521-3.5197-1.9889-5.5915-6.2062-3.3438
		c-2.1505,1.1462-4.9554,1.0793-7.4713,1.5219c-3.9676,0.698-6.8399-0.6931-7.6946-4.7602
		c-2.3121-11.0021-3.4606-22.2449-2.3878-33.3525c0.5961-6.1717-1.0263-10.0566-7.8628-12.3755
		c-7.0426-2.3889-9.5818-7.2514-12.0291-13.0972c-4.6362-11.0748-8.0986-22.3749-6.7716-34.5696
		c0.4276-3.9295-3.1848-6.8149-4.7297-6.5135c-6.913,1.3487-8.1025-4.0517-10.511-7.8463
		c-0.9009-1.4193-1.6085-2.5047-3.1133-3.4032c-2.6958-1.6096-4.1473-4.0209-3.5539-7.4898
		c0.8854-5.1763-2.9378-9.6903-2.1308-15.0256c1.6016-10.5882,3.4491-21.0303,8.5469-30.6554
		c1.8152-3.4272,4.8196-6.54,3.9471-11.0017c-0.1331-0.6804,0.3299-1.5878,1.0817-1.4001c6.1087,1.5249,6.3826-3.8615,7.6397-7.065
		c1.3246-3.3757,2.6689-5.7467,6.5316-5.4308c2.2031,0.1802,2.741-1.6095,3.0925-2.7841c1.4582-4.8729,5.9294-7.4862,8.2681-11.5892
		c2.0755-3.6414,7.0298-5.6523,6.2711-10.9218c-0.112-0.7781,0.5441-1.0547,1.2397-1.3212
		c5.6762-2.1749,10.9086-5.5685,17.5957-2.1622c6.8473,3.4879,8.3327,2.2008,8.7853-5.8654
		c0.0954-1.7007-0.2203-3.9397,1.9983-4.0906c1.9842-0.1349,3.9771-1.0923,6.1972,1.4896c1.6928,1.9688,4.0552,7.3503,9.3568,2.7315
		c2.813-2.4507,1.5326-3.7667,0.8983-5.832c-0.3253-1.0592-1.7095-2.17-0.526-3.1929c1.1965-1.0341,2.3627,0.4487,3.4513,0.6353
		c5.1871,0.8892,9.889,3.2642,15.0967,4.2699c6.3063,1.2178,8.6186-2.9473,11.6884-6.2043
		c1.4476-1.5359,2.7386-2.5244,4.6436-2.2318c3.9982,0.614,8.0073,1.2596,10.9754,4.5632c0.7142,0.7949,2.0744,1.4042,3.1425,1.4119
		c3.1594,0.0227,5.4683-0.2688,6.1808,4.3677c0.3563,2.3181,4.911,3.9423,7.486,5.9826c2.3507,1.8626,3.8898,4.5409,7.5554,4.921
		c1.6689,0.1731,0.3246,2.4411-1.1202,3.9241c3.6356-0.0057,6.139,1.5149,7.5958,4.5067c1.8376,3.7737,6.3032,3.9324,8.7024,3.5709
		c6.597-0.9942,3.5958,2.3744,2.8306,5.4542c2.4559-0.7601,4.7546-1.1165,5.3306,2.1545c0.2635,1.4968,1.3306,2.3037,2.9824,2.1766
		c0.8286-0.0638,1.717-0.1042,2.074,0.9746c2.8339,8.5608,9.6238,14.1746,15.3647,20.5629
		c3.9651,4.4122,6.8967,15.0274,8.8498,22.1517c2.0535,7.4903,2.1018,15.1375,3.8857,22.5396
		c0.5779,2.3982,1.0767,4.897,0.5029,7.0443c-2.0733,7.7585,0.6627,15.2128,0.6769,22.7185
		c0.0108,5.6787,2.342,10.5816,3.114,15.8505c0.5909,4.0324,3.835,8.7805,6.9785,12.9391c5.005,6.6214,8.8564,2.6912,13.1524,1.4401
		c9.5699-2.7871,19.0308-4.4527,28.9603-1.6567c4.0496,1.1403,8.4203,1.1156,12.6326,1.7088
		c3.892,0.5481,7.2581,2.2503,10.7449,4.1346c13.757,7.4342,22.5697,20.2611,33.907,30.3094
		c10.1971,9.0377,20.5493,17.9484,30.1674,27.5798c13.886,13.9049,29.6816,25.1994,46.1445,35.6641
		c19.9859,12.7041,37.9727,27.8151,54.1761,45.0037c4.6169,4.8976,7.4997,11.4924,12.3158,16.1258
		c8.5703,8.2454,13.6585,19.807,25.4319,25.1321c6.7476,3.052,12.5027,8.2884,15.3369,15.6978
		c1.7183,4.4921,5.2161,7.4295,8.576,10.5291c3.8527,3.5543,7.5142,7.1779,10.5129,11.6166
		c5.0814,7.5215,11.5718,13.9664,18.8462,19.3349c4.0728,3.0058,6.2869,7.16,8.9512,10.9856
		c8.8811,12.7527,17.5258,25.6807,25.8833,38.7825c3.3583,5.2647,5.7295,11.1582,8.5618,16.7596
		c6.3249,12.5087,15.3223,22.95,24.4807,33.4717c7.415,8.5191,16.7842,15.5016,21.6708,26.2581
		c1.7499,3.8514,5.4452,6.576,6.1718,11.3222c0.828,5.4078-0.249,10.3518-1.8082,15.3282
		c-1.1686,3.7296-1.7244,8.0326-3.9933,10.9664c-7.8174,10.1086-4.7618,21.6963-5.6392,32.8252
		c-1.3741,17.4297-0.5985,35.2382-6.2478,52.0449c-5.5514,16.5161-14.3887,31.3239-25.6373,44.7712
		c-10.1805,12.1704-23.2357,20.6284-35.7938,29.8677c-9.4622,6.9615-18.7582,14.0824-29.3054,19.3509
		c-15.7903,7.8876-31.373,16.2437-47.4653,23.4612c-22.1682,9.9427-43.5732,21.3358-65.1949,32.3412
		c-7.2169,3.6733-14.5509,7.3101-22.6601,9.0881c-6.4498,1.4141-11.245,6.0997-16.4821,9.8369
		c-18.2716,13.038-35.4406,27.5642-54.1556,40.0126c-3.2104,2.1355-7.4645,4.7341-8.2698,7.8787
		c-0.7956,3.1068,3.3823,6.4254,5.6041,9.4883c6.717,9.2603,11.916,19.4033,17.6447,29.2597
		c11.7632,20.2389,23.1937,40.6727,35.15,60.8076c7.9669,13.4166,16.5787,26.4805,23.866,40.3025
		c2.8896,5.4806,6.854,9.4446,12.775,11.7972c15.9576,6.3408,32.171,11.9631,48.4168,17.4731
		c15.4166,5.2289,20.3003,22.1936,9.7697,35.1847c-1.1806,1.4567-2.4302,2.8572-4.1347,4.8541
		c6.0831,1.0417,8.6237,7.6875,15.1523,7.8937c1.726,0.0546,2.2182,2.8724,2.6346,4.6497
		c1.3178,5.6237,5.0911,9.9452,7.6789,14.8879c1.4055,2.6844,4.1033,2.3899,6.7239,2.6122c22.535,1.912,44.9566-1.9381,67.4554-1.22
		c18.6207,0.5944,36.9421,3.2589,55.0071,7.9193c26.7838,6.9099,51.7318,17.9214,74.6624,33.3195
		c20.5229,13.7814,38.5555,30.332,53.853,49.8491c15.6432,19.9583,27.425,42.0052,36.287,65.6768
		c6.6349,17.7225,10.5974,36.0588,12.54,54.8732c2.1458,20.7849,1.9626,41.5172-1.2781,62.1635
		c-2.3673,15.082-6.9462,29.5623-11.8235,44.0273c-4.636,13.7488-10.608,26.7657-17.7151,39.3165
		c-7.954,14.0464-17.1888,27.1285-27.6121,39.5586c-9.551,11.3898-19.9854,21.7302-31.4583,30.9333
		c-32.8591,26.3585-69.6652,44.5535-111.2198,52.9446c-26.618,5.3749-53.2284,7.1614-80.2802,4.0885
		c-15.6147-1.7737-30.9807-4.6196-46.0319-8.8188c-10.8706-3.0326-21.6299-6.8176-31.8231-11.7974
		c-27.5743-13.4709-52.5526-30.3655-73.8792-52.8689c-21.4686-22.6534-37.8822-48.2339-49.5869-76.9652
		c-6.825-16.7531-11.6378-34.2262-13.8892-52.1016c-2.3406-18.583-4.1944-37.3743-0.5837-56.1222
		c0.5636-2.9265-0.6528-4.1748-3.8959-4.412c-6.98-0.5107-13.7759-2.6858-20.5937-3.6697
		c-5.3923-0.7783-10.2471-3.5128-15.8183-3.3389c-5.0446,0.1576-9.8024-2.0321-14.8254-2.7405
		c-7.0316-0.9916-13.8821-3.3945-21.0953-3.6455c-1.4417-0.05-2.6615-0.5879-3.6329-1.6191
		c-0.5781-0.6136-1.0923-1.9548-1.5475-1.9169c-6.9641,0.5806-10.3201-5.4589-15.4404-8.212
		c-1.9336-1.0397-3.5034-2.4325-3.9034-4.4774c-0.5068-2.5901-2.0266-4.2085-3.9354-5.7163
		c-1.2281-0.9701-2.4035-2.1415-2.2475-3.8301c0.4805-5.1965-2.4205-5.9921-6.8378-6.2704
		c-10.5552-0.6649-21.0666-1.9967-31.6136-2.8329c-5.0725-0.4021-5.4529,0.4513-3.0515,5.012
		c1.8863,3.5825,5.0702,7.5283,2.8754,11.329c-2.3317,4.0376-7.3083,2.4362-11.3293,2.3254
		c-7.1585-0.1978-14.227,0.3883-21.2836,1.7904c-3.2724,0.6503-6.7746,0.2596-10.1678,0.1665
		c-12.8878-0.3535-25.7741-0.7632-38.6597-1.1886c-2.6723-0.0881-4.2372-1.8235-5.5694-3.9385
		c-2.4465-3.884-5.123-7.6287-7.4528-11.5793c-2.8608-4.8512-7.3002-7.2136-12.3859-9.047
		c-13.4843-4.8615-27.7629-7.5802-40.3716-14.8071c-6.0763-3.4827-12.3833-7.1945-13.0105-14.9979
		c-0.7841-9.7562,1.5892-18.7289,10.2431-24.6561c2.9483-2.0194,6.6222-2.6758,10.2522-2.7148
		c18.4495-0.1979,34.7053-7.6354,50.7617-15.5504c4.0443-1.9937,8.4576-3.7542,11.2063-7.7712
		c0.2671-0.3903,0.8069-0.7344,1.274-0.8264C509.703,1249.3982,515.0429,1246.787,520.6006,1244.1923z M857.218,1354.8065
		c2.4404,2.0446,5.4521,2.0092,9.1284,2.9127c-2.7731-4.5735-6.2192-2.8918-9.2716-2.7667
		c0.4089-1.8525-1.3199-2.0265-2.1913-2.9388c-2.1951-2.298-5.3534-0.8096-7.6954-2.1534
		c-6.6355-3.8076-14.1292-5.5542-20.9503-8.6934c-4.7051-2.1653-10.2385-2.3213-14.264-5.9083
		c-1.0648-0.949-2.0281-2.0455-3.5049-1.0221c-1.2981,0.8998-2.2095,2.3303-2.299,3.832c-0.1047,1.7595,1.794,1.8655,2.9464,2.2373
		c8.8646,2.8602,17.752,5.6531,26.6658,8.3562C842.8907,1350.8176,849.7104,1353.9899,857.218,1354.8065z M313.2026,699.7823
		c0.102,1.5303,0.5519,3.1343,0.2466,4.5785c-1.4017,6.6308,2.1406,9.8776,7.5449,12.5923
		c8.0465,4.0417,15.4091,9.3054,23.1769,13.8728c24.6419,14.4897,48.8131,29.7844,73.5376,44.1279
		c26.3162,15.2668,51.6698,32.2308,79.2411,45.3133c4.9014,2.3257,4.8346,2.4128,5.3692-2.8185
		c0.8512-8.3282,1.9897-16.5593,7.5089-23.4736c14.1624-17.7419,31.7361-31.1462,52.0604-40.9991
		c10.2106-4.95,20.4555-9.9006,30.981-14.1104c11.7059-4.6818,21.9282-11.7119,31.3688-19.6374
		c7.6909-6.4566,15.0647-13.0956,24.1084-17.6538c5.6432-2.8444,11.3776-5.983,14.6488-11.5579
		c3.1694-5.4017,7.3201-9.6129,11.8331-13.8298c17.8719-16.6993,38.0462-29.8163,60.7989-38.5768
		c8.6826-3.3431,14.6941-7.3937,16.4726-17.2149c1.507-8.3222,3.9862-16.1508-2.457-23.6327
		c-2.7693-3.2157-5.4738-8.0671-4.3077-11.6333c1.8984-5.8055-1.3559-8.7993-3.7441-12.6411
		c-1.1648-1.8737-2.2714-3.7864-3.3345-5.7199c-6.729-12.2371-13.8917-24.0504-26.3352-31.5995
		c-2.5445-1.5437-4.9172-3.5539-7.0825-5.8276c-7.1464-7.5041-14.1396-15.1256-20.8546-23.0233
		c-9.3509-10.9978-22.9464-17.0731-32.4772-28.0457c-6.3104-7.2649-15.1639-12.0508-21.2075-19.7438
		c-5.142-6.5453-9.7172-13.6071-15.3867-19.6487c-6.9045-7.3577-7.9598-15.1024-3.8727-23.8441
		c1.2028-2.5726,1.1044-4.2965-0.973-6.3212c-10.4878-10.221-20.5128-20.8613-29.0085-32.8548
		c-0.8735-1.2331-2.2299-2.0759-3.9886-1.8722c-5.7663,0.6678-11.632,0.688-17.2356,2.4269
		c-12.7596,3.9597-25.4686,8.0849-38.2539,11.9589c-16.1288,4.8869-32.2786,9.7114-48.4828,14.3404
		c-17.1715,4.9053-34.3203,9.9475-51.6599,14.19c-15.5143,3.796-31.3586,6.5737-45.3014,14.7975
		c-10.6819,6.3005-21.1349,13.2973-27.7533,24.2161c-8.1292,13.4113-17.3055,26.0382-28.9922,36.4206
		c-10.4364,9.2716-19.9618,19.4137-28.9802,29.8857c-8.2187,9.5433-14.681,20.6351-21.575,31.2665
		c-2.9141,4.4941-7.1695,8.3705-7.9308,14.0463c-1.7603,13.1238,0.8688,25.7156,5.4845,37.8719
		c1.6203,4.2672,4.0794,8.4935,4.4123,12.8798c0.3336,4.3966,3.3366,5.7763,5.4817,8.4557c3.5005,4.3724,6.0323,0.6865,8.972-0.1749
		c0.9644-0.2826,1.9264-0.6736,2.9127-0.7653c6.0201-0.5586,7.3824,1.0294,7.5131,7.0973c0.0815,3.783-1.4845,6.9229-2.7482,10.1864
		c-0.7282,1.8806-0.5789,2.9246,0.7975,4.4518C307.0902,662.3625,313.6057,679.8082,313.2026,699.7823z M352.6789,785.647
		c-11.9033-1.0249-24.5423,2.3326-37.1398,6.1299c-3.3422,1.0074-4.53,2.7376-4.4788,6.2537
		c0.1263,8.6602-0.274,17.3266-0.271,25.9903c0.0025,7.2815-0.3531,14.6421,0.5522,21.8287
		c2.2272,17.6805,13.2375,29.3446,27.8249,38.1788c1.7085,1.0346,3.4734,0.5114,5.1721-0.8442
		c5.0786-4.0527,8.4558-3.912,13.5445,0.1443c1.3289,1.0594,2.6658,2.6162,4.174,2.8596
		c8.8036,1.4202,15.0535,7.6514,22.4629,11.6478c4.3104,2.325,4.7815,5.2539,1.8458,9.2035
		c-1.7636,2.3727-1.2343,3.4944,1.086,4.7051c13.8992,7.2522,27.778,8.3696,41.6946,0.0594
		c9.5095-5.6785,18.4645-12.1563,27.3618-18.733c15.3264-11.3287,30.7836-22.4811,46.0626-33.8729
		c4.2949-3.2022,3.6035-9.6099-1.035-12.3669c-6.2756-3.7299-12.6212-7.3418-18.8984-11.069
		c-18.545-11.0115-36.9952-22.1856-55.6491-33.009c-5.8567-3.3981-11.3059-7.8776-17.9853-9.5045
		C390.9862,788.8607,372.803,785.3898,352.6789,785.647z M578.951,1172.2714c-0.5187-8.7747-0.6779-19.7201-1.9149-30.5425
		c-2.093-18.3104-6.4687-36.2058-10.4566-54.1919c-2.1677-9.7771-8.1133-15.8181-15.5549-19.9897
		c-16.8265-9.433-34.2843-17.7584-51.6432-26.21c-4.0356-1.965-9.164-1.775-12.6198-5.0227
		c-6.4345-6.0474-14.4926-9.2701-22.0337-13.4216c-34.9826-19.2585-71.9564-34.3281-107.9783-51.3995
		c-1.244-0.5895-2.7329-1.5846-3.8528-0.7172c-3.3174,2.5695-4.7122,6.5542-6.4604,10.1677
		c-1.1831,2.4456,1.5217,3.5626,2.864,4.8561c17.6432,17.004,35.389,33.9016,53.0595,50.8773
		c22.7578,21.863,45.5474,43.6937,68.1852,65.6805c32.7677,31.8256,65.4039,63.7865,98.1467,95.6378
		c0.9445,0.9187,1.6247,3.2485,3.489,2.0433c1.3723-0.8871,2.224-2.629,1.8384-4.4973c-0.3595-1.7418-0.5695-3.8005,0.6211-4.9028
		C579.583,1186.0638,578.8588,1180.1503,578.951,1172.2714z M548.295,1022.8019c-3.2644-7.9082-3.2758-16.6071-5.5847-24.8441
		c-4.9044-17.4966-9.3694-35.1214-13.7345-52.7629c-5.0142-20.2657-7.5746-41.1609-16.2925-60.4706
		c-1.7736-3.9284-2.619-4.867-6.4305-2.1077c-20.0988,14.5499-39.6192,29.8992-60.3933,43.5208
		c-19.9482,13.08-40.8883,15.5626-63.0344,6.4897c-6.4901-2.6587-6.4347-2.7798-9.7221,3.4875
		c-0.4748,0.9052-0.8242,2.0111-1.5641,2.6198c-4.5068,3.7075-2.0133,5.1296,1.8044,6.8725
		c34.1662,15.5987,68.2029,31.4831,102.4457,46.9105c10.1421,4.5693,19.667,10.9887,31.2083,11.9772
		c1.6622,0.1423,3.213,0.9574,3.9891,2.0795c3.2239,4.6609,8.4994,5.8973,13.0974,8.1595
		c6.9977,3.4427,14.1904,6.4905,21.3159,9.6711C546.9063,1025.0774,548.5023,1025.6409,548.295,1022.8019z M1052.9259,1388.4656
		c3.1539,0.5317,5.6343-0.1781,8.1027-1.615c18.5353-10.7897,37.1271-21.4819,55.6918-32.2209
		c8.088-4.6782,16.5228-8.7725,23.9292-14.5935c3.4452-2.7078,5.2993-5.0436,2.3948-9.7278
		c-2.8264-4.558-4.9517-9.5704-7.8994-14.144c-1.6741-2.5975-2.7683-3.2449-5.9891-2.2095
		c-8.4434,2.7144-16.7024,5.7885-24.922,9.1348c-23.804,9.6918-47.7726,18.9812-71.709,28.3453
		c-3.9126,1.5306-6.4948,4.1498-8.1073,7.9332c-3.1934,7.4924-6.3104,15.0216-9.7119,22.4193
		c-1.5538,3.3794-0.8197,4.5511,2.8338,4.7245C1029.4578,1387.0776,1041.368,1387.8147,1052.9259,1388.4656z M985.645,1331.8967
		c0.7014,9.2977,1.3928,18.1077,2.0211,26.9219c0.3916,5.4928,0.8256,5.708,6.0916,3.8922
		c9.8605-3.4,17.2957-10.7291,26.0951-15.8231c5.5092-3.1892,8.1287-8.0432,10.2949-13.7235
		c7.5238-19.7296,15.4473-39.3066,23.0315-59.0137c3.0403-7.8997,5.6179-15.9786,8.3535-23.994
		c0.7266-2.1292-0.0857-3.5785-2.2137-4.4326c-5.8118-2.3336-11.6121-4.6981-17.3782-7.1418
		c-3.3237-1.4084-5.391-0.8182-7.3405,2.6041c-14.0565,24.6758-28.5174,49.1227-42.3829,73.9036
		C989.2569,1320.3806,984.314,1325.3073,985.645,1331.8967z M1144.8602,1459.3225c1.009,0.1895,2.6602-0.7163,2.8933-2.5156
		c0.8363-6.4548,3.5482-12.3662,5.0585-18.6172c0.5433-2.2491,0.0076-3.5913-2.1715-4.394
		c-3.0051-1.1068-5.9559-2.3597-8.9561-3.4801c-10.3617-3.8698-21.0322-6.7585-31.5997-9.9832
		c-20.4875-6.2522-40.9114-12.714-61.3503-19.1245c-1.6967-0.5322-3.1758-0.757-4.869,0.2203
		c-7.3497,4.2419-14.6923,8.5103-22.2092,12.4406c-2.7379,1.4314-2.1723,2.3417-0.5046,4.0361
		c6.5446,6.6493,13.3715,13.0668,19.4135,20.1505c5.2925,6.2052,11.6703,8.6558,19.5264,9.2362
		c7.6327,0.5637,15.2096,1.9563,22.7919,3.1107C1103.1853,1453.4932,1123.3474,1457.5597,1144.8602,1459.3225z M1003.1003,1477.4612
		c-0.6542,2.1128,0.291,5.5989,2.7884,8.3531c6.285,6.9312,11.6732,14.6223,17.9631,21.5011
		c13.9017,15.2035,25.011,32.7848,40.2151,46.8928c1.694,1.5719,2.6018,1.8302,4.1129,0.8263
		c5.517-3.6653,10.9863-7.4038,16.429-11.1793c1.8325-1.2711,2.067-2.9453,0.8738-4.8876
		c-3.3429-5.4407-6.3243-11.1327-10.0066-16.33c-9.718-13.7169-18.496-28.0532-27.9875-41.9075
		c-7.4874-10.9292-14.217-22.3859-22.4985-32.7682c-1.0489-1.3151-2.0024-2.668-3.9561-2.9387
		c-4.7039-0.6526-9.4315-1.2693-14.0564-2.3129c-3.4182-0.7714-3.9792,0.4872-3.9329,3.5344
		C1003.1942,1456.0916,1003.1003,1465.9418,1003.1003,1477.4612z M665.1296,1203.6897c-0.0399,4.6467,1.8696,9.8323,2.6582,15.1917
		c0.3358,2.2816,1.8324,5.2946,3.8978,5.6882c5.965,1.1366,9.5029,5.7318,14.127,8.7275c1.7026,1.103,2.269,1.1661,3.3952-0.7701
		c4.8576-8.3535,9.5174-16.8876,15.1694-24.6895c3.5298-4.8722,2.9418-10.8713,6.0623-15.6168
		c2.9849-4.5389,5.9629-9.0826,8.9577-13.6151c1.2916-1.9547,2.2982-3.4818-1.4099-3.951
		c-3.7463-0.4739-5.8096-3.0566-6.5632-6.8036c-0.7585-3.7706-2.59-6.9-5.6902-9.3917
		c-10.9398-8.7915-21.7364-17.7614-32.6876-26.5385c-2.3661-1.8966-5.0408-3.4968-7.7729-4.822
		c-2.5051-1.2152-4.2284-0.5906-4.0362,2.7874c0.2323,4.0828,0.2919,8.181,0.2685,12.2719
		c-0.0887,15.5222-0.2675,31.0439-0.331,46.5662c-0.0067,1.6416-0.4539,3.6882,0.994,4.8477
		C665.2806,1196.0636,665.4279,1199.3507,665.1296,1203.6897z M954.0148,1582.6901c2.2041,0.22,4.4214,0.3518,6.6093,0.6805
		c3.2302,0.4856,4.7732-0.5382,5.8023-3.9597c1.8893-6.2813,2.3325-12.7026,3.009-19.108
		c2.5916-24.5374,5.1053-49.0833,7.5428-73.6365c0.8782-8.8473,3.4077-17.7124-2.2451-26.2578
		c-3.0156-4.5588-2.9685-5.0435-6.8185-0.6469c-5.8447,6.6744-11.4949,13.5323-17.5894,19.9701
		c-3.4487,3.6431-4.658,7.6301-4.7792,12.4722c-0.2582,10.3143-0.7341,20.6287-1.3869,30.9263
		c-0.9676,15.2603-2.4391,30.4926-3.1838,45.7616C940.3301,1582.1235,940.6451,1582.1389,954.0148,1582.6901z M943.8864,1241.8264
		c-4.0621,3.1746-7.9869,5.1759-11.1116,7.7855c-4.0246,3.3611-7.4583,7.2094-12.6349,8.9902
		c-1.8137,0.6238-1.7118,2.3998-1.2662,4.3508c3.9824,17.4347,7.6941,34.9313,11.7216,52.3551
		c1.0233,4.4268,1.0825,9.3049,3.8369,13.1135c7.0634,9.7667,15.4614,18.4127,23.5582,27.3085
		c2.5314,2.7809,3.9421,2.4504,5.0067-1.1591c2.3011-7.8007,4.6457-15.5925,7.2079-23.3098
		c1.3616-4.1013,1.029-8.1006-0.2589-11.9659C961.4078,1293.6676,952.7367,1268.0842,943.8864,1241.8264z M754.6198,1120.4459
		c-26.4783-37.3412-60.0466-67.4489-93.5608-98.8954c-0.645,3.9554-1.5001,6.7583-1.4913,9.5585
		c0.0432,13.739,0.6666,27.4867,0.2977,41.2103c-0.1132,4.2115,1.5396,5.8715,4.5741,7.2947
		c6.7283,3.1553,13.5247,6.1661,20.2449,9.3384c21.4922,10.1454,42.9557,20.3517,64.4543,30.4835
		C750.7336,1120.1876,752.2838,1121.6495,754.6198,1120.4459z M932.5337,1448.5841c0.238-3.1078-1.6399-2.7703-3.0546-2.5568
		c-7.5466,1.139-15.0938,2.2949-22.602,3.6588c-2.947,0.5354-5.8382,1.3615-8.0571,3.7959
		c-12.534,13.7509-25.9345,26.6492-39.2264,39.6538c-8.6376,8.4512-17.3608,16.8309-25.1611,26.0756
		c-1.0659,1.2633-4.0546,2.4626-1.5281,5.3353c4.1653,4.7362,8.6852,9.0886,13.3135,13.344
		c1.0022,0.9215,2.5033,2.0269,3.5245,0.5856c2.358-3.3278,6.3868-4.3785,9.054-7.3729
		c5.6548-6.3486,11.6951-12.3601,17.6829-18.4053c16.7823-16.9432,33.5389-33.9135,50.4908-50.6858
		C931.0124,1458.0128,930.8148,1452.7369,932.5337,1448.5841z M837.2719,1299.1124c-1.6041,0.0731-2.5706,1.1138-3.5367,2.0292
		c-1.2308,1.1659-2.3521,3.59-3.457,3.5533c-5.5323-0.1836-6.8251,4.421-9.3541,7.5791c-1.6418,2.0503-1.9065,3.7943,0.5882,6.0336
		c6.5297,5.8612,14.1054,10.1586,21.4033,14.8053c6.4676,4.1182,12.2147,9.2854,20.1306,11.5095
		c3.738,1.0504,8.4008,1.7773,11.5309,4.2468c5.0892,4.015,11.3939,4.7954,16.9945,7.0543
		c5.1066,2.0598,10.3629,4.4657,15.5179,6.4447c5.2023,1.9972,11.6569,2.4147,15.8341,7.2422
		c0.8746,1.0107,3.034,0.9279,4.2358-0.2738c1.0872-1.087-0.137-2.1858-0.5633-3.2363
		c-5.8505-14.415-16.9103-23.8657-29.8431-31.6531c-14.5503-8.7614-28.9298-17.8064-43.4647-26.5938
		C848.0673,1304.6973,843.0145,1301.1794,837.2719,1299.1124z M927.6691,1468.5397c-2.0394,0.447-3.0369,1.6584-4.062,2.7485
		c-22.3551,23.7731-46.9603,45.3949-67.6505,70.7719c-1.5118,1.8542-1.6128,2.6296,0.2324,3.8895
		c5.4621,3.729,10.8943,7.5018,16.3322,11.2664c1.5822,1.0953,3.0102,1.3358,4.5105-0.2625
		c2.6724-2.847,5.6225-5.4462,8.1664-8.3988c10.187-11.8236,20.2-23.7977,30.4423-35.5728
		c1.6662-1.9154,2.6771-3.9443,3.2192-6.2582C921.8049,1494.1538,924.6725,1481.5656,927.6691,1468.5397z M892.699,1426.7788
		c-2.562-0.4077-4.284-0.1093-6.115,0.1329c-14.822,1.9609-29.6419,3.9769-44.5064,5.5652
		c-15.8947,1.6981-31.7318,3.7463-47.4919,6.3966c-2.0641,0.3472-3.5331,1.3608-2.913,3.8595
		c1.5088,6.0781,3.0778,12.1429,4.4791,18.246c0.8197,3.5701,3.0807,4.0049,6.1724,3.4624
		c13.7136-2.4064,27.489-4.4948,41.1396-7.2122c7.0096-1.3953,14.4462-1.5803,20.4288-6.7371
		C873.0591,1442.5912,882.5657,1435.0848,892.699,1426.7788z M983.7643,1479.9891c-0.4688,0.0588-0.9376,0.1179-1.4064,0.1769
		c-1.4282,14.5374-3.0823,29.057-4.228,43.6167c-1.4617,18.577-5.4709,36.9476-4.379,55.7544
		c0.1523,2.6235,0.6563,3.2922,2.9385,3.2869c6.4836-0.0154,12.9657-0.0573,19.3365-1.4778c1.4754-0.329,3.0376-0.6278,3.1447-2.709
		c0.2091-4.0619,0.778-8.1218,0.7294-12.1769c-0.1688-14.0896-0.5507-28.1764-0.8262-42.2649
		c-0.156-7.9757,0.454-15.9934-4.3207-23.222c-2.3989-3.6316-3.8355-7.8879-5.8451-11.7908
		C987.3013,1486.0626,985.4866,1483.0496,983.7643,1479.9891z M894.4496,1453.61c-0.2949-0.5007-0.5899-1.0016-0.8849-1.5024
		c-7.9998,1.4542-16.003,2.8906-23.9983,4.3695c-4.6137,0.8534-9.1288,1.387-13.155,4.625
		c-14.175,11.3998-28.8929,22.1211-42.3714,34.3917c-1.8599,1.6931-1.0621,2.6792-0.2051,4.2773
		c2.9978,5.5902,7.4056,10.1648,10.8578,15.4171c1.4559,2.2151,3.0327,2.4553,5.0456,0.7692
		c3.3964-2.8445,7.0604-5.4098,10.2064-8.5048c9.1067-8.9591,17.9357-18.2002,27.0169-27.1857
		C876.0342,1471.2903,885.2799,1462.4885,894.4496,1453.61z M392.5097,782.9323c-0.5437-0.8644-0.6465-1.2363-0.8858-1.3788
		c-24.5073-14.5809-49.0176-29.1568-73.5631-43.6731c-1.234-0.7297-2.5247-2.1105-4.1796-1.2914
		c-2.0944,1.0366-0.978,2.9349-0.9719,4.5442c0.009,2.3782,0.0637,4.7729-0.175,7.1329
		c-1.0988,10.8666-0.4218,21.7856-1.0559,32.6593c-0.2946,5.053,1.5449,5.6033,5.9702,4.0448
		c17.3957-6.1259,35.3302-6.1637,53.473-4.6094C378.1312,780.9612,385.0767,782.2571,392.5097,782.9323z M289.4513,810.1149
		c0.2119-2.2163,0.0663-3.0424-0.627-3.3085c-1.4797-0.5681-2.1225,0.7485-2.9497,1.4841
		c-9.9044,8.8082-14.3863,19.6818-13.4721,33.0652c0.9475,13.8717,6.446,25.9561,14.0962,37.0378
		c12.0444,17.4471,26.3397,33.0031,42.2173,47.067c0.9323,0.8257,2.1975,3.2101,3.5652,1.3004
		c1.1002-1.5361,2.6647-3.9302,0.5647-6.0159c-1.0623-1.0551-2.4414-1.855-3.7934-2.5414
		c-2.8842-1.4644-4.6086-4.5114-3.0324-6.6752c5.3192-7.3022,1.0825-10.6548-4.6992-13.8071
		c-0.7375-0.4021-1.4786-0.8247-2.1367-1.3415c-14.2232-11.1696-24.0079-24.9973-27.6756-43.1417
		C288.6051,838.8753,289.0197,824.5358,289.4513,810.1149z M1034.3842,1452.299c5.6328,8.441,10.7164,16.4028,16.1514,24.1169
		c6.8237,9.6848,13.3159,19.6063,19.9849,29.3843c6.6505,9.7513,13.4185,19.3458,20.8009,28.5385
		c1.4517,1.8079,2.703,1.6404,4.2677,0.394c4.509-3.592,8.7328-7.4835,12.3916-11.9491c0.8171-0.9976,2.3094-2.3218,0.9514-3.5222
		c-2.8967-2.5605-3.7245-6.4689-6.5427-9.08c-10.7302-9.9414-20.3138-21.0361-30.1825-31.7681
		C1061.6729,1466.9579,1050.9575,1456.6113,1034.3842,1452.299z M941.0554,1492.4044c-0.3016-0.2035-0.603-0.4067-0.9046-0.6101
		c-4.4832,5.1953-8.6933,10.665-13.5431,15.4919c-3.3773,3.3612-4.8321,7.3394-5.6613,11.6353
		c-3.3519,17.3641-9.0525,34.2211-11.0199,51.9066c-0.29,2.6071,0.166,3.2931,2.1075,4.0062
		c5.7462,2.11,11.7016,3.4387,17.6674,4.7219c2.4504,0.5272,3.4655-0.5715,4.3482-2.9537
		c1.5063-4.0645,2.1829-8.2828,2.4742-12.4517C938.1944,1540.2466,939.5758,1516.322,941.0554,1492.4044z M1055.1884,1397.4218
		c1.4192,0.8068,1.9313,1.2339,2.5187,1.4119c19.3693,5.864,38.696,11.876,58.1396,17.4833
		c11.7645,3.3929,23.333,7.5382,35.4847,9.5736c2.8932,0.4846,3.7938-0.0107,4.2894-2.9933
		c0.8379-5.0411,1.4447-10.061,1.6906-15.166c0.1349-2.8059-0.7296-3.6685-3.4878-4.2688
		c-7.9929-1.7397-16.0934-2.1986-24.1901-2.9398c-19.5466-1.7893-39.0745-3.7855-58.6141-5.6533
		C1065.8687,1394.377,1060.8596,1395.049,1055.1884,1397.4218z M983.8604,1310.3699c0.4205,1.4202-1.4341,6.556,0.8845,6.8704
		c2.7811,0.3772,4.2371-4.3695,5.8466-7.2141c9.327-16.484,18.7151-32.9338,27.9333-49.4783
		c3.7329-6.6998,7.0602-13.6248,10.6273-20.4181c2.0371-3.8796,0.9236-5.9164-3.3839-6.608
		c-5.0377-0.8088-10.055-1.7704-15.0447-2.8364c-1.6606-0.3546-2.5694,0.0067-3.2123,1.5394
		c-1.7721,4.2249-3.9244,8.3182-5.3593,12.6515c-4.7147,14.2389-9.3599,28.5067-13.6592,42.8748
		C986.4221,1294.6705,982.3462,1301.1847,983.8604,1310.3699z M898.1283,1420.1261c-6.9475,1.6738-13.386-0.9821-19.5109-2.4301
		c-9.3926-2.2202-19.0308-3.2036-28.4179-5.7183c-7.6219-2.0419-15.8649-3.5299-23.9925-3.9619
		c-5.1089-0.2716-9.8013-3.0509-15.0956-2.0822c-6.3569,1.1633-12.7505,2.1338-19.1414,3.1008
		c-2.6479,0.4006-3.268,2.0425-3.1482,4.366c0.1273,2.4661,1.5138,3.2665,3.7569,2.886c2.337-0.3964,4.8629-0.4462,6.9415-1.4235
		c3.208-1.5082,6.5914-1.5541,9.9143-2.1639c3.5536-0.6519,5.9273,1.229,6.4017,4.3063c0.426,2.7644-0.3312,5.6088-4.0888,6.6058
		c-2.2068,0.5856-4.3391,0.8217-6.53,0.7843c-3.7795-0.0641-7.4859,0.1217-11.0778,1.484c-2.0413,0.7744-5.0681,0.0818-4.5305,4.004
		c0.5245,3.8269,2.9285,4.0853,5.9088,3.7466c13.0173-1.4791,26.0439-2.8796,39.0513-4.4417
		c19.7627-2.3735,39.4833-5.1068,59.3311-6.7379C895.3649,1422.3301,897.392,1423.1423,898.1283,1420.1261z M1034.95,1344.9454
		c1.1831,0.7092,1.8785,0.1223,2.6478-0.178c20.6226-8.054,41.2538-16.0854,61.8767-24.1385
		c8.8947-3.4733,18.0496-6.3717,26.2753-11.3496c1.415-0.8563,4.7008-1.3844,2.7385-4.2935
		c-3.5184-5.2159-6.9703-10.4995-11.264-15.1552c-1.002-1.0863-2.153-1.4071-3.1129-0.4991
		c-3.4279,3.2422-8.2003,3.9916-11.9172,6.6638c-19.5198,14.0336-39.7351,27.0305-59.8109,40.2385
		C1039.198,1338.3295,1036.7778,1341.4114,1034.95,1344.9454z M1005.4558,1492.7733c-0.4345,0.1226-0.869,0.2452-1.3035,0.3678
		c0.0035,6.23-1.8794,12.3998,1.7774,18.6486c1.5733,2.6886,3.037,5.6462,4.4302,8.5398
		c6.2029,12.8823,12.5061,25.7194,18.9899,38.4625c6.4615,12.6996,6.5748,12.6418,19.543,6.5347
		c2.3015-1.0837,4.6188-2.136,6.9011-3.2587c1.2899-0.6342,2.8573-2.1031,1.7375-3.0732c-2.9873-2.588-3.0967-6.5786-5.5367-9.4633
		c-9.4692-11.1953-18.6241-22.6564-27.9052-34.011C1017.8863,1507.9314,1011.6675,1500.3552,1005.4558,1492.7733z
		 M1032.5492,1337.8685c3.3616-2.4069,5.5812-4.0775,7.2814-6.5416c4.1487-6.0125,8.5358-11.8599,12.791-17.7993
		c11.4774-16.0189,24.1763-31.1787,33.9489-48.4019c0.9822-1.7311,0.972-2.5874-0.7429-3.6676
		c-4.8929-3.0822-9.6885-6.318-14.5356-9.4733c-1.7136-1.1155-3.0569-0.9144-4.1661,1.0065
		c-2.473,4.2822-4.9321,8.5374-6.7057,13.1986c-4.2947,11.2872-8.8192,22.4868-13.2019,33.7408
		C1042.4769,1312.106,1037.7916,1324.3029,1032.5492,1337.8685z M978.9348,1301.5266c-1.95-20.3387-3.6722-38.1191-5.3256-55.9058
		c-0.1285-1.3823-0.7719-2.6199-1.8193-2.8204c-5.6605-1.0848-8.7542-6.4761-13.8606-8.1598
		c-2.9347-0.9679-6.2374-4.4624-9.1746-1.6747c-3.0145,2.861-0.6857,6.8824,0.3532,10.1506
		c5.3001,16.6726,10.8454,33.2675,16.2872,49.8953c2.2808,6.9691,4.5148,13.9536,6.7789,20.9282
		c0.3617,1.1141,0.6182,2.5358,2.1707,2.3351c1.2839-0.166,1.0823-1.5367,1.3521-2.4771
		C977.0857,1308.9564,979.8479,1304.3613,978.9348,1301.5266z M1054.569,1451.2705c2.6688,4.7953,6.041,6.5988,9.6625,8.1395
		c7.9576,3.3861,15.8628,6.8966,23.842,10.2302c13.7795,5.7567,27.267,12.2163,41.548,16.7771
		c3.2496,1.0378,4.7374,0.333,6.0131-2.4197c2.0514-4.4275,3.9172-8.9724,6.3639-13.1754c2.0679-3.5521,0.4316-4.5294-2.587-5.1514
		c-5.4875-1.1307-10.9471-2.4337-16.4713-3.3438C1100.4891,1458.6284,1078.0182,1455.0513,1054.569,1451.2705z M1066.6844,1388.6849
		c1.3198,1.075,2.0801,0.6661,2.897,0.441c15.2095-4.1901,30.4005-8.4503,45.6488-12.4949
		c11.0292-2.9252,22.0973-5.635,32.9161-9.361c4.6455-1.6,5.7079-3.5671,4.4128-8.188c-1.144-4.0824-2.4821-8.1276-3.4347-12.2471
		c-0.6951-3.0052-2.1591-3.0662-4.401-2.2122c-4.7742,1.8184-9.493,3.7654-13.9147,6.3545
		c-14.9752,8.7683-29.951,17.5352-44.9152,26.3225C1079.5349,1381.0343,1073.2052,1384.8182,1066.6844,1388.6849z
		 M738.276,1151.0992c-0.5958-1.3792-1.8669-1.7789-3.0587-2.3506c-17.2705-8.2852-34.5215-16.6107-51.7955-24.8882
		c-5.3679-2.5723-10.8044-5.0007-16.1771-7.5634c-1.1784-0.5621-2.233-0.8918-3.2783,0.0834
		c-0.7566,0.7058-0.7774,1.9292,0.0715,2.1005c5.5396,1.1167,5.173,7.9668,10.011,9.976c2.5328,1.0518,4.4205,3.6233,6.6479,5.4495
		c9.3086,7.6322,18.6319,15.2466,27.9615,22.8531c0.9137,0.7449,1.9077,1.724,3.1873,1.1044
		c6.2263-3.0148,8.8432,0.6119,11.3856,5.5623c2.5464,4.958,4.937,4.7588,7.6808,0.0011c1.4205-2.4629,2.9953-4.8367,4.4634-7.2728
		C736.3398,1154.5543,737.238,1152.9143,738.276,1151.0992z M1048.2842,1326.4176c0.2571,0.2609,0.514,0.5216,0.7711,0.7825
		c5.5598-3.7457,11.1241-7.485,16.6788-11.2382c12.7058-8.5851,25.5903-16.9215,38.0448-25.8573
		c8.1838-5.8718,7.9045-6.261,0.9735-13.1116c-0.3646-0.3605-0.7255-0.7251-1.0928-1.0829
		c-10.4706-10.2009-11.9908-9.891-20.41,2.373c-7.0333,10.2452-14.4816,20.2067-21.7882,30.2633
		C1057.1111,1314.5341,1052.6793,1320.4625,1048.2842,1326.4176z M1083.3168,1390.0464c0.0393,0.4719,0.0786,0.9438,0.1182,1.4158
		c6.59,0.5159,13.1798,1.032,19.7698,1.5475c16.8203,1.3162,33.5403,3.9465,50.4899,3.6521
		c2.6416-0.046,4.0328-0.5968,3.8073-3.2615c-0.5017-5.9301,0.1134-11.9171-1.5238-17.8116
		c-0.8016-2.8855-1.6963-3.1528-4.4923-2.6606c-14.1326,2.4878-27.826,6.6866-41.6814,10.2517
		C1100.9711,1385.4529,1092.1456,1387.7563,1083.3168,1390.0464z M704.2477,1372.8416c5.9672,2.2343,12.601,1.3237,18.4623,3.8944
		c2.4824,1.0886,4.1357,1.1718,4.759-2.085c1.1183-5.842,2.4924-11.6346,3.6696-17.4659c0.449-2.2242-0.1281-3.8684-2.6244-4.7618
		c-5.5875-1.9999-11.0011-4.5101-16.6419-6.3274c-3.6631-1.1799-7.1599,1.0962-10.7177,1.8413
		c-1.0077,0.2108-0.9579,1.5297-0.7403,2.6566c1.1578,5.994,1.106,6.136-5.2364,5.4583c-2.356-0.2515-2.9908,0.5145-3.1999,2.6414
		c-0.5826,5.9257-0.6748,5.9946-6.6828,3.5917c-1.379-0.5518-2.218-0.3856-3.1518,0.5691c-1.023,1.0458-1.5226,2.2354-1.252,3.7103
		c0.325,1.7704,1.6615,1.4015,2.8041,1.2784c0.8318-0.0896,1.4656-0.1957,2.3272,0.3567
		C691.5731,1371.7579,698.7119,1369.1278,704.2477,1372.8416z M1070.3927,1468.6536c2.8687,3.3807,5.0953,6.2908,7.6135,8.9214
		c9.2234,9.6345,18.5436,19.1763,27.8275,28.7529c2.7355,2.8218,5.9294,5.6294,9.5393,6.3752
		c3.4012,0.7028,4.1669-3.9233,5.9906-6.1334c2.944-3.5679,7.415-7.4381,7.0115-11.6992c-0.2288-2.4143-6.3451-4.2843-9.8311-6.3633
		c-0.5754-0.3435-1.2865-0.4512-1.8929-0.7523c-8.8176-4.38-18.1444-7.5779-27.1161-11.6282
		C1083.6246,1473.4585,1077.9359,1469.8568,1070.3927,1468.6536z M926.9962,1318.8672c-0.3925-2.3669-0.5004-3.3632-0.7267-4.3317
		c-3.7919-16.2242-7.8111-32.4003-11.2496-48.6989c-0.841-3.9863-2.6726-4.4377-5.5605-3.5032
		c-4.2155,1.3641-8.3194,2.801-12.8431,3.0865c-4.0978,0.2588-5.025,2.3203-3.3476,6.5012
		c4.2105,10.4939,9.2676,20.4039,17.334,28.4424C916.1179,1305.8595,919.7849,1312.9697,926.9962,1318.8672z M981.7601,1290.2687
		c0.4379,0.0715,0.8758,0.1431,1.3137,0.2147c6.3986-19.5034,12.9218-38.9679,17.8794-58.9231
		c0.4976-2.0034-0.8402-2.0485-2.277-2.4424c-6.4041-1.7562-12.9105-0.6505-19.3642-0.8923
		c-0.8663-0.0323-1.5069,0.2672-1.9332,1.2412c-1.7133,3.9147-0.4475,7.2227,3.6792,9.0476
		c1.3052,0.5773,2.5097,1.0817,2.4572,2.8279c-0.0543,1.8019-1.2006,2.1453-2.6912,2.4067
		c-2.3185,0.4069-3.4534,1.6764-3.185,4.2955C979.0811,1262.1123,980.3992,1276.1926,981.7601,1290.2687z M1005.7961,1524.2754
		c-2.5215,4.4392-1.3756,8.4893-1.441,12.4867c-0.2144,13.0947-0.0487,26.1849,1.6095,39.2135
		c0.3129,2.4584,0.7593,3.6901,3.7709,2.7584c5.4868-1.6975,11.1187-2.9271,16.6943-4.3345
		c1.2948-0.327,2.6173-1.1948,1.7845-2.3848c-2.2302-3.1869-1.3848-7.1499-3.2784-10.485
		c-3.5873-6.3174-6.5912-12.964-9.8974-19.4432C1011.9986,1536.1287,1008.88,1530.2108,1005.7961,1524.2754z M856.9969,1397.3385
		c-2.5898-2.578-4.865-2.8142-6.8453-3.4376c-10.3124-3.2463-20.5974-6.559-30.8439-10.0165
		c-6.8732-2.319-13.6855-4.9779-20.9805-6.082c-4.7598-0.7207-6.7291,0.937-6.7641,5.5209
		c-0.0065,0.8478,0.008,1.7545-0.2717,2.5317c-1.6315,4.5339,0.5098,6.087,4.6669,5.8567
		c5.8563-0.3247,11.4212,1.8635,16.9218,2.9587c8.4991,1.6924,16.8441,4.2643,25.5823,4.1964
		C844.3091,1398.8217,850.1492,1397.9358,856.9969,1397.3385z M915.1222,1521.619c-1.5145,1.2651-2.5104,1.8711-3.2146,2.7195
		c-9.2072,11.0916-19.3398,21.3844-27.5457,33.3607c-3.0005,4.3792-2.0197,5.4932,2.097,7.0757
		c4.1075,1.579,8.0698,3.5756,11.9837,5.6047c2.768,1.4352,3.9772,0.3247,4.9741-2.173
		C909.312,1553.4363,910.959,1537.639,915.1222,1521.619z M849.1913,1460.2174c-5.8068,1.047-11.6152,2.0859-17.4202,3.1427
		c-9.799,1.7839-19.5938,3.5917-29.1841,6.3335c-2.3315,0.6666-2.7791,2.0092-1.6852,4.23
		c1.9462,3.9514,3.8901,7.9287,5.4377,12.0446c1.545,4.1091,2.343,5.6395,7.3749,2.5504
		C826.6604,1480.5708,837.7153,1470.3711,849.1913,1460.2174z M846.7201,1298.0986c17.3978,10.9287,34.2712,21.528,51.1447,32.1271
		c0.2054-0.2743,0.4107-0.5487,0.6161-0.823c-14.6451-16.8252-29.2902-33.6504-44.24-50.8258
		C858.1776,1292.8998,857.7903,1293.9786,846.7201,1298.0986z M920.2676,1426.7706c-0.2717-0.4558-0.5434-0.9117-0.8151-1.3677
		c-2.3656-0.1145-4.6933-0.3353-7.0338-0.7686c-5.0974-0.9435-10.0604-0.3433-14.335,3.4567
		c-4.5675,4.0603-9.5223,7.6852-14.3082,11.4996c-4.9669,3.9591-9.9338,7.9176-14.9009,11.8763
		c7.4703-0.3911,14.4826-1.5968,21.4429-3.0507c3.5817-0.748,7.6172-0.1121,10.588-2.9559
		C907.3854,1439.2574,913.8165,1433.0037,920.2676,1426.7706z M946.4695,1476.0524c2.8435-0.5485,3.9219-2.4434,5.2056-3.8481
		c4.4709-4.8931,8.5291-10.1849,13.214-14.8539c3.9817-3.9684,5.6763-7.4227,1.5739-12.4237
		c-1.9384-2.3629-3.4086-4.7626-6.8078-4.0405c-4.4146,0.9376-10.0655,1.3033-10.8764,6.6898
		C947.3836,1456.8448,947.1937,1466.2953,946.4695,1476.0524z M925.2311,1499.7902c15.7407-12.3669,18.9758-21.604,17.4899-46.9885
		c-4.8843,3.714-9.0028,7.4199-10.2064,13.9161C930.4593,1477.8109,927.6967,1488.7729,925.2311,1499.7902z M998.9815,1447.5079
		c-0.3313-5.2689-5.0109-9.2352-10.3146-8.2531c-1.4797,0.2738-2.3396,1.2599-2.6674,2.7438
		c-2.5857,11.703-0.7955,22.1088,8.8872,30.204c1.0488,0.8768,2.127,2.136,3.5355,1.431c1.2421-0.6218,0.5634-2.1171,0.5625-3.2587
		C998.9784,1462.7526,998.9815,1455.1302,998.9815,1447.5079z M724.2944,1230.7928c7.2949-6.3477,16.1996-9.6387,23.3752-15.4799
		c7.4683-6.0795,8.4852-12.6639,1.6946-17.6616c-2.8433-2.0925-4.3459-1.5313-5.9222,1.3689
		c-2.6667,4.9064-5.5168,9.717-8.4111,14.4946C731.5176,1219.314,727.8788,1225.037,724.2944,1230.7928z M301.4807,1078.4177
		c0.6646-3.2051,1.0583-6.4435-0.0502-9.4463c-0.7417-2.0093,0.6421-4.6875-1.8077-6.0719
		c-7.3622-4.16-13.1714-10.7672-21.3462-13.6176c-2.8447-0.9919-5.9076-2.8254-8.8194-1.3513
		c-5.7767,2.9243-11.8058,5.5247-16.8773,10.2404C274.2186,1052.1788,291.1069,1057.1299,301.4807,1078.4177z M136.5077,1325.9482
		c0.5239,1.7947-0.197,3.6323-0.2748,5.483c-0.0879,2.0905,0.0502,3.3805,2.7582,2.0442
		c9.3217-4.6003,12.6482-14.1212,18.12-21.8639c0.569-0.8052,0.065-2.3287,0.1704-3.5089c0.3188-3.5695-1.436-3.8152-3.9549-2.3629
		c-3.374,1.9447-6.498,4.3702-9.9854,6.061C137.2346,1314.7616,134.9969,1319.3511,136.5077,1325.9482z M210.2491,1184.8784
		c-1.754,0.1227-2.5622,0.9148-3.2415,1.9543c-4.5332,6.9374-9.4393,13.6655-13.4687,20.8833
		c-2.104,3.7689-5.323,7.1799-5.651,11.8246c-0.0799,1.1318-0.4056,2.5896,0.738,3.3055c1.2915,0.8086,2.2315-0.4545,3.0672-1.1871
		c4.7229-4.141,9.4099-8.3242,14.052-12.5557c1.3461-1.2271,2.752-2.3395,2.8847-4.5615
		C209.0135,1198.1174,209.6664,1191.709,210.2491,1184.8784z M907.4428,1443.0015c0.4829,0.7841,0.9658,1.5682,1.4487,2.3522
		c6.4479-1.0874,12.9009-2.1462,19.3423-3.271c5.5026-0.9607,9.3066-6.4154,8.0605-11.6068
		c-0.3237-1.3484-1.2801-2.7495-2.6333-2.8341c-3.4982-0.2196-7.3954-1.1686-10.3333,1.2279
		C917.8411,1433.3448,912.7175,1438.2659,907.4428,1443.0015z M1020.5929,1356.5143c-9.6318,2.7216-17.5027,6.1921-24.6487,11.4083
		c-4.7919,3.4982-5.5787,6.2924-2.1442,11.0771c2.0199,2.8141,5.147,4.1112,7.6531,1.209
		C1007.8153,1372.8407,1013.7263,1365.0831,1020.5929,1356.5143z M764.8608,1196.9092c2.6512-0.2014,4.3735-5.3999,2.286-8.5768
		c-2.2543-3.4309-2.5193-7.0413-2.1852-10.7666c0.1752-1.9531,1.2448-3.8282,1.9252-5.7332
		c0.9201-2.5763-0.5394-4.855-2.2913-5.6417c-1.5621-0.7014-2.1964,1.889-2.9971,3.3325
		c-1.9744,3.5593-4.0597,7.0632-6.2371,10.5029c-4.0223,6.3536-4.0585,6.322,1.9704,11.1425
		c1.7304,1.3835,3.5308,2.7054,5.0924,4.2631C763.1678,1196.1736,763.6764,1197.0095,764.8608,1196.9092z M975.7397,1369.5061
		c5.2513,0.1727,9.5146-3.7906,7.9485-7.793c-1.9147-4.8925-3.1619-9.9333-4.4808-14.978c-0.2441-0.934-0.3163-2.1248-1.545-2.3972
		c-1.5089-0.3347-2.1177,0.8398-2.6584,1.8838c-2.0218,3.9037-3.9129,7.8768-5.9916,11.7494
		C966.3304,1362.9674,969.9872,1369.3169,975.7397,1369.5061z M658.7556,1343.4102c-3.838-0.1005-6.428-0.3411-7.0405,3.9458
		c-0.7167,5.0176,1.6202,7.6683,5.5884,9.5409c3.8335,1.8092,8.9293-0.0551,11.8339-4.1337
		c3.5063-4.9238,3.2057-5.7375-2.3453-7.6951C663.8777,1344.0405,660.9171,1343.5369,658.7556,1343.4102z M185.0587,1258.64
		c-0.084-0.5208,0.0169-1.5005-0.3916-2.1687c-2.7225-4.4534-7.1992-7.0914-11.0701-10.339
		c-1.0733-0.9004-2.1378-0.0778-2.9286,1.0603c-5.9751,8.6007-5.9949,8.5985,3.2584,13.9481
		c1.3084,0.7563,2.6882,1.3896,4.0373,2.0754C182.1492,1265.3435,184.8658,1263.7122,185.0587,1258.64z M1033.5488,1397.8684
		c0.0601-0.429,0.1202-0.8577,0.1802-1.2865c-6.1095-1.7031-12.1784-3.5768-18.344-5.0446
		c-3.6356-0.8657-9.4184,6.9546-8.0348,10.5259c0.4039,1.0421,1.2955,1.0477,2.0784,0.8859
		C1017.475,1401.286,1025.5104,1399.5698,1033.5488,1397.8684z M850.4547,1402.5432c17.8266,3.4382,34.5753,6.6685,51.324,9.8987
		c0.1008-0.5544,0.2015-1.109,0.3023-1.6635C885.3118,1407.6586,870.1087,1395.8875,850.4547,1402.5432z M155.4979,1296.8638
		c-0.5495-2.627-0.655-5.5029-3.9929-6.4369c-3.6633-1.025-4.9578,1.9347-6.1531,4.1211
		c-2.3532,4.3047-4.1186,8.9275-7.0801,12.9109c-0.6196,0.8334-1.1017,1.8892-0.2161,2.7617
		c0.8026,0.7908,1.4697-0.0497,2.1687-0.5121c4.3966-2.9075,8.8462-5.7357,13.2188-8.6786
		C154.8458,1300.0861,156.3154,1298.9948,155.4979,1296.8638z M1037.24,1442.7936c-0.0096-2.7468-2.5126-3.2805-3.7815-4.7137
		c-5.4545-6.1602-11.1434-12.1173-16.8823-18.0166c-0.8998-0.9247-2.4504-2.5885-3.8579-1.0088
		c-1.1142,1.2505,0.4772,2.3033,1.2523,3.4141c3.3006,4.7307,6.6447,9.4509,9.5986,14.3983
		C1026.7891,1442.2598,1031.2423,1444.0118,1037.24,1442.7936z M158.5738,1277.3947c-1.776-0.2141-3.0655,0.2566-2.7063,3.3771
		c0.738,6.4124,4.1325,9.9991,10.5341,10.1285c3.6345,0.0735,4.3152-3.3922,5.9539-5.5841c1.0375-1.3878,0.1347-2.6917-1.2032-3.354
		C167.3525,1280.0807,163.6171,1277.9841,158.5738,1277.3947z M207.9241,1212.9619c-6.4034,2.7485-9.364,7.9602-14.0517,11.0336
		c-1.4051,0.9213-2.5886,2.1971-3.8096,3.377c-0.9177,0.8868-2.7676,1.5387-1.8911,3.1699
		c0.8684,1.6157,2.8862,1.2122,4.1373,0.7495c3.0108-1.1133,7.478,0.2057,8.9805-2.7588
		C203.6645,1223.8477,206.6601,1219.2457,207.9241,1212.9619z M908.5467,1391.4797c0.1666-0.6023,0.333-1.2048,0.4995-1.8074
		c-14.0256-3.994-28.0511-7.988-42.0767-11.9819c-0.1599,0.5767-0.3196,1.1533-0.4794,1.7301
		C880.4052,1383.8163,893.2385,1392.1298,908.5467,1391.4797z M998.3234,1496.1744c2.8803-13.8396-6.9044-19.7251-13.4056-27.2917
		C988.5445,1477.9213,992.6642,1486.7074,998.3234,1496.1744z M198.0545,1233.618c-3.0171,0.5992-5.1836,0.9257-7.2872,1.4872
		c-1.2067,0.3224-3.3434,0.118-3.1485,1.9229c0.5421,5.0215-1.1452,10.2057,0.9742,16.0192
		C192.396,1246.5259,195.9138,1240.8547,198.0545,1233.618z M521.5781,1344.5854c-7.2565-1.7107-13.2805-3.1172-19.2957-4.5603
		c-1.2699-0.3046-2.9135-1.6267-3.7065-0.2249c-0.9178,1.6226,0.5983,3.0155,1.8085,4.2614
		C504.2493,1348.0414,513.0541,1348.6093,521.5781,1344.5854z M1018.5681,1438.2145c-3.5978-5.3525-6.3381-9.5388-9.2126-13.6305
		c-0.7323-1.0424-1.4941-2.495-3.1736-2.1555c-1.7311,0.3499-2.4827,1.9127-2.8162,3.3226
		c-0.6498,2.7468-0.6502,5.3531,2.7225,6.7269C1009.8441,1434.0081,1013.4722,1435.8524,1018.5681,1438.2145z M183.4444,1250.3579
		c1.5283-3.725,0.1822-6.9497,0.5868-10.0996c0.1671-1.301,0.7326-3.3737-1.433-3.757c-3.1188-0.5519-5.6894,0.9453-7.6117,3.1925
		c-1.3541,1.583-0.3808,3.1783,1.0493,4.3916C178.35,1246.0486,180.6677,1248.0076,183.4444,1250.3579z M132.117,1324.1024
		c-4.3237,5.6204-4.2622,12.6022-6.8372,19.7166C135.6945,1339.1385,131.1346,1330.7601,132.117,1324.1024z M910.1672,1395.1346
		c4.257,1.5627,8.488,3.2036,12.7893,4.6331c1.0641,0.3534,2.4223,0.2507,3.5255-0.0631c1.0834-0.3085,2.4012-0.9537,2.558-2.2179
		c0.1887-1.5214-1.3043-1.6835-2.3661-2.1664C921.352,1392.9003,915.9188,1393.1066,910.1672,1395.1346z M1029.6271,1404.3676
		c-0.1731-0.3221-0.3461-0.6443-0.5192-0.9663c-4.4528,0.838-8.8997,1.7085-13.361,2.4976
		c-1.7209,0.3047-4.0914,0.9261-3.6728,2.5669c0.526,2.0615,2.8588,3.7106,5.2792,2.5602
		C1021.5514,1409.0311,1025.5468,1406.61,1029.6271,1404.3676z M122.6549,1360.3646c3.5688-3.179,6.5524-6.5459,9.1567-10.2604
		c0.7787-1.1107,0.6915-2.2786-0.1889-3.2803c-0.4968-0.5652-1.1552-0.3844-1.8455-0.1147
		C125.3966,1348.4197,121.9687,1354.704,122.6549,1360.3646z M680.647,1348.1495c0.7042,1.3975-1.3038,3.6567,1.4485,4.1614
		c1.3193,0.2418,8.3482-5.8314,7.8386-6.6721c-1.6605-2.7396-4.8335-1.4181-7.1942-1.8322
		C679.4187,1343.2241,681.3027,1346.6095,680.647,1348.1495z M109.531,1375.1554c7.1599-4.4711,7.3653-11.0472,7.9485-17.4678
		C113.9561,1362.7274,111.1534,1368.0902,109.531,1375.1554z M548.4128,1345.6193c4.7885,1.5071,8.7722,0.735,12.6539,0.8911
		c1.2955,0.0522,3.5874,0.9908,3.6856-1.2942c0.1048-2.4371-2.2439-3.3807-4.1847-3.194
		C556.6792,1342.3966,552.8322,1343.288,548.4128,1345.6193z M219.0959,1175.5175c-7.305,5.4712-6.1029,12.265-6.1007,18.7135
		C215.7441,1188.5785,217.7214,1182.6843,219.0959,1175.5175z M944.7523,1433.8287c-0.4913-1.33,0.9224-4.3055-1.4896-3.9954
		c-3.9807,0.5118-3.2813,4.541-3.8221,7.4093c-0.2677,1.4205-0.0933,2.9413,1.9767,2.6188
		C944.9525,1439.3112,944.67,1436.5044,944.7523,1433.8287z M227.6978,1161.3453c4.8108-2.3851,8.8592-10.0181,7.5201-14.5592
		C231.9874,1151.4039,228.4541,1155.6031,227.6978,1161.3453z M978.537,1330.7291c2.5959-5.5404,2.7795-9.3966,0.749-14.1262
		C977.4579,1321.2559,974.6594,1325.4518,978.537,1330.7291z M760.9105,1198.2104c-3.5569-1.677-6.296-4.3611-9.3136-6.6553
		c-0.6745-0.5128-1.2942-1.0963-2.2109-0.4749c-0.6663,0.4518-0.7689,1.0582-0.4915,1.7408
		C749.8189,1195.0969,757.7222,1198.968,760.9105,1198.2104z M828.7684,1329.4731c-4.0945-2.6982-7.6607-4.8641-11.6901-6.1545
		c-1.5631-0.5005-3.4462-0.1501-3.65,1.525c-0.2065,1.6987,1.7592,0.9845,2.7968,1.183c2.1976,0.4208,4.3107,0.9697,5.9966,2.5719
		C823.8322,1330.1287,825.656,1330.7607,828.7684,1329.4731z M963.2134,1229.1968c2.5372,2.5035,4.4449,5.3177,8.2692,5.9077
		C971.0849,1227.9364,970.2428,1227.3195,963.2134,1229.1968z M227.6591,1168.2114c-4.9212,3.6553-4.8722,9.4254-6.4182,14.5491
		C224.8858,1178.5854,226.7418,1173.64,227.6591,1168.2114z M1013.5866,1372.5596c-3.3827,2.9044-5.3028,5.8047-7.3012,8.6256
		c-0.6506,0.9185-1.7156,2.0228-0.0388,2.9312c1.2836,0.6952,2.5147,0.0415,3.0251-1.0696
		C1010.7128,1379.9093,1012.895,1377.0443,1013.5866,1372.5596z M111.3691,1380.5649c-2.4523,4.2595-8.1708,6.4066-8.6198,13.5935
		C106.3099,1389.1818,110.7982,1386.3501,111.3691,1380.5649z M944.254,1444.0236c-6.2427-0.1555-8.0911,2.3689-7.4969,7.3726
		C939.9487,1449.8545,941.2767,1446.8611,944.254,1444.0236z M939.2878,1403.9255c-0.7664-2.194-2.5474-2.3761-3.6157-3.4381
		c-1.3272-1.3197-3.0959-1.0865-3.8962,0.45c-1.416,2.7178,1.5905,1.7661,2.52,2.4568
		C935.6836,1404.425,937.4375,1404.2329,939.2878,1403.9255z M635.4683,1342.2831c1.888,2.3647,2.3299,4.9022,4.9316,4.9331
		c1.2145,0.0143,1.819-1.5275,1.5021-2.7688C641.113,1341.3567,638.681,1342.3126,635.4683,1342.2831z M798.4436,1403.057
		c-1.8866-1.0648-3.6902-2.3345-5.6862-3.1071c-1.0581-0.4098-2.8766-0.8177-3.1382,1.3274
		c-0.226,1.8544,1.2029,1.7396,2.3662,1.7661C794.0936,1403.0912,796.2037,1403.057,798.4436,1403.057z M949.1567,1439.0059
		c1.513-1.3633,4.2399-0.9584,3.2254-3.8098c-0.3745-1.0526-1.4464-3.0848-2.7474-2.2109
		C947.7896,1434.224,948.7225,1436.473,949.1567,1439.0059z M980.7997,1445.8499c-1.9753,2.0974-4.0596,3.1298-2.9208,5.641
		c0.3748,0.8267,1.6393,1.474,2.0631,0.9467C981.2711,1450.7842,981.0473,1448.7002,980.7997,1445.8499z M977.3215,1441.58
		c-2.3117,0.6682-4.4718-1.0016-5.7744,1.3418c-0.4951,0.8907,0.8085,1.9019,1.6877,2.2074
		C975.7687,1446.0096,976.3063,1444.0808,977.3215,1441.58z M1047.314,1394.4001c0.0425-0.5027,0.085-1.0052,0.1274-1.5081
		c-2.6738-0.251-5.3475-0.5022-9.2057-0.8646C1041.668,1395.314,1044.4945,1394.8357,1047.314,1394.4001z M160.6957,1292.8921
		c-1.0148,0.2336-2.5879-0.632-2.9553,0.9469c-0.3496,1.5018,1.0322,2.0537,2.2044,2.0668c1.2704,0.0139,2.9497-0.1743,3.0964-1.761
		C163.1639,1292.817,161.6409,1293.0994,160.6957,1292.8921z M974.0915,1334.7546c-1.8768,2.6799-2.8676,4.7822-2.5493,7.8928
		C974.2624,1340.4733,975.1744,1338.3624,974.0915,1334.7546z M1002.1802,1390.8788c0.2397,1.2231,0.9277,2.3033,2.093,2.5111
		c1.6048,0.286,1.6466-1.2904,1.8923-2.3019c0.3545-1.4602-0.7808-1.5603-1.8012-1.5677
		C1003.3814,1389.5132,1002.3062,1389.4506,1002.1802,1390.8788z M153.5197,1284.8844c-0.4247-0.8767,0.2121-2.6122-1.5357-2.6028
		c-1.1693,0.0063-1.5279,1.2788-1.5587,2.2249c-0.0358,1.0996,0.8079,1.8865,1.8701,2.0485
		C153.4001,1286.7233,153.6929,1285.9457,153.5197,1284.8844z M159.8494,1303.8148c2.8316-1.2324,4.055-2.7843,4.3533-5.5536
		C161.9361,1299.5671,160.1181,1300.6458,159.8494,1303.8148z M773.5646,1177.825c0.0443-0.9187-0.2147-1.7977-1.1951-1.9098
		c-1.3333-0.1525-1.7,0.968-1.7491,1.9775c-0.0481,0.989,0.1378,2.192,1.4725,2.2042
		C773.5518,1180.1102,773.2454,1178.7047,773.5646,1177.825z M222.4395,1164.6016c-1.2378,1.5465-3.3916,2.6135-3.2221,5.1688
		C221.9955,1169.0313,222.3741,1166.9229,222.4395,1164.6016z M529.402,1236.7863c1.6382,1.3657,2.6816,0.4064,3.7792-0.8464
		C531.6598,1235.2764,530.3544,1235.0513,529.402,1236.7863z M183.5373,1225.4054c-1.5719,0.8602-2.1696,2.1547-2.896,4.5609
		C183.3147,1228.7225,184.669,1227.8798,183.5373,1225.4054z M994.2317,1435.3245c1.3443,0.6605,2.6704,1.2384,3.7534-0.3479
		c0.1497-0.2195-0.2107-1.1549-0.4891-1.2372C996.0568,1433.3141,994.8587,1433.6707,994.2317,1435.3245z M139.502,1340.1224
		c0.0989-0.655-0.0851-1.1301-0.6848-0.9382c-0.4106,0.1313-0.8293,0.5665-1.0193,0.9714c-0.2202,0.469,0.026,1.017,0.6416,0.8358
		C138.8669,1340.8655,139.1914,1340.39,139.502,1340.1224z M886.6398,1269.2797c-0.3265-0.8896-0.9022-1.1348-1.5938-0.9926
		c-0.4465,0.0918-1.0829,0.3453-0.5957,0.9557c0.3577,0.448,0.9349,0.7661,1.4778,0.9816
		C886.0326,1270.2657,886.4326,1269.5625,886.6398,1269.2797z M1008.8902,1412.551c-0.726-0.1324-1.1105,0.1266-0.9542,0.6687
		c0.116,0.4028,0.5329,0.7191,0.8157,1.0739c0.2964-0.2681,0.8696-0.5902,0.8301-0.793
		C1009.5059,1413.1119,1009.0823,1412.7911,1008.8902,1412.551z M981.4331,1336.1813c-0.3804,0.2698-0.7792,0.432-0.7709,0.5695
		c0.0255,0.4231,0.2067,0.8367,0.3275,1.2542c0.2044-0.1599,0.56-0.3013,0.5822-0.4833
		C981.6201,1337.1235,981.4993,1336.705,981.4331,1336.1813z M833.9633,1333.4525c-0.1852-0.2115-0.3703-0.4231-0.5555-0.6344
		c-0.0913,0.0803-0.2713,0.2155-0.2606,0.2329c0.1332,0.2158,0.2828,0.426,0.4609,0.6049
		C833.6329,1333.6808,833.8339,1333.5303,833.9633,1333.4525z"/>
</g>
</svg>
