<svg width="577.09" height="746.4" xmlns="http://www.w3.org/2000/svg">

 <metadata>image/svg+xmlOpenclipartDerby Girl2013-01-01T20:32:00Silhouette of a roller derby playerhttps://openclipart.org/detail/174009/derby-girl-by-bellasarah-174009bellasarahderbygirlrollersilhouetteskateskateswoman</metadata>
 <g>
  <title>background</title>
  <rect fill="none" id="canvas_background" height="748.4" width="579.09" y="-1" x="-1"/>
 </g>
 <g>
  <title>Layer 1</title>
  <g id="layer1">
   <path fill="#c4471a" d="m416.39,738.09c-4.9429,-5.1319 -5.25,-5.7508 -5.25,-10.582c0,-4.7333 0.36381,-5.5197 4.6964,-10.152c5.5381,-5.9206 5.8551,-8.6781 1.8849,-16.394c-3.123,-6.069 -3.2751,-11.068 -0.59235,-19.465c1.0939,-3.4243 2.7239,-9.8954 3.6222,-14.38c1.8131,-9.0523 2.6574,-11.113 5.905,-14.41c3.8495,-3.9078 4.3509,-14.891 2.6818,-58.745c-0.50238,-13.2 -1.1664,-24.9 -1.4755,-26c-0.30915,-1.1 -1.0851,-5.375 -1.7243,-9.5c-1.6477,-10.633 -4.0738,-20.92 -5.643,-23.927c-1.6765,-3.2126 -1.7558,-13.323 -0.13967,-17.792c0.95636,-2.6448 0.95398,-3.7799 -0.0111,-5.3253c-1.8696,-2.9937 -0.44407,-9.6218 2.5813,-12.002c2.7436,-2.1581 2.7452,-2.1468 -0.53558,-3.8538c-2.2514,-1.1714 -3.1512,-5.4253 -1.3792,-6.5204c0.47896,-0.29602 1.1454,-1.9111 1.481,-3.589c0.33559,-1.678 2.1937,-4.6813 4.1292,-6.6742c3.7806,-3.8928 4.1884,-5.6448 2.3322,-10.02c-1.2918,-3.0444 -6.6976,-9.297 -8.0378,-9.297c-0.93946,0 -13.454,-6.0215 -18.76,-9.0266c-12.102,-2.3192 -17.769,-11.897 -30.48,-18c-9.2122,-1.4828 -13.063,-8.2353 -20.036,-13.248c-3.85,-2.6351 -11.725,-9.435 -17.5,-15.111c-5.775,-5.6759 -11.959,-10.889 -13.741,-11.585c-1.7826,-0.69593 -4.2021,-2.8202 -5.3766,-4.7206c-5.234,-8.4688 -11.882,-5.4394 -11.882,5.4144c0,1.3606 -0.63791,3.8919 -1.4176,5.625c-0.77966,1.7331 -2.4211,6.0682 -3.6477,9.6336s-3.0031,7.8587 -3.9478,9.5407c-2.1165,10.328 -6.1704,15.417 -10.848,23.935c-1.709,5.3944 -6.4718,8.9119 -9.1392,13.712c0,0.83192 -12.014,18.866 -19.163,28.765c-2.4383,3.3763 -3.307,5.7638 -3.6384,10c-0.51584,6.5936 -2.1957,8.9791 -5.8333,8.2838c-2.4373,-0.46593 -2.5454,-0.31616 -1.8984,2.6301c0.59245,2.6974 0.34178,3.281 -1.8353,4.273c-3.515,1.6015 -3.8934,3.3509 -1.6059,7.4235c2.3364,4.1598 2.5021,7.5539 0.5493,11.254c-1.8696,3.5425 -12.873,14.135 -18.575,17.882c-4.8998,3.2196 -13.334,7.3182 -15.059,7.3182c-0.59439,0 -2.9618,1.2941 -5.2609,2.8757c-6.3653,4.379 -12.673,6.1243 -22.132,6.1243c-4.61,0 -16.424,3.8165 -16.608,3.404c-0.44804,-1.0081 5.4588,-9.4962 -4.7804,-12.404c-0.46047,-0.13077 -3.203,-2.4665 -6.054,-5.481c-3.8066,-4.0249 -5.3355,-5.0855 -5.755,-3.9923c-0.86896,2.2645 2.2504,6.2648 7.4628,9.5704c2.5772,1.6344 4.6859,3.4812 4.6859,4.104c0,3.2065 -3.4271,1.133 -11.329,-6.8548c-9.9405,-10.048 -11.522,-13.536 -12.739,-28.096c-0.60514,-7.2395 6.987,-18.22 8.4166,-18.22c1.3463,0 -5.848,11.154 -5.848,16.791c0,6.4196 2.073,15.135 4.2642,17.928c0.8493,1.0825 4.7358,1.8371 4.7358,0.91948c0,-0.18179 -1.1231,-2.5443 -2.4958,-5.25c-2.1795,-4.2959 -2.4964,-6.2237 -2.5,-15.209c-0.004,-8.6222 -1.3126,-10.557 0.51329,-14.085c1.1985,-2.3156 3.9094,-5.4065 3.9934,-6.361c0.084,-0.95447 1.0159,-2.6967 2.0709,-3.8716c2.8158,-3.1358 12.349,-9.3982 16.666,-10.948c4.7858,-1.718 9.3436,-6.4642 10.51,-10.945c-0.37707,-3.543 9.0546,-4.0061 4.7418,-5.6384c-2.6233,1.0067 -1.8327,-5.1776 1.1089,-8.6734c2.4098,-2.8639 2.5626,-3.5999 2.0022,-9.6444c-0.33371,-3.5991 -0.12998,-9.4689 0.45273,-13.044c0.58271,-3.575 1.4648,-10.1 1.9603,-14.5c0.49544,-4.4 1.5927,-11.15 2.4384,-15c0.84566,-3.8498 1.5453,-10.15 1.5547,-14c0.009,-3.8502 0.90171,-10.375 1.9829,-14.5s1.9734,-9.5789 1.9829,-12.12c0.009,-2.5408 0.91714,-7.437 2.0171,-10.88c1.1,-3.4433 2,-7.5296 2,-9.0806c1.3447,-4.653 3.9341,-6.9137 2.8836,-12.379c-0.75614,-2.7385 -0.24537,-6.2334 2.5906,-17.726c1.9428,-7.8731 4.6559,-16.61 6.0291,-19.415s2.5067,-5.73 2.5189,-6.5c0.0122,-0.77005 0.90222,-2.5251 1.9778,-3.9001c1.401,-1.7911 1.9618,-4.0865 1.9778,-8.095c5.9848,-8.92 10.749,-23.819 25.022,-29.932c7.6852,-2.8099 8.3616,-3.1642 13.585,-7.1157c8.9984,-5.4038 18.994,-7.1255 27.524,-13.676c8.5473,-9.0151 20.482,-12.946 30.391,-19.909c8.3096,-5.8388 22.454,-9.1245 24.345,-18.319c0.53678,-3.6443 -2.2896,-4.9539 -10.692,-4.9539c-6.3493,0 -7.937,0.36043 -10.628,2.4126c-1.7397,1.327 -5.1572,2.923 -7.5944,3.5468c-14.688,8.0593 -21.131,6.0402 -39.431,6.4197l-23,0.42016l-6.5,3.1806c-7.8559,3.8441 -13.185,6.3281 -18.454,8.6015c-2.1747,0.93836 -7.2176,4.7951 -11.206,8.5706c-7.8634,7.4427 -10.448,8.848 -16.274,8.848c-2.0925,0 -6.6219,0.9 -10.065,2c-3.4433,1.1 -6.8769,2 -7.6303,2c-0.86286,0 -1.3697,1.1386 -1.3697,3.0769c0,2.0675 -0.95897,4.0359 -2.9231,6c-2.5,2.5 -3.695,2.9231 -8.2566,2.9231c-2.9334,0 -6.9056,0.50626 -8.8269,1.125c-1.9693,0.63419 -8.7928,1.0392 -15.64,0.9284c-7.7668,-0.12572 -12.386,0.18979 -12.809,0.87498c-11.388,-8.5843 -1.0612,-6.4651 -3.6589,-12.754c-1.5979,-3.3672 -6.7781,-8.3785 -3.4993,-9.5753c5.125,-1.8706 1.6139,-4.5772 1.6139,-6.0147c0,-1.5689 1.3349,-4.0701 3.3395,-6.2576c3.5986,-3.9267 6.2579,-4.6694 21.36,-5.9653c5.0097,-0.42989 7.8101,-1.187 9.2082,-2.4895c2.4215,-2.2559 4.9453,-2.4196 5.7311,-0.37176c0.86382,2.2511 4.8163,1.8098 8.9568,-1c2.0262,-1.375 4.8587,-2.5069 6.2944,-2.5153c10.508,-1.1355 15.085,-10.541 28.591,-17.547c10.364,-5.4954 7.144,-1.2632 13.641,-7.7379c5.1513,-2.7496 11.879,-8.4681 11.879,-10.097c0,-0.68315 1.575,-3.0821 3.5,-5.331s3.5,-4.6121 3.5,-5.2514c0,-2.2019 2.9632,-4.1138 9.6087,-6.1997c7.197,-2.259 10.391,-4.6629 10.391,-7.8199c0,-1.239 0.66667,-2 1.7522,-2c0.96368,0 3.9265,-2.025 6.5841,-4.5s5.268,-4.5 5.8009,-4.5s2.6245,-1.125 4.648,-2.5c4.2521,-2.8894 8.5482,-3.1781 13.148,-0.88366c2.1876,1.0913 8.003,1.9164 17.904,2.5401c8.065,0.50807 18.939,1.3438 24.164,1.8571c5.225,0.51336 13.719,1.2264 18.875,1.5846c18.324,1.4713 31.087,-4.3796 44.765,-4.8238c18.168,4.0594 13.715,3.1109 28.285,-0.77442c9.0576,-3.2803 27.36,-7.9767 34.326,-14.153c4.3326,-4.5423 4.7332,-7.5425 1.75,-13.108c-1.1,-2.0524 -2,-4.4082 -2,-5.2352c0,-0.94747 -0.949,-1.5036 -2.5657,-1.5036c-3.1901,0 -6.0111,-1.4549 -6.7982,-3.506c-0.32958,-0.85887 0.49442,-4.8195 1.8311,-8.8015c5.2203,-17.297 1.9411,-23.711 13.448,-39.973c5.4909,-8.2365 9.9187,-12.065 19.437,-16.805c5.0765,-2.528 6.9738,-2.9145 14.307,-2.9145c4.65,0 10.378,-0.48434 12.729,-1.0763c3.3102,-0.83353 5.9251,-0.73468 11.592,0.43823c6.1956,3.1829 27.531,12.171 31.113,15.812c0.62,1.1586 4.351,5.5536 8.2912,9.7668c4.7773,5.1084 7.6482,9.1425 8.618,12.11c0.7998,2.4471 2.4746,6.4742 3.7216,8.9492c1.9358,3.8418 2.2681,6.0724 2.2716,15.25c0,9.7328 -0.1681,10.75 -1.8169,10.75c-1.9368,0 -9.8082,7.1563 -11.973,10.886c-1.0802,1.8606 -1.0388,2.742 0.25,5.3256c1.9701,3.9491 2.0218,3.786 -1.2055,3.804c-4.6801,0.0261 -5.5691,1.1722 -4.3408,5.5964c0.5938,2.1386 1.0822,6.2231 1.0852,9.0766c0,4.3724 -0.4661,5.7048 -2.9944,8.4728c-1.65,1.8065 -3,4.0498 -3,4.985c0,0.93522 -10.549,4.8539 -12.049,6.6365c-3.7513,4.4581 10.711,8.6213 13.942,14.917c3.8762,7.5533 5.6913,13.5 6.711,18.887c1.0197,5.3877 -2.9934,17.844 -2.299,23.163c-8.4838,20.145 -14.117,14.19 -18.068,23.144c-3.6638,8.3027 -0.7633,18.598 -4.5607,26.841c-3.1666,6.8732 -8.278,13.187 -14.541,17.435c-7.6973,5.2206 -19.736,2.132 -26.518,8.6786c-6.8589,6.6204 -8.6003,10.145 -8.611,17.428c-0.0105,7.1378 -2.3277,16.724 -4.0425,16.724c-3.3748,0 -5.1149,2.7617 -7.574,12.021c-1.3847,5.2136 -2.9871,11.142 -3.5609,13.174c-0.91423,3.2373 -0.75386,4.1011 1.2958,6.9796c2.3887,3.3546 2.9144,5.5464 1.7572,7.3258c-0.35767,0.55 -0.98478,2.575 -1.3936,4.5c-0.40879,1.925 -1.3608,4.3876 -2.1155,5.4725c-1.9815,2.8484 -1.7032,5.1465 1.1278,9.3127c2.7948,4.113 3.2408,9.2716 1.1483,13.281c-3.1594,6.0542 -2.9234,7.2298 2.6277,13.088c2.8732,3.0324 6.5686,6.1505 8.2119,6.9292c1.6433,0.77869 4.9176,3.3283 7.2763,5.6658c7.2375,4.408 5.8711,4.1118 8.7703,8.25c1.2631,0 1.4172,0.88417 0.87117,5l2.3888,5c3.784,0 7.9753,3.4077 12.103,9.8401c3.0641,4.775 3.1026,4.9968 3.1026,17.867c0,10.279 -0.42257,14.355 -2,19.293c-1.1,3.4433 -2.0028,6.7644 -2.0062,7.3803c-0.003,0.61585 -0.61785,2.292 -1.3655,3.7248c-0.74762,1.4328 -1.9151,4.9216 -2.5943,7.7531c-0.67925,2.8314 -1.6267,5.3902 -2.1055,5.6861c-0.47879,0.29591 -1.1666,2.7695 -1.5284,5.4969c-0.51817,3.9061 -1.0477,4.9589 -2.4942,4.9589c-1.01,0 -3.3739,1.35 -5.2532,3c-1.9354,1.6993 -4.5519,3 -6.0348,3c-4.2758,0 -6.618,3.2224 -6.618,9.105l0,5.105l-3.75,-0.46914c-5.7824,-0.72341 -17.971,-4.3284 -20.717,-6.1271c-1.5172,-0.99413 -4.5886,-1.6139 -7.9983,-1.6139c-4.8685,0 -5.5352,0.24088 -5.5352,2c0,1.4218 0.66667,2 2.3058,2c1.2682,0 4.9807,0.83896 8.25,1.8644c13.988,4.3873 20.19,6.1356 21.765,6.1356c1.0124,0 1.679,0.7941 1.679,2c0,2.6822 -4.4501,2.6822 -8.5,0c-1.65,-1.0928 -4.125,-2.0029 -5.5,-2.0225s-5.65,-0.9095 -9.5,-1.9775c-8.4334,-2.3394 -10.5,-2.4518 -10.5,-0.57143c0,2.5819 3.0492,4.5714 7.0063,4.5714c2.1249,0 5.0973,0.46909 6.6052,1.0424c4.9209,1.8709 17.292,4.9576 19.87,4.9576c2.443,0 2.5182,0.2019 2.5122,6.75c-0.004,4.176 -0.60396,7.894 -1.5738,9.75c-0.86222,1.65 -1.9623,6.15 -2.4446,10c-0.48232,3.85 -1.375,9.925 -1.9838,13.5c-4.1362,24.29 -4.9739,41.87 -2.4801,52.047c1.4184,5.7881 2.3367,7.5066 5.329,9.9731c1.9884,1.6389 3.9941,2.9799 4.4572,2.9799c0.46309,0 2.8041,1.35 5.2023,3s4.6802,3 5.0712,3c1.1925,0 10.429,7.3501 10.429,8.2991c0,0.4885 -0.9184,1.1283 -2.0409,1.4219c-6.067,1.5865 5.3996,7.4404 20.192,10.308c6.1555,1.1935 12.273,2.6627 13.595,3.265c3.5418,1.6138 5.5173,6.3028 6.0383,14.332c0.4077,6.2852 0.2116,7.3772 -1.6613,9.25c-1.168,1.168 -3.0236,2.1236 -4.1236,2.1236c-1.7333,0 -2,0.6667 -2,5l0,5c12.813,-2.5397 10.139,15.578 2,19.762c-7.0827,14.502 -29.258,17.91 -48.633,3.8167c-6.9372,-7.0565 -8.3194,-10.683 -6.0155,-15.782c2.7992,-6.1952 2.8806,-7.565 0.58554,-9.86c-1.9858,-1.9859 -2.9231,-2.1262 -11.301,-1.6917c-9.8796,0.5123 -14.594,2.2356 -17.264,6.3103c-1.6657,2.5422 -1.7519,2.2262 2.9858,10.944c0.89664,1.65 1.633,5.1904 1.6364,7.8677c0.005,4.3248 -0.4268,5.3006 -3.8762,8.75l-3.8824,3.8827l-9.8676,-0.044c-5.8557,-0.026 -11.494,-0.6202 -13.868,-1.4614l0,0.0001c-3.6002,-1.5047 -6.4879,-4.1891 -9.25,-6.8682l0,0.0001l-0.00243,0.00486zm20.255,-404.88c-0.35859,-8.843 -2.0138,-22.146 -2.9425,-23.649c-0.37441,-0.60581 -2.7752,-8.5786 -4.3196,-8.5786c-2.1914,0 -7.5859,0.93337 -9.8027,4.25c-3.5449,5.3038 -2.982,14.798 0.13063,18.111c1.1988,1.276 7.0279,7.305 7.8766,9.3362c1.8017,4.312 5.2073,7.7797 7.6406,7.7797c1.4844,0 1.6721,-0.96022 1.4171,-7.25l-0.00013,0.0007zm-139.4,-5.25c2.8995,-2.475 5.8423,-4.5 6.5394,-4.5c1.2056,0 6.442,-4.5335 26.852,-23.248c8.1224,-7.4476 13.887,-13.384 43.867,-45.173c4.877,-5.1712 10.179,-11.355 11.782,-13.741c4.8335,-7.1948 8.8508,-16.403 8.8508,-20.287c0,-2.014 0.92653,-5.6958 2.059,-8.1816c2.3149,-5.0816 2.2419,-7.1519 -0.30896,-8.7583c-3.2552,-2.05 -5.1854,0.41818 -5.8592,7.4918c-0.59562,6.2528 -3.7562,13.685 -8.8788,20.879c-1.1066,1.554 -2.0119,3.2995 -2.0119,3.8789c0,1.0404 -4.2016,5.8391 -26.239,29.967c-15.543,17.018 -25.255,26.751 -32.824,32.896c-3.5403,2.8742 -8.6869,7.0476 -11.437,9.2742c-2.75,2.2266 -7.7,6.2812 -11,9.01s-8.0229,6.4518 -10.495,8.2732c-6.27,4.6189 -6.476,6.7168 -0.65955,6.7168c3.8758,0 5.2146,-0.61704 9.7636,-4.5l-0.00039,0.002zm-10.311,-7.6715c4.7502,-3.2349 9.0079,-6.619 18.657,-14.829c2.9089,-2.475 7.9304,-6.525 11.159,-9c7.1093,-5.4501 27.1,-25.464 37.387,-37.431c4.125,-4.7985 9.7962,-11.277 12.603,-14.397c5.5164,-6.1321 16.761,-22.455 18.544,-26.918c0.99795,-2.4983 1.6025,-6.3119 3.4652,-21.857l0.61149,-5.1034l-3.8617,-0.65032c-2.1239,-0.35768 -5.2709,-0.91693 -6.9934,-1.2428l-3.1317,-0.59247l-0.39341,6.9623c-0.35697,6.3175 -0.77189,7.4609 -4.4802,12.346c-2.2478,2.9611 -4.5916,6.8923 -5.2085,8.736c-1.2498,3.7352 -7.5157,11.1 -23.204,27.272l-10.55,10.876l-14.468,0c-13.623,0 -14.674,0.14005 -17.999,2.3998c-1.9424,1.3199 -5.4082,2.962 -7.7019,3.6492c-2.2937,0.68721 -6.6725,3.3652 -9.7308,5.951c-3.0582,2.5858 -7.2736,5.2148 -9.3674,5.8421c-2.0938,0.62733 -4.6096,2.0276 -5.5907,3.1116c-0.98104,1.084 -3.4168,2.4934 -5.4128,3.1318c-4.6691,1.4935 -8.1291,4.67 -8.1291,7.4631c0,3.2091 2.4678,9.8313 7.1454,19.174c2.9083,5.809 5.8534,9.8793 10.033,13.866c6.8638,6.547 8.6325,6.6789 16.619,1.2401l-0.00148,-0.00001zm216.71,-109.84c0.55,-0.40249 2.6728,-1.2705 4.7173,-1.9289c4.9429,-1.5918 8.7827,-6.2438 8.7827,-10.64c0,-4.4382 -1.9704,-4.4619 -5.3248,-0.064c-1.4092,1.8476 -4.2173,4.1446 -6.2402,5.1046c-3.5417,1.6807 -3.7735,1.6739 -6.2601,-0.1826c-2.6772,-1.9988 -10.039,-15.242 -12.2,-21.947c-0.6797,-2.1091 -1.5767,-4.2847 -1.9933,-4.8347s-1.5422,-3.7 -2.5013,-7c-3.7342,-12.848 -10.798,-34.062 -11.737,-35.25c-0.54364,-0.6875 -1.6083,-1.25 -2.366,-1.25c-1.6647,0 -1.8696,6.8312 -0.39709,13.236c3.2529,14.148 5.2868,21.461 7.0375,25.304c1.0901,2.393 1.9821,4.6451 1.9821,5.0046c0,1.2788 3.408,8.018 6.0463,11.956c1.4738,2.2 3.0157,5.125 3.4264,6.5c1.6292,5.4551 6.718,15.02 8.7473,16.441c2.0658,1.4469 5.9792,1.2347 8.2801,-0.44904l0.00009,0.00004zm-458.56,515.06c-1.4131,-0.4286 -5.4322,-0.844 -8.9312,-0.9231c-7.0941,-0.1604 -9.5,-1.5754 -10.512,-6.1826c-0.73769,-3.3587 1.4922,-8.6361 5.0688,-11.996c1.344,-1.2627 6.0874,-1.0704 6.0874,-1.7996c0,-1.7726 -7.7306,-3.5045 -11.279,-1.6537c-1.7249,0.8996 -5.5963,1.4963 -9.732,1.5c-6.6475,0.01 -6.9921,-0.1182 -10.75,-3.8761c-3.779,-3.779 -3.8824,-4.071 -3.8824,-10.965c0,-6.4903 0.25859,-7.3773 3.0914,-10.604c3.9283,-4.474 8.5644,-5.7263 18.579,-5.0185c7.7231,0.5459 7.9168,0.5022 10.955,-2.4684c2.3565,-2.3039 3.3739,-4.517 4.2722,-9.2929c0.64849,-3.4479 1.6118,-8.4407 2.1406,-11.095c1.0887,-5.4644 1.2595,-12.734 0.35458,-15.092c-0.37451,-0.976 1.5791,-6.6689 -0.36017,-6.6727c-1.7286,0 -7.8828,4.3525 -9.5328,3.4651c-15.836,11.007 -28.558,5.7557 -28.614,-10.783c-1.3609,-5.0346 -0.61007,-13.29 1.5969,-17.558c2.5804,-4.99 8.2394,-10.283 18.001,-5.528c29.343,14.294 25.554,0.9463 37.229,-0.01c8.2856,-0.678 9.6212,-0.5243 13.281,1.3832c2.2376,1.1663 4.7042,2.1205 5.4814,2.1205c1.6236,0 11.379,-12.758 13.806,-18.055c0.89579,-1.9554 3.0197,-5.3056 4.7197,-7.4448c1.7001,-2.1392 3.8296,-5.4894 4.7324,-7.4448c0.90279,-1.9554 3.3216,-6.0654 5.3751,-9.1334c3.3266,-4.97 5.3005,-8.2538 8.7368,-14.535c0.56781,-1.0379 3.8113,-7.6296 7.2078,-14.648c3.3965,-7.0187 6.6582,-12.902 7.0616,-13.309c27.073,-27.302 0.88624,1.4564 0.88624,3.906c0,5.398 3.3096,16.664 6.5392,22.259c1.3,2.2523 6.2404,7.7648 10.979,12.25c7.3426,6.9504 9.1222,8.1549 12.049,8.1549c2.2771,0 10.911,-3.2668 10.911,-2.338c0,1.5963 -18.974,16.79 -24.977,21.175c-4.1223,3.0113 -25.718,25.057 -35.565,36.305c-3.0606,3.4965 -6.1767,7.9322 -6.9246,9.8572c-0.74788,1.925 -2.271,4.8206 -3.3847,6.4346c-1.2528,1.8157 -2.168,5.0567 -2.4001,8.5c-0.34263,5.0825 -0.10786,5.8533 2.7058,8.8839c6.3831,6.8753 10.172,19.89 8.2338,28.286c-0.64094,2.7767 -1.1653,6.3642 -1.1653,7.9723c0,2.8977 -2.1632,4.0867 -3.5,1.9237c-0.33992,-0.55 -1.5528,-1 -2.6954,-1c-1.9618,0 -1.9307,-0.1467 0.55902,-2.6364c3.0232,-3.0231 3.237,-5.5375 1.1364,-13.364c-0.81194,-3.025 -1.4816,-7.4125 -1.4881,-9.75c-0.008,-2.905 -0.64481,-4.8829 -2.0119,-6.25c-3.1233,-3.1233 -3.9986,-2.4151 -4.0171,3.25c-0.009,2.8875 -0.90171,8.625 -1.9829,12.75s-1.9734,9.4125 -1.9829,11.75c-0.0117,2.8998 -0.65253,4.8854 -2.0171,6.25c-1.5556,1.5556 -2,3.3333 -2,8c0,5.1867 -0.25259,6 -1.8634,6c-1.4693,0 -2.1326,-1.2689 -3.1366,-6c-1.3794,-6.4998 -2.9928,-7.973 -3.0119,-2.75c-0.0248,6.7836 -2.7508,13.932 -6.9409,18.202c-6.9377,7.7551 -9.0554,8.839 -14.904,10.462c-3.9324,1.091 -10.799,-0.4367 -12.212,-0.8652l0,0.001l-0.00267,0.0008z" id="path3687"/>
  </g>
 </g>
</svg>