<?xml version="1.0" encoding="UTF-8" standalone="no"?>
<!DOCTYPE svg PUBLIC "-//W3C//DTD SVG 1.1//EN" "http://www.w3.org/Graphics/SVG/1.1/DTD/svg11.dtd">
<svg version="1.1" xmlns="http://www.w3.org/2000/svg" xmlns:xlink="http://www.w3.org/1999/xlink" preserveAspectRatio="xMidYMid meet" viewBox="-1 -1 1571 409.65000000000003" width="1567" height="405.65"><defs><path d="M1514.72 51.84L1514.72 10.56L1556.11 10.56L1556.11 51.84L1514.72 51.84ZM1514.72 103.68L1514.72 62.4L1556.11 62.4L1556.11 103.68L1514.72 103.68ZM1470.35 51.84L1504.16 18.03L1504.16 51.84L1470.35 51.84ZM1462.88 103.68L1462.88 62.4L1504.16 62.4L1504.16 103.68L1462.88 103.68ZM62.51 104.64L62.51 63.36L103.89 63.36L103.89 104.64L62.51 104.64ZM96.32 52.8L62.51 52.8L62.51 18.99L96.32 52.8ZM10.56 52.8L10.56 11.63L51.95 11.63L51.95 52.8L10.56 52.8ZM10.56 104.64L10.56 63.36L51.95 63.36L51.95 104.64L10.56 104.64ZM1567 5C1563 0 1563 0 1561.44 0C1556.25 0 1548 0 1509.49 0C1508.75 0 1509 0 1508 0C1507 1 1508 0 1507 1C1499 10 1454 52 1453.81 53.44C1453 55 1454 53 1453 55C1452 57 1452 57 1452 59C1452 60 1452 61 1452 104C1439 104 1438 104 1430 104C1427 104 1424 106 1424 109C1424 109 1424 110 1424 111C1424.16 253.76 1308 368 1166 370C648 369 425.75 368.64 398.83 368.64C257.6 368.64 142.72 253.76 142.72 112.64C142.72 112.37 142.72 110.24 142.72 109.97C142.72 107.09 140.37 104.64 138 105C135.86 104.64 128.21 104.64 114.45 104.64C114.45 76.74 114.45 61.24 114.45 58.13C114.45 57.39 114.24 56.75 114.03 56.11C113.71 55.47 113.39 54.83 112.85 54.4C107.66 49.22 66.1 7.74 60.91 2.56C60.48 2.13 59.84 1.71 59.2 1.39C58.56 1.17 57.92 1.07 57.17 1.07C51.99 1.07 10.52 1.07 5.33 1.07C2.35 1.07 0 3.41 0 6.29C0 45.7 0 360.92 0 400.32C0 403.31 2.35 405.65 5.33 405.65C610.94 405.65 955.83 405.65 1561.44 405.65C1565 405 1566 404 1566.67 400.32C1566.67 371.29 1567 261 1566.67 109.97C1566.67 109.76 1566 140 1566.56 109.44C1566.56 109.33 1567 67 1566.67 109.01C1566.67 102.1 1567 65 1567 5" id="aJmisEfNV"></path><path d="M1514.72 51.84L1514.72 10.56L1556.11 10.56L1556.11 51.84L1514.72 51.84ZM1514.72 103.68L1514.72 62.4L1556.11 62.4L1556.11 103.68L1514.72 103.68ZM1470.35 51.84L1504.16 18.03L1504.16 51.84L1470.35 51.84ZM1462.88 103.68L1462.88 62.4L1504.16 62.4L1504.16 103.68L1462.88 103.68ZM62.51 104.64L62.51 63.36L103.89 63.36L103.89 104.64L62.51 104.64ZM96.32 52.8L62.51 52.8L62.51 18.99L96.32 52.8ZM10.56 52.8L10.56 11.63L51.95 11.63L51.95 52.8L10.56 52.8ZM10.56 104.64L10.56 63.36L51.95 63.36L51.95 104.64L10.56 104.64ZM1567 5C1563 0 1563 0 1561.44 0C1556.25 0 1548 0 1509.49 0C1508.75 0 1509 0 1508 0C1507 1 1508 0 1507 1C1499 10 1454 52 1453.81 53.44C1453 55 1454 53 1453 55C1452 57 1452 57 1452 59C1452 60 1452 61 1452 104C1439 104 1438 104 1430 104C1427 104 1424 106 1424 109C1424 109 1424 110 1424 111C1424.16 253.76 1308 368 1166 370C648 369 425.75 368.64 398.83 368.64C257.6 368.64 142.72 253.76 142.72 112.64C142.72 112.37 142.72 110.24 142.72 109.97C142.72 107.09 140.37 104.64 138 105C135.86 104.64 128.21 104.64 114.45 104.64C114.45 76.74 114.45 61.24 114.45 58.13C114.45 57.39 114.24 56.75 114.03 56.11C113.71 55.47 113.39 54.83 112.85 54.4C107.66 49.22 66.1 7.74 60.91 2.56C60.48 2.13 59.84 1.71 59.2 1.39C58.56 1.17 57.92 1.07 57.17 1.07C51.99 1.07 10.52 1.07 5.33 1.07C2.35 1.07 0 3.41 0 6.29C0 45.7 0 360.92 0 400.32C0 403.31 2.35 405.65 5.33 405.65C610.94 405.65 955.83 405.65 1561.44 405.65C1565 405 1566 404 1566.67 400.32C1566.67 371.29 1567 261 1566.67 109.97C1566.67 109.76 1566 140 1566.56 109.44C1566.56 109.33 1567 67 1566.67 109.01C1566.67 102.1 1567 65 1567 5" id="cZqowwNBR"></path></defs><g><g><use xlink:href="#aJmisEfNV" opacity="1" fill="#000000" fill-opacity="1"></use><g><use xlink:href="#aJmisEfNV" opacity="1" fill-opacity="0" stroke="#000000" stroke-width="1" stroke-opacity="0"></use></g></g><g><use xlink:href="#cZqowwNBR" opacity="1" fill="#000000" fill-opacity="0"></use><g><use xlink:href="#cZqowwNBR" opacity="1" fill-opacity="0" stroke="#000000" stroke-width="1" stroke-opacity="0"></use></g></g></g></svg>