<?xml version="1.0" encoding="UTF-8" standalone="no"?>
<!DOCTYPE svg PUBLIC "-//W3C//DTD SVG 1.1//EN" "http://www.w3.org/Graphics/SVG/1.1/DTD/svg11.dtd">
<svg version="1.1" xmlns="http://www.w3.org/2000/svg" xmlns:xlink="http://www.w3.org/1999/xlink" preserveAspectRatio="xMidYMid meet" viewBox="3.0133136924401347 -0.01000374589542119 1047.9906498034431 401.0379977086415" width="1043.99" height="397.04"><defs><path d="M997.17 11.33L1037.67 11.33L1037.67 51.73L997.17 51.73L997.17 11.33ZM997.17 62.06L1037.67 62.06L1037.67 102.46L997.17 102.46L997.17 62.06ZM986.83 18.64L986.83 51.73L953.74 51.73L986.83 18.64ZM946.43 62.06L986.83 62.06L986.83 102.46L946.43 102.46L946.43 62.06ZM65.19 63L105.7 63L105.7 103.41L65.19 103.41L65.19 63ZM65.19 52.67L65.19 19.57L98.29 52.67L65.19 52.67ZM14.35 12.37L54.85 12.37L54.85 52.67L14.35 52.67L14.35 12.37ZM14.35 63L54.85 63L54.85 103.41L14.35 103.41L14.35 63ZM1048 6.22C1048 3.4 1045.72 0.99 1042.9 0.99C1037.81 0.99 997.13 0.99 992.05 0.99C991.32 0.99 990.69 1.21 990.07 1.42C989.44 1.72 988.81 2.04 988.4 2.55C983.31 7.63 942.64 48.22 937.56 53.29C937.13 53.72 936.72 54.34 936.41 54.96C936.19 55.6 936.09 56.22 936.09 56.95C936.09 60.04 936.09 75.53 936.09 103.41C922.63 103.41 915.15 103.41 913.64 103.41C910.83 103.41 908.53 105.81 908.53 108.63C908.53 108.89 908.53 110.98 908.53 111.24C908.53 249.36 796.1 361.79 657.87 361.79C631.52 361.79 420.71 361.79 394.36 361.79C256.14 361.79 143.7 249.36 143.7 111.24C143.7 110.98 143.7 108.89 143.7 108.63C143.7 105.81 141.4 103.41 138.47 103.41C136.98 103.41 129.5 103.41 116.03 103.41C116.03 76.1 116.03 60.92 116.03 57.89C116.03 57.16 115.82 56.54 115.61 55.91C115.3 55.28 114.98 54.66 114.47 54.23C109.39 49.16 68.71 8.57 63.62 3.49C63.21 3.09 62.58 2.66 61.96 2.35C61.32 2.15 60.7 2.04 59.97 2.04C54.9 2.04 14.3 2.04 9.23 2.04C6.3 2.04 4.01 4.34 4.01 7.16C4.01 45.72 4.01 354.24 4.01 392.8C4.01 395.73 6.3 398.03 9.23 398.03C112.6 398.03 939.53 398.03 1042.9 398.03C1045.72 398.03 1048 395.73 1048 392.8C1048 364.39 1048 137.05 1048 108.63C1048 108.41 1047.9 108.32 1047.9 108.11C1047.9 108.01 1048 107.79 1048 107.69C1048 100.92 1048 67.09 1048 6.22" id="d2BHyJxUbF"></path></defs><g><g><use xlink:href="#d2BHyJxUbF" opacity="1" fill="#000000" fill-opacity="1"></use></g></g></svg>