<?xml version="1.0" encoding="UTF-8" standalone="no"?>
<!DOCTYPE svg PUBLIC "-//W3C//DTD SVG 1.1//EN" "http://www.w3.org/Graphics/SVG/1.1/DTD/svg11.dtd">
<svg version="1.1" xmlns="http://www.w3.org/2000/svg" xmlns:xlink="http://www.w3.org/1999/xlink" preserveAspectRatio="xMidYMid meet" viewBox="19.007254454973914 576.1182923837737 92.71478379506011 145.06636789754384" width="88.71" height="141.07"><defs><path d="M32.44 682.7C33.35 683.93 45.32 700.19 46.75 702.34C48.18 704.48 54.03 712.15 54.55 713.33C55.07 714.5 55.91 715.86 57.09 716.25C58.26 716.64 59.17 717.36 58.64 718.01C58.13 718.66 51.95 717.62 49.35 713C49.54 714.56 48.5 715.21 47.72 715.34C46.94 715.47 45.19 714.69 44.79 713.91C43.95 714.69 42.45 714.24 41.8 713.13C41.15 712.03 41.48 710.53 42.26 710.2C43.04 709.88 43.75 709.36 44.08 709.62C43.88 708.71 44.73 707.34 44.73 707.34C43.04 703.64 30.29 687.51 27.5 684.12C27.37 685.17 24.57 685.69 23.79 684.97C23.33 685.81 21.45 685.42 20.8 685.04C20.15 684.65 18.85 681.2 22.29 680.81C22.36 680.16 23.66 679.38 23.92 679.64C23.92 679.57 23.92 678.99 23.92 678.92C23.92 678.92 22.81 677.95 21.38 674.24C19.95 670.53 19.76 667.28 20.47 666.63C21.19 665.98 22.49 665.4 22.75 666.5C23.01 667.61 25.22 672.36 25.87 673.27C26.13 671.77 27.75 671.44 28.6 671.51C29.45 671.58 30.55 669.69 31.2 669.69C31.85 669.69 32.76 669.04 33.02 668.45C33.28 667.87 34.84 666.76 35.88 665.85C36.92 664.94 39.27 658.76 40.24 656.49C41.22 654.21 52.21 640.81 54.03 639.25C51.62 638.99 48.89 637.3 47.2 636.19C45.51 635.09 44.92 633.98 44.86 633.08C44.79 632.16 45.12 631.9 45.12 631.9C45.12 631.9 45.12 629.69 45.44 628.65C45.77 627.61 48.7 622.99 50.06 621.44C51.43 619.87 53.51 618.57 54.94 618.76C56.37 618.96 63.59 622.48 64.76 623.26C65.35 622.02 67.29 620.72 67.43 619.87C67.56 619.03 68.73 613.11 69.05 612.14C69.38 611.16 70.61 609.66 70.68 608.88C70.74 608.1 71.65 606.93 71.91 607.26C72.17 607.58 74.25 609.21 75.36 609.27C76.6 607.58 78.29 604.92 78.87 603.1C79.46 601.27 81.28 596.26 83.17 592.56C85.05 588.85 86.03 586.38 86.16 585.86C86.29 585.34 86.94 585.41 87.07 584.95C87.2 584.5 87.39 582.42 87.98 581.63C88.56 580.85 91.23 579.95 91.75 580.01C92.27 580.07 93.18 580.2 93.18 580.2C93.18 580.2 94.48 579.55 95.33 578.71C96.17 577.86 96.82 576.95 97.28 577.14C97.73 577.34 97.73 577.8 97.67 578.32C97.6 578.84 95.65 580.85 95.65 580.85C95.65 580.85 96.5 580.85 96.5 581.05C97.6 580.66 99.29 580.07 99.42 581.11C99.55 582.15 96.63 583 96.5 583.52C96.37 584.04 94.09 585.99 93.51 586.45C92.92 586.9 90.51 586.64 90.38 587.16C90.25 587.68 87.72 593.92 87.07 595.94C86.42 597.96 84.47 604 84.4 604.72C84.34 605.43 83.03 608.1 79.78 612.98C80.3 613.31 78.94 615.71 78.87 616.17C79.98 616.1 80.82 616.56 80.76 617.01C80.69 617.47 80.56 618.7 80.89 619.61C81.21 620.52 81.73 622.21 81.41 623.51C84.34 623.97 92.59 630.22 94.48 631.84C96.37 633.47 101.83 639.25 102.22 640.36C102.61 641.46 103.78 642.96 104.63 643.22C105.47 643.48 105.02 644.26 105.21 644.78C105.41 645.3 106.77 647.51 107.68 648.16C108.59 648.81 108.46 651.35 108.46 652.91C108.46 654.47 109.83 657.99 106.32 660.46C105.93 662.92 104.17 666.11 100.72 668.12C97.28 670.15 86.09 676.97 85.9 676.45C85.7 677.56 85.76 680.29 85.63 680.81C85.5 681.33 83.68 683.35 83.62 684.12C83.56 684.91 82.64 686.14 82.64 686.6C82.64 687.05 81.99 687.84 81.54 688.09C81.08 688.35 80.24 690.11 79.85 690.43C79.46 690.76 77.25 690.17 76.92 690.82C76.6 691.47 76.14 693.1 75.88 693.62C75.62 694.14 73.86 694.66 73.86 695.19C73.86 695.7 73.54 701.55 72.04 702.47C70.55 703.38 69.83 702.72 69.83 702.72C69.83 702.72 68.86 705.39 68.6 705.78C68.34 706.17 61.19 712.74 58.97 712.61C56.76 712.48 54.16 706.69 54.42 705.13C54.68 703.57 57.34 703.77 57.74 702.85C58.13 701.94 59.82 699.47 61.25 698.89C62.68 698.3 63.33 697.65 63.33 697.65C63.33 697.65 62.03 692.12 62.42 691.34C62.81 690.57 64.5 688.16 65.35 688.03C66.19 687.9 66.19 688.09 66.65 687.11C67.1 686.14 67.81 684.06 68.34 684.06C68.86 684.06 70.29 680.48 71.13 680.22C71.98 679.97 73.47 677.69 74.19 677.49C74.91 677.3 76.21 675.93 76.08 675.41C75.95 674.89 78.29 669.17 77.96 668.52C77.64 667.87 76.79 666.57 77.12 665.85C77.44 665.14 80.17 664.1 80.56 663.12C80.95 662.15 82.32 658.11 81.73 657.72C81.15 657.33 78.87 656.94 77.51 657.14C76.14 657.33 68.01 656.03 67.49 656.55C66.97 657.07 63.59 656.81 63.2 656.1C62.81 655.38 62.22 653.69 61.83 653.56C61.44 653.43 59.75 652.32 59.36 652.78C58.97 653.24 57.87 655.32 57.54 655.71C57.22 656.1 56.37 655.58 56.18 656.35C55.98 657.14 53.18 661.36 52.27 662.08C51.36 662.8 49.41 664.94 48.96 665.98C48.5 667.02 48.63 669.75 47.98 670.15C47.33 670.53 45.44 670.53 45.38 671.38C45.32 672.22 45.71 673.07 45.44 673.59C45.19 674.11 43.82 673.92 44.08 674.44C44.34 674.96 45.51 674.83 45.12 675.8C44.73 676.78 43.56 677.95 43.56 677.95C43.56 677.95 43.23 681.01 41.48 682.63C41.61 683.93 40.7 684.71 40.24 685.17C39.79 685.62 32.44 682.7 32.44 682.7" id="a2FZoxcPl"></path></defs><g><g><use xlink:href="#a2FZoxcPl" opacity="1" fill="#000000" fill-opacity="1"></use></g></g></svg>