<?xml version="1.0" encoding="utf-8"?>
<!-- Generator: Adobe Illustrator 15.1.0, SVG Export Plug-In . SVG Version: 6.00 Build 0)  -->
<!DOCTYPE svg PUBLIC "-//W3C//DTD SVG 1.1//EN" "http://www.w3.org/Graphics/SVG/1.1/DTD/svg11.dtd">
<svg version="1.1" id="Layer_1" xmlns="http://www.w3.org/2000/svg" xmlns:xlink="http://www.w3.org/1999/xlink" x="0px" y="0px"
	 width="612px" height="792px" viewBox="0 0 612 792" enable-background="new 0 0 612 792" xml:space="preserve">
<path fill-rule="evenodd" clip-rule="evenodd" stroke="#000000" stroke-width="2.9999" stroke-linecap="round" stroke-linejoin="round" stroke-miterlimit="22.9256" d="
	M133.757,670.106c9.359,3.224,22.253,10.087,36.5,14.558c2.013,0.632,4.567,1.237,7.603,1.817c-0.794-1.202-1.345-2.49-1.676-3.858
	c-1.496-6.188,1.52-13.988,4.713-20.409c3.193-6.421,6.565-11.463,9.745-12.867c0.523-0.231,1.042-0.363,1.58-0.422
	c0.434-1.337,0.861-2.702,1.271-4.092c3.922-13.311,6.306-28.908,10.962-41.389c4.657-12.48,11.589-21.842,17.118-28.291
	c5.528-6.449,9.653-9.984,12.969-15.808c3.315-5.823,5.818-13.935,6.838-27.14c1.019-13.204,0.552-31.503-1.349-48.867
	c-1.902-17.364-5.24-33.795-6.713-46.639c-1.475-12.845-1.084-22.103,2.41-33.492c0.474-1.545,1.006-3.13,1.587-4.728
	c-4.94-1.824-7.369-3.491-8.267-5.945c-1.748-4.771,2.282-12.521,7.689-21.615c5.407-9.094,12.191-33.909,16.735-47.279
	c4.544-13.37,6.74-31.265,5.779-45.584c-0.961-14.319-3.864-25.203-6.707-37.813c-11.897,4.462-20.939,8.552-33.46,12.725
	c-12.52,4.172-25.921,6.068-39.391,13.286c-13.47,7.218-29.688,20.653-39.279,26.174c-9.592,5.521-12.556,3.13-14.863,3.789
	c-2.306,0.658-3.954,4.37-3.627,9.494c0.207,3.247-14.566,56.825-17.66,23.616c-0.816-8.767-6.317-10.01-11.651-0.136
	c-3.105,5.748-5.731,14.998-8.498,21.885s-5.672,11.411-10.385,10.532c-4.713-0.878-11.235-7.162-11.927-19.6
	c-0.871-15.652,12.771-51.747,27.183-60.847c5.622-3.549,7.873-6.187,9.875-9.287c2.003-3.099-2.241-5.41,3.549-10.721
	c5.792-5.311,21.619-13.622,34.57-22.286s23.027-17.68,32.75-23.46c9.723-5.78,19.096-8.324,30.478-15.081
	s25.225-18.001,41.989-28.165s36.053-19.298,50.667-18.839c-0.098-0.365,0.499,2.489-0.258-1.064
	c-0.757-3.554,3.252-9.643,8.895-10.347c5.643-0.704,10.035-0.366,17.069,0.902c-0.375-1.966-0.139-2.313-1.629-6.403
	c-1.489-4.091-7.061-13.216-9.219-24.957c-2.157-11.741-1.541-27.848,1.894-40.892c3.434-13.043,9.683-23.024,20.28-28.606
	c10.599-5.582,25.544-6.766,38.989-5.487c13.444,1.279,25.389,5.02,34.64,15.363s15.809,27.287,14.646,44.692
	c-1.162,17.404-10.044,35.269-14.989,45.565c-4.944,10.295-5.952,13.021-10.289,13.834c-4.338,0.812-12.007-0.29-16.016,0.629
	c-4.009,0.919-4.033,5.197-3.651,6.77c0.383,1.573,0.123,0.47,0.192,0.705c0.677,0.369-4.035-2.286,1.979,1.096
	c6.015,3.381,17.311,12.416,18.48,15.788c1.171,3.372,0.521,4.469,0.641,6.757c3.156,1.952,2.974,1.605,9.027,6.113
	c6.053,4.507,16.517,14.537,21.137,23.746c4.619,9.209,6.609,17.11,10.385,26.643c3.775,9.534,9.337,20.702,12.918,26.567
	c3.581,5.865,5.181,9.311,16.042,15.973c10.861,6.661,30.987,16.539,40.706,22.285c9.72,5.746,9.036,7.361,8.788,8.4
	c-0.247,1.04-0.06,1.507,3.154,4.171c3.213,2.665,9.452,7.529,14.004,14.778c4.551,7.248,7.417,16.883,10.779,26.253
	c4.8,13.375,5.711,39.064-3.809,41.209c-7.704,1.733-20.253-19.193-23.742-24.902c-3.799-6.217-4.994-11.521-8.813-12.326
	s-0.954,18.202-7.803,17.56c-6.849-0.643-8.287-20.812-8.283-25.775c0.003-3.931,0.636-18.518-1.495-20.292
	c-0.318-0.266-4.202,4.636-7.228,5.063c-5.421,0.765-11.961-2.884-17.817-5.626c-9.45-4.424-24.642-14.408-35.634-20.699
	c-10.992-6.291-17.645-19.42-22.037-26.655c-4.393-7.236-2.103-3.548-3.205-5.491c-3.114,11.894-5.645,22.613-5.718,37.812
	c-0.072,15.199,4.07,49.561,8.511,62.457c4.439,12.896,9.167,20.73,9.105,28.39c-0.054,6.486-3.54,12.847-11.884,16.325
	c2.1,5.304,4.366,11.025,6.914,17.194c6.01,14.559,13.587,31.613,22.26,49.241c8.672,17.628,18.44,35.831,22.371,48.671
	c3.932,12.841,2.026,20.319-8.822,39.085c-10.848,18.766-30.639,48.818-38.519,67.069c-0.229,0.529-0.445,1.048-0.655,1.559
	c2.781,0.85,5.758,2.247,9.196,4.163c6.815,3.798,15.439,9.624,22.461,12.59c7.021,2.965,12.441,3.069,16.859,5.097
	c4.418,2.028,7.831,5.979,7.861,10.711c0.011,1.771-0.453,3.653-1.731,5.449c15.694-1.512,28.129-3.437,35.69-5.811
	c14.246-4.471,27.14-11.334,36.499-14.558s15.183-2.808,17.366,0.623c2.184,3.433,0.729,9.88-8.008,16.951
	c-8.734,7.069-24.748,14.767-39.41,19.029c-14.663,4.263-27.972,5.096-53.346,4.783l-0.918-0.012
	c0.116,2.728,0.028,5.604,0.294,7.759c0.163,1.323,0.461,2.375,0.774,3.281c0.456-0.038,0.918-0.058,1.384-0.058
	c9.261,0,16.768,7.507,16.768,16.768S459.391,755.999,450.13,756c-9.26-0.001-16.768-7.508-16.768-16.769
	c0-2.021,0.357-3.957,1.013-5.752c-0.389-0.592-0.765-1.262-1.126-2.017c-2.479-5.19-4.247-14.378-4.347-20.349
	c-66.27-1.574-125.785-1.574-192.054,0c-0.1,5.971-1.867,15.158-4.347,20.349c-0.361,0.755-0.737,1.425-1.126,2.017
	c0.655,1.795,1.013,3.731,1.013,5.752c0,9.261-7.507,16.768-16.768,16.768c-9.261,0-16.768-7.507-16.768-16.768
	s7.507-16.768,16.768-16.768c0.466,0,0.928,0.02,1.384,0.058c0.314-0.906,0.611-1.958,0.774-3.28
	c0.266-2.155,0.178-5.032,0.293-7.76l-0.917,0.012c-25.373,0.313-38.683-0.52-53.345-4.783
	c-14.663-4.264-30.676-11.958-39.411-19.029c-8.736-7.071-10.191-13.519-8.008-16.951
	C118.575,667.299,124.398,666.883,133.757,670.106L133.757,670.106z M291.128,694.293c19.003,0.431,38.78,0.616,58.291,0.531
	c-4.219-3.336-5.962-8.137-6.273-12.737c-0.403-5.952,1.586-11.568,4.124-18.068c2.516-6.445,5.57-13.759,10.086-15.05
	c2.36-13.772,3.907-33.038,8.507-47.864c5.244-16.9,14.456-28.031,18.373-35.997s2.539-12.768-5.829-27.429
	c-8.368-14.662-23.728-39.185-34.12-55.605s-15.816-24.74-20.247-23.597c-4.431,1.145-7.864,11.751-9.972,28.339
	c-2.108,16.588-2.89,39.156-4.402,53.872c-1.515,14.716-3.761,21.58-9.059,29.795s-13.649,17.781-25.008,32.995
	c-11.304,15.141-25.587,35.874-35.738,50.012c6.148,2.604,9.663,7.019,13.807,10.804c4.979,4.549,10.868,8.188,17.299,10.372
	c6.43,2.184,13.399,2.912,17.762,5.043c4.362,2.132,6.115,5.667,4.982,9.827C293.281,691.103,292.443,692.758,291.128,694.293z"/>
</svg>
