<?xml version="1.0" encoding="UTF-8" standalone="no"?>
<!DOCTYPE svg PUBLIC "-//W3C//DTD SVG 1.1//EN" "http://www.w3.org/Graphics/SVG/1.1/DTD/svg11.dtd">
<svg version="1.1" xmlns="http://www.w3.org/2000/svg" xmlns:xlink="http://www.w3.org/1999/xlink" preserveAspectRatio="xMidYMid meet" viewBox="576.2580775418354 81.73835308051102 176.64856424921072 539.4211895115161" width="172.65" height="535.42"><defs><path d="M743.97 457.8C748.5 451.73 749.61 445.87 749.83 443.88C750.05 441.89 749.83 439.68 748.94 437.92C748.06 436.15 745.85 431.07 745.52 429.52C745.19 427.97 741.76 429.19 741.76 429.19C741.76 429.19 740.43 421.23 739.44 412.84C738.45 404.44 732.04 379.92 731.16 376.94C730.27 373.95 726.74 363.79 726.4 362.02C726.07 360.25 726.07 356.72 725.3 353.52C724.53 350.31 722.21 344.24 721.43 342.03C720.66 339.82 720.77 339.15 720.77 337.94C720.77 336.72 722.32 337.72 722.32 336.61C722.32 335.51 721.65 333.52 721.65 330.43C721.65 327.33 720.77 328.33 719.89 328.66C719 328.99 718.89 327.78 719.56 326.34C720.22 324.9 717.68 325.01 716.57 325.01C715.47 325.01 715.8 324.9 715.47 323.8C715.14 322.69 713.04 314.96 711.82 309.88C710.61 304.8 707.52 283.36 707.18 281.38C706.85 279.39 707.18 277.73 707.18 276.29C707.18 274.86 707.18 273.09 707.62 271.1C708.07 269.11 707.73 268.89 707.18 267.46C706.63 266.02 707.62 265.14 707.85 264.36C708.07 263.59 707.85 263.92 707.29 263.37C706.74 262.82 707.62 262.26 708.29 262.37C708.95 262.49 708.07 261.49 707.73 260.72C707.4 259.94 708.29 260.16 710.16 259.83C712.04 259.5 717.68 259.83 720.44 256.41C723.2 252.99 724.53 248.78 724.08 244.92C723.64 241.05 721.55 234.43 719.56 230.45C717.57 226.47 717.01 215.75 717.01 215.75C717.01 215.75 717.01 215.75 717.46 211.23C717.9 206.7 721.43 195.32 723.2 189.58C724.97 183.82 724.47 179.96 722.98 175.37C721.49 170.79 709.06 165.05 709.06 165.05C709.33 164.82 711.45 162.96 711.71 162.73C711.71 162.73 715.08 164.61 717.24 165.38C719.39 166.15 722.7 166.21 724.8 165.59C726.9 164.99 728.01 161.29 728.01 160.46C728.01 159.64 728.5 159.2 729 158.74C729.5 158.31 730.38 157.15 730.77 156.55C731.16 155.93 731.49 155.55 731.38 155.16C731.27 154.77 731.1 154.05 731.1 154.05C731.1 154.05 731.87 153.56 732.37 153.28C732.87 153 732.65 152.74 732.54 152.23C732.43 151.74 732.87 150.58 733.47 150.19C734.08 149.8 736.02 150.58 737.29 150.47C738.56 150.35 739.16 148.64 739.33 147.21C739.5 145.77 738.56 141.41 738.34 140.2C738.12 138.97 737.67 137.65 737.67 137.65C737.67 137.65 737.89 137.65 738.28 137.71C738.67 137.76 739.44 137.37 739.44 137.37C739.4 137.37 739.04 137.32 739 137.32C739 137.32 738.56 137.21 738.23 137.09C737.89 136.99 738.01 136.32 738.01 136.16C738.01 135.99 738.23 135.55 738.39 135C738.56 134.44 739.5 133.89 740.1 133.12C740.71 132.35 741.15 132.35 741.32 131.86C741.49 131.35 741.15 130.96 741.21 130.14C741.26 129.31 741.32 128.98 741.87 124.23C742.43 119.48 740.71 113.79 740.71 113.79C740.71 113.79 740.33 112.57 740.33 112.24C740.33 111.91 741.1 110.47 742.09 108.04C743.09 105.62 741.87 104.73 740.88 102.18C739.88 99.65 735.02 99.54 733.25 98.54C731.49 97.54 729.06 96.11 724.42 92.24C719.78 88.38 706.19 88.94 706.19 88.94C706.19 88.94 705.42 88.71 704.97 88.04C704.53 87.38 704.2 87.16 703.65 85.95C703.1 84.74 702.32 85.29 701.44 84.62C700.55 83.97 699.89 83.74 698.24 83.85C696.58 83.97 696.36 83.51 695.03 82.97C693.7 82.41 691.49 82.97 689.4 83.63C687.3 84.29 682.55 86.06 681.11 88.27C679.67 90.48 678.02 93.91 676.8 95.12C675.59 96.33 674.48 96.89 670.95 99.65C667.41 102.41 668.52 103.62 666.53 107.17C664.54 110.7 663.33 112.91 661.56 118.09C659.79 123.29 660.01 131.58 660.01 134C660.01 136.44 658.79 139.3 656.58 140.97C654.38 142.62 648.96 146.49 646.53 147.93C644.1 149.36 643.99 154.77 639.24 157.65C634.49 160.52 623 160.96 624.66 161.29C626.32 161.62 628.3 161.73 632.17 161.18C636.04 160.62 643.11 157.76 642.34 158.97C641.56 160.18 640.79 162.73 637.58 166.82C634.38 170.9 635.34 170.24 634.46 171.71C633.57 173.19 632.91 174.07 631.95 174.95C630.99 175.84 628.42 177.39 628.42 177.39C628.42 177.39 629.82 176.87 632.1 175.99C634.38 175.09 635.12 173.48 635.12 173.86C635.12 174.21 635.04 175.91 634.38 176.8C633.72 177.68 632.17 178.41 629.89 181.29C627.61 184.16 628.12 189.31 627.83 190.5C627.53 191.67 627.83 193.74 626.57 195.43C625.32 197.12 620.61 197.56 620.61 197.56C620.61 197.56 621.42 198.16 623.41 197.93C625.4 197.71 627.53 197.2 629.89 194.99C632.24 192.78 634.82 190.86 634.82 190.86C634.82 190.86 634.38 192.19 633.94 193.59C633.5 194.99 631.88 199.33 630.18 202.86C628.49 206.41 625.18 213.76 621.12 220.84C617.07 227.9 608.38 252.14 606.98 254.72C605.58 257.29 606.17 258.54 606.54 261.49C606.91 264.44 611.77 284.1 613.25 290.43C614.72 296.77 617.07 302.88 617.07 303.62C617.07 304.35 615.82 306.34 615.09 308.26C614.35 310.17 614.27 312.82 613.54 315.11C612.8 317.39 612.8 317.83 612.21 320.12C611.62 322.4 612.21 323.28 611.48 327.7C610.74 332.12 611.48 332.27 611.92 335.51C612.36 338.75 612.8 338.31 613.1 340C613.39 341.69 613.91 343.02 613.91 345.52C613.91 348.03 614.13 347.66 615.01 349.94C615.9 352.23 616.12 353.7 616.34 355.98C616.56 358.26 617.74 358.78 618.47 360.77C619.21 362.76 620.02 365.11 620.24 366.95C620.46 368.8 620.83 371.45 621.05 373.44C621.27 375.43 622.23 376.16 622.67 377.63C623.11 379.11 624.51 395.9 624.81 399.88C625.1 403.85 625.32 417.11 625.62 422.49C625.91 427.86 624.51 429.63 623.7 430.74C622.89 431.84 622.38 435.45 622.15 437.29C621.93 439.13 622.82 440.53 620.68 442.3C618.55 444.07 619.14 443.33 618.84 445.83C618.55 448.34 619.21 449.15 618.18 450.77C617.15 452.39 616.78 453.57 615.9 455.55C615.01 457.54 616.41 459.31 616.41 459.31C616.41 459.31 614.64 463.51 612.36 468.37C610.08 473.23 607.65 480.01 605.88 485.82C604.11 491.64 601.76 513.52 601.76 518.01C601.76 522.5 600.65 520.95 599.84 522.13C599.03 523.31 599.03 523.83 598.66 525.37C598.29 526.92 598.95 527.66 598.73 528.69C598.51 529.72 598.37 530.6 597.92 532.81C597.48 535.02 597.56 535.91 597.26 537.01C596.97 538.11 595.35 537.82 594.32 537.67C593.29 537.53 592.99 537.23 592.62 538.04C592.26 538.85 591.52 539.96 590.56 541.87C589.6 543.79 589.53 544.82 589.6 545.55C589.68 546.29 590.41 547.47 591.37 548.28C592.33 549.09 591.37 550.12 590.41 551.45C589.46 552.77 588.72 553.43 587.84 554.98C586.95 556.53 586.29 559.25 585.55 560.95C584.82 562.64 585.92 564.26 586.07 565.51C586.22 566.76 585.7 567.94 584.82 570.45C583.93 572.95 583.56 574.2 583.56 576.78C583.56 579.36 583.49 581.86 583.12 582.45C582.75 583.04 582.31 583.48 582.02 585.4C581.72 587.31 582.83 588.42 583.05 589.37C583.27 590.33 582.61 592.03 582.02 593.65C581.43 595.27 580.47 595.71 579.73 597.4C579 599.1 578.63 601.67 577.82 603.88C577.01 606.09 577.16 608.01 577.74 610.44C578.33 612.87 581.57 612.8 582.9 611.91C584.23 611.03 585.63 609.04 585.63 609.04C585.63 609.04 586.14 609.04 586.73 609.04C587.32 609.04 588.13 608.74 589.24 607.57C590.34 606.39 591.81 604.84 591.81 604.84C591.81 604.84 592.18 604.84 592.99 604.62C593.8 604.4 594.1 604.18 595.2 603.22C596.31 602.26 597.63 600.42 597.63 600.42C597.63 600.42 597.63 600.42 598.81 599.91C599.99 599.39 601.09 598.36 601.83 596.81C602.56 595.27 604.48 592.98 605.22 591.44C605.95 589.89 606.25 589.23 605.88 588.56C605.51 587.9 606.1 586.39 606.1 586.39C606.1 586.39 606.1 586.39 608.09 586.39C610.08 586.39 610.41 585.84 611.18 584.96C611.95 584.07 612.07 583.52 613.72 582.41C615.38 581.31 615.71 580.87 617.04 577.66C618.36 574.46 618.03 572.58 618.03 572.25C618.03 571.92 619.36 571.59 620.13 570.81C620.9 570.04 621.12 569.49 622.12 567.17C623.11 564.85 622.78 564.19 622.78 563.3C622.78 562.42 620.79 562.75 620.13 561.98C619.47 561.2 620.13 560.1 620.46 559.22C620.79 558.33 621.68 557.45 623 556.56C624.33 555.68 625.1 554.46 625.76 552.7C626.43 550.93 624.44 549.83 624.55 549.16C624.66 548.5 624 547.62 623.89 547.06C623.78 546.51 625.43 543.86 627.31 540.99C629.19 538.11 628.2 535.46 627.53 534.69C626.87 533.92 627.2 533.03 627.97 531.82C628.75 530.6 628.3 529.94 628.3 528.62C628.3 527.29 625.32 525.96 625.32 525.96C625.32 525.96 626.21 524.97 626.54 523.64C626.87 522.32 632.94 510.5 635.27 505.64C637.58 500.78 643.99 481.11 644.99 478.57C645.98 476.03 646.86 474.48 648.3 471.72C649.74 468.96 654.05 465.98 655.92 463.55C657.8 461.12 658.02 460.67 658.13 458.91C658.24 457.14 657.47 456.36 660.34 453.6C663.21 450.84 661.89 450.18 663.66 447.53C665.42 444.88 665.42 443.44 664.98 442.22C664.54 441.01 665.76 438.58 666.09 436.81C666.42 435.04 665.31 433.05 664.76 431.73C664.21 430.4 665.2 425.32 665.87 421.23C666.53 417.15 667.63 403.67 667.63 401.02C667.63 398.37 670.06 384.01 670.06 384.01C670.14 383.98 670.76 383.81 670.84 383.78C670.84 383.78 673.16 387.43 676.36 392.51C679.56 397.59 692.82 416.04 695.25 419.91C697.68 423.78 701.88 438.03 702.21 438.14C702.54 438.25 702.43 439.46 701.99 440.01C701.55 440.57 701 440.68 701 441.67C701 442.67 701.77 445.32 702.43 445.54C703.1 445.76 705.31 446.2 705.31 446.2C705.31 446.2 704.86 446.64 704.42 446.97C703.98 447.31 702.32 448.19 702.32 448.19C702.32 448.19 701.77 449.63 700.55 451.28C699.34 452.94 698.24 454.49 698.24 454.49C698.24 454.49 698.57 454.82 699.56 454.82C700.55 454.82 699.45 456.7 699.45 456.7C699.45 456.7 698.12 458.02 696.69 460.01C695.25 462 690.28 472.83 685.86 482.33C681.44 491.83 678.24 520.22 678.24 520.99C678.24 521.76 678.07 523.37 677.8 523.2C677.52 523.04 677.8 523.2 677.63 523.97C677.46 524.75 677.08 525.96 676.91 526.79C676.75 527.62 676.42 527.07 675.75 526.9C675.09 526.74 674.26 526.74 673.1 525.96C671.94 525.19 668.3 525.19 667.97 525.69C667.63 526.18 667.74 527.01 668.13 528.67C668.52 530.33 668.35 532.87 668.35 532.87C668.35 532.87 667.74 532.09 667.47 531.71C667.19 531.32 667.47 531.71 667.08 531.05C666.7 530.38 665.48 529.17 664.76 527.73C664.04 526.29 662.17 526.02 660.34 525.8C658.52 525.58 656.58 526.79 656.48 529.44C656.37 532.09 661.17 533.31 662.66 533.03C664.15 532.76 666.75 533.64 666.75 533.64C666.75 533.64 667.14 534.3 666.75 534.8C666.36 535.3 666.64 535.85 666.86 537.62C667.08 539.39 666.42 542.26 666.53 543.81C666.64 545.35 666.14 545.9 665.48 547.01C664.82 548.11 664.54 547.84 664.43 548.94C664.32 550.05 665.15 550.1 665.31 551.1C665.48 552.09 664.71 554.08 663.99 555.9C663.27 557.72 663.99 558.22 664.1 559.33C664.21 560.43 663.44 560.65 662.55 562.09C661.67 563.52 661.72 564.52 661.72 565.4C661.72 566.29 661.89 565.9 661.17 567.78C660.45 569.66 660.34 569.05 659.73 570.1C659.13 571.15 659.07 573.69 658.91 574.52C658.74 575.34 659.07 576.17 659.46 577.22C659.85 578.27 659.29 582.14 659.57 584.79C659.85 587.44 662 591.25 662.94 592.36C663.88 593.46 664.98 594.07 665.26 594.4C665.54 594.73 665.64 595.45 664.54 595.34C663.44 595.23 660.23 595.95 657.52 597.55C654.82 599.15 653.33 603.63 653.11 606.66C652.88 609.7 654.98 613.46 656.42 615.11C657.86 616.77 663.77 619.98 670.06 616.83C676.36 613.68 675.75 605.95 675.75 605.95C675.91 605.93 677.15 605.8 677.3 605.78C677.3 605.78 677.41 606.06 677.8 607.77C678.18 609.48 679.51 612.57 680.23 613.51C680.95 614.45 684.59 619.42 692.71 617.38C700.83 615.34 701.71 605.78 701.71 605.78C701.74 605.79 701.89 605.87 702.16 606C702.45 606.07 702.62 606.1 702.65 606.11C702.65 606.11 702.82 606.72 702.87 607.71C702.93 608.71 704.15 611.03 705.19 612.8C706.24 614.56 712.49 618.26 718.56 615.89C724.64 613.51 725.41 606.5 725.41 606.5C725.64 606.51 727.45 606.6 727.68 606.61C727.68 606.61 727.79 606.94 727.9 607.49C728.01 608.04 728.56 609.92 730.71 612.19C732.87 614.45 739.83 616.11 744.14 612.74C748.45 609.37 749.55 603.85 746.18 597.6C742.81 591.36 732.92 594.35 732.92 594.35C732.74 594.09 731.23 592.06 731.04 591.81C731.04 591.81 731.38 591.58 732.37 590.92C733.37 590.26 733.7 589.6 734.47 588.71C735.24 587.83 737.67 587.39 737.89 586.39C738.12 585.4 739 585.29 741.32 583.52C743.64 581.75 742.64 580.09 741.65 575.9C740.66 571.7 733.92 572.91 731.38 572.58C728.84 572.25 726.52 570.04 723.31 569.27C720.11 568.49 720.44 568.49 718.12 567.5C715.8 566.51 716.68 566.51 715.25 565.18C713.81 563.85 712.82 564.41 711.05 564.08C709.28 563.75 708.84 563.52 708.95 562.09C709.06 560.65 707.96 560.76 705.86 560.1C703.76 559.44 703.43 557.67 701.99 556.01C700.55 554.35 702.32 555.24 703.98 553.91C705.64 552.59 704.75 552.26 705.09 549.83C705.42 547.39 704.64 547.39 703.43 546.62C702.21 545.85 701.88 545.63 702.87 542.76C703.87 539.88 702.1 541.54 702.1 540.32C702.1 539.11 702.32 537.45 703.76 534.69C705.19 531.93 706.3 530.49 707.85 529.39C709.39 528.28 707.96 527.73 707.52 526.29C707.07 524.86 705.31 524.2 704.97 523.53C704.64 522.87 704.75 522.98 705.31 521.54C705.86 520.11 710.94 513.7 713.81 508.73C716.68 503.76 727.73 479.12 727.95 478.13C728.17 477.13 729.06 476.14 730.6 475.15C732.15 474.15 731.6 474.37 731.6 473.82C731.6 473.27 732.48 473.27 734.03 470.73C735.57 468.19 739.44 463.88 743.97 457.8ZM635.93 252.43C636.59 252.99 637.25 252.76 636.26 253.76C635.27 254.75 634.71 254.2 635.27 255.42C635.82 256.63 636.59 256.85 635.6 257.84C634.6 258.84 634.38 259.17 634.6 260.16C634.82 261.16 634.82 260.16 634.27 261.16C633.72 262.15 634.38 262.26 633.94 263.37C633.5 264.47 633.17 263.81 633.28 265.25C633.39 266.68 632.94 266.46 632.94 267.46C632.94 268.45 632.39 268.89 632.17 269.67C631.95 270.44 631.4 270.66 631.4 271.21C631.4 271.76 631.62 272.54 631.62 272.98C631.62 273.42 630.07 275.3 630.07 275.3C630.07 275.3 627.75 267.12 627.53 264.47C627.31 261.82 625.54 261.82 628.86 256.19C632.17 250.55 635.93 245.04 635.93 245.04C635.93 245.04 637.14 245.14 636.81 246.58C636.48 248.01 636.26 248.67 636.48 249.23C636.7 249.78 637.81 250.11 636.7 250.89C635.6 251.66 635.27 251.88 635.93 252.43ZM659.86 531.27C658.91 530.46 658.83 529.94 658.91 529.35C658.98 528.76 659.02 527.73 659.02 527.73C659.02 527.73 661.34 526.07 662.55 527.18C663.77 528.28 664.43 528.83 665.02 529.57C665.61 530.31 667.01 531.49 667.16 531.93C667.3 532.37 667.38 532.52 665.46 532.22C663.55 531.93 660.82 532.08 659.86 531.27ZM711.57 593.06C711.79 592.98 708.47 594.6 706.78 595.63C705.09 596.67 700.44 596.37 699.41 596.37C698.38 596.37 692.05 592.91 690.13 593.06C688.22 593.21 687.63 593.28 687.63 593.28C687.63 593.28 690.43 588.71 698.16 590.41C705.89 592.1 711.34 593.13 711.57 593.06" id="lZbZBe3x7"></path></defs><g><g><use xlink:href="#lZbZBe3x7" opacity="1" fill="#000000" fill-opacity="1"></use></g></g></svg>