<?xml version="1.0" encoding="UTF-8" standalone="no"?>
<!DOCTYPE svg PUBLIC "-//W3C//DTD SVG 1.1//EN" "http://www.w3.org/Graphics/SVG/1.1/DTD/svg11.dtd">
<svg version="1.1" xmlns="http://www.w3.org/2000/svg" xmlns:xlink="http://www.w3.org/1999/xlink" preserveAspectRatio="xMidYMid meet" viewBox="265.6666599999999 596.1733584039999 1070.6666400000001 409.65332319200013" width="1066.67" height="405.65"><defs><path d="M1322.77 649.01L1281.39 649.01L1281.39 607.73L1322.77 607.73L1322.77 649.01ZM1322.77 700.85L1281.39 700.85L1281.39 659.57L1322.77 659.57L1322.77 700.85ZM1270.83 649.01L1237.01 649.01L1270.83 615.2L1270.83 649.01ZM1270.83 700.85L1229.55 700.85L1229.55 659.57L1270.83 659.57L1270.83 700.85ZM370.56 701.81L329.17 701.81L329.17 660.53L370.56 660.53L370.56 701.81ZM329.17 616.16L362.99 649.97L329.17 649.97L329.17 616.16ZM318.61 649.97L277.23 649.97L277.23 608.8L318.61 608.8L318.61 649.97ZM318.61 701.81L277.23 701.81L277.23 660.53L318.61 660.53L318.61 701.81ZM1333.33 602.51C1333.33 599.63 1330.99 597.17 1328.11 597.17C1322.91 597.17 1281.35 597.17 1276.16 597.17C1275.41 597.17 1274.77 597.39 1274.13 597.6C1273.49 597.92 1272.85 598.24 1272.43 598.77C1267.23 603.96 1225.67 645.43 1220.48 650.61C1220.05 651.04 1219.63 651.68 1219.31 652.32C1219.09 652.96 1218.99 653.6 1218.99 654.35C1218.99 657.51 1218.99 673.33 1218.99 701.81C1205.23 701.81 1197.58 701.81 1196.05 701.81C1193.17 701.81 1190.83 704.27 1190.83 707.15C1190.83 707.41 1190.83 709.55 1190.83 709.81C1190.83 850.93 1075.95 965.81 934.72 965.81C907.8 965.81 692.42 965.81 665.49 965.81C524.27 965.81 409.39 850.93 409.39 709.81C409.39 709.55 409.39 707.41 409.39 707.15C409.39 704.27 407.04 701.81 404.05 701.81C402.52 701.81 394.88 701.81 381.12 701.81C381.12 673.91 381.12 658.41 381.12 655.31C381.12 654.56 380.91 653.92 380.69 653.28C380.37 652.64 380.05 652 379.52 651.57C374.33 646.39 332.77 604.92 327.57 599.73C327.15 599.31 326.51 598.88 325.87 598.56C325.23 598.35 324.59 598.24 323.84 598.24C318.66 598.24 277.18 598.24 272 598.24C269.01 598.24 266.67 600.59 266.67 603.47C266.67 642.87 266.67 958.09 266.67 997.49C266.67 1000.48 269.01 1002.83 272 1002.83C377.61 1002.83 1222.5 1002.83 1328.11 1002.83C1330.99 1002.83 1333.33 1000.48 1333.33 997.49C1333.33 968.46 1333.33 736.18 1333.33 707.15C1333.33 706.93 1333.23 706.83 1333.23 706.61C1333.23 706.51 1333.33 706.29 1333.33 706.19C1333.33 699.27 1333.33 664.71 1333.33 602.51" id="a2Psrt5H7F"></path></defs><g><g><use xlink:href="#a2Psrt5H7F" opacity="1" fill="#000000" fill-opacity="1"></use></g></g></svg>