<?xml version="1.0" encoding="UTF-8" standalone="no"?>
<!DOCTYPE svg PUBLIC "-//W3C//DTD SVG 1.1//EN" "http://www.w3.org/Graphics/SVG/1.1/DTD/svg11.dtd">
<svg version="1.1" xmlns="http://www.w3.org/2000/svg" xmlns:xlink="http://www.w3.org/1999/xlink" preserveAspectRatio="xMidYMid meet" viewBox="247.01583581966477 169.89302064331815 239.23889737006348 335.6297375709551" width="235.24" height="331.63"><defs><path d="M476.01 456.22C476.01 456.22 478.29 452.08 479.22 454.28C480.14 456.47 480.31 459.08 480.31 459.08C480.31 459.08 477.11 459.51 476.69 458.75C476.27 457.99 476.15 456.72 476.01 456.22ZM474.83 461.62C474.83 461.62 479.55 460.18 479.47 461.7C479.39 463.22 477.95 465.66 477.61 465.66C477.28 465.66 474.41 462.71 474.83 461.62ZM471.46 462.21C472.39 462.63 474.83 465.75 474.83 465.75C474.83 465.75 471.29 467.44 470.36 465.49C470.58 464.84 470.53 461.78 471.46 462.21ZM477.53 452.25L475.59 454.28L475 450.23L477.53 452.25ZM464.96 461.62C464.96 461.62 467.49 460.27 468.25 460.77C469.01 461.28 469.43 464.4 469.1 464.74C468.76 465.07 465.72 465.33 464.96 461.62ZM463.7 454.36C463.7 454.36 467.83 457.23 468 457.82C468.17 458.41 464.46 459.25 463.7 457.74C462.94 456.22 463.7 455.04 463.7 454.36ZM438.14 459.42C419.85 464.05 409.68 466.62 407.65 467.14C407.65 467.14 409.17 462.21 403.48 459.29C403.06 459.21 399.72 458.5 399.3 458.41C399.3 458.41 395.89 455.25 394.62 454.36C393.36 453.48 393.36 451.58 390.57 449.17C387.79 446.77 384.37 442.47 384.37 442.47C384.37 442.47 381.97 439.56 379.95 440.32C379.95 440.32 378.81 439.81 378.81 437.91C378.81 436.02 376.91 418.81 376.02 410.08C375.14 401.35 377.67 395.91 377.92 394.01C378.17 392.12 377.92 388.07 376.78 386.93C376.78 386.93 383.36 379.34 380.07 373.01C376.78 366.69 372.35 362.01 368.81 360.11C368.81 360.11 353.38 344.93 353 344.67C352.62 344.42 342.24 329.62 337.31 330C337.31 330 334.91 326.83 331.87 327.47C331.87 327.47 329.72 328.23 329.72 324.43C329.72 320.64 326.43 306.47 326.68 304.44C326.94 302.42 332.25 287.24 333.14 285.21C334.02 283.19 334.08 274.46 334.08 274.46C334.08 274.46 335.82 267.25 340.12 269.9C344.43 272.56 360.67 281.04 363.45 281.92C366.24 282.81 374.1 284.58 375.87 284.58C377.64 284.58 396 287.74 397.77 287.74C399.54 287.74 402.71 287.99 403.09 290.02C403.47 292.04 403.85 295.84 405.37 298.5C406.89 301.15 403.1 309.25 403.1 309.25C403.1 309.25 400.95 311.78 397.15 310.77C393.36 309.75 388.68 313.93 388.68 313.93C388.68 313.93 387.16 314.82 386.78 315.07C386.4 315.32 377.8 324.3 377.8 324.3C377.8 324.3 374.63 328.61 380.32 330.38C380.32 330.38 380.7 331.64 384.37 328.23C388.04 324.81 393.48 319.24 393.48 319.24C393.53 319.1 393.94 317.99 393.99 317.85C393.99 317.85 399.68 316.84 403.73 322.41C403.73 322.41 408.54 328.61 409.04 330.76C409.55 332.91 445.84 406.16 445.84 406.16C445.84 406.16 446.82 407.17 446.82 408.31C446.82 409.45 446.82 409.83 446.82 409.83C447.14 410.64 449.63 417.12 449.95 417.92C449.95 417.92 450.13 419.19 450.76 419.95C451.4 420.71 449.49 421.47 450.82 422.48C450.82 422.51 450.82 422.68 450.82 422.99L450.93 424.63L438.14 459.42ZM379.31 465.62C379.26 465.49 378.86 464.48 378.81 464.36C378.81 464.36 380.32 464.86 382.22 466.13C384.12 467.39 397.02 469.92 397.02 469.92C397.02 469.92 385.01 473.34 385.01 472.96C385.01 472.58 380.45 467.09 379.31 465.62ZM338.87 494.76C339.54 494.51 342.33 496.28 342.33 496.28C340.05 499.74 335.67 498.14 335.67 498.14C335.5 495.77 338.2 495.01 338.87 494.76ZM333.56 483.29C333.56 483.29 339.28 480.67 340.14 483.46C340.47 484.56 335.24 486.07 335.24 486.07C334.91 485.52 333.89 483.85 333.56 483.29ZM329.68 493.24C329.68 493.24 332.21 492.15 333.14 492.48C334.06 492.82 333.56 497.21 333.56 497.21C332.78 496.41 330.69 497.21 329.68 493.24ZM332.55 486.5C333.56 487.34 331.87 489.45 331.79 489.79C331.7 490.12 329 489.95 329 489.95C327.99 487.85 331.28 485.23 331.28 485.23C331.53 485.48 331.53 485.65 332.55 486.5ZM350.59 182.78C350.59 182.78 347.22 179.4 346.88 179.4C346.55 179.4 346.38 175.94 346.38 175.94C346.38 175.94 349.41 175.35 349.92 178.22C350.43 181.09 350.46 181.87 350.59 182.78ZM359.7 190.03C358.1 189.78 357.6 188.43 357.6 188.43C357.6 188.43 359.45 188.34 359.45 187.08C359.45 185.81 361.31 190.28 359.7 190.03ZM474.45 446.77C474.45 446.77 473.44 444.24 473.44 442.97C473.44 441.71 473.44 442.09 472.55 440.32C471.67 438.55 471.29 440.82 469.77 440.7C468.25 440.57 469.01 439.56 469.39 438.67C469.77 437.79 468.63 436.9 468.63 436.9C467.71 434.88 460.32 418.68 459.4 416.66C459.4 416.66 459.14 416.15 458.64 414.89C458.13 413.62 460.28 412.74 460.28 412.74C459.95 412.08 457.32 406.82 456.99 406.16C456.99 406.16 455.98 405.53 453.96 405.15C451.93 404.77 450.92 401.35 450.92 401.35C448.66 396.62 430.54 358.77 428.27 354.04C428.27 354.04 413.6 323.8 411.7 320.51C409.8 317.22 410.18 301.91 410.18 301.91C410.26 302.02 410.87 302.92 410.94 303.03C413.73 304.05 415.12 301.75 415.12 301.75C415.12 301.75 415.62 301.75 417.65 301.75C419.67 301.75 419.67 298.04 421.06 297.4C422.45 296.77 423.21 294.38 423.21 292.86C423.21 291.34 423.09 290.62 423.09 290.62C423.23 290.46 424.34 289.21 424.48 289.05C424.48 289.05 429.54 287.13 426.63 283.21C423.72 279.29 420.18 283.58 420.18 283.58C420.07 283.68 419.52 284.18 418.53 285.09C416.25 286 414.99 286.5 414.74 286.61C414.74 286.61 413.6 285.09 413.09 284.07C412.59 283.06 407.4 280.53 405.38 280.02C403.35 279.52 398.8 278.63 398.8 278.63C392.22 275.22 380.96 272.56 380.96 272.56C380.96 272.56 372.1 271.04 368.43 268.13C364.76 265.22 351.1 256.62 351.1 256.62C350.66 256.35 347.12 254.23 346.67 253.96C346.67 253.96 346.42 252.7 345.15 251.18C343.89 249.66 341.87 249.91 341.87 249.91C341.87 249.91 340.98 248.52 340.09 247.51C339.21 246.5 337.44 246.24 337.44 246.24C337.44 246.24 337.69 245.61 335.03 242.96C332.38 240.3 330.98 240.81 329.72 238.15C328.45 235.49 330.35 236.38 331.11 236.5C331.87 236.63 334.53 239.54 334.53 239.54C340.22 241.44 341.49 236.5 341.49 236.5C341.49 236.5 343.76 236.25 344.39 235.87C345.03 235.49 344.52 232.83 345.53 233.47C346.55 234.1 348.44 233.47 348.57 232.45C348.7 231.44 350.09 230.18 350.09 230.18C351.35 230.68 353.88 229.8 353.88 228.53C353.88 227.27 354.9 220.06 354.9 219.3C354.9 218.54 355.91 218.03 357.05 217.53C358.19 217.02 360.21 211.2 360.21 211.2C361.35 211.07 362.99 206.52 362.99 206.52C362.99 206.52 363.88 204.62 363.63 203.36C363.37 202.09 361.98 199.18 361.98 198.3C361.98 197.41 364.26 196.78 364.26 194.12C364.26 191.46 363.25 191.34 363.25 191.34C363.25 191.34 363.5 187.29 361.73 184.25C360.24 181.7 355.72 175.94 354.92 174.92C355.92 176.22 356.79 179.82 356.79 179.82C356.48 179.71 353.95 178.8 353.63 178.69C353.63 178.69 354.14 179.32 355.78 180.33C357.43 181.34 358.69 185.52 358.19 186.66C357.68 187.8 353.5 186.4 353.5 185.14C353.5 183.87 352.62 179.57 350.97 177.29C349.33 175.02 346.04 174.76 346.04 174.76C341.11 167.68 330.73 172.49 330.73 172.49C330.73 172.49 332.88 172.23 334.53 172.11C336.17 171.98 338.7 173.5 338.7 173.5C338.7 173.5 337.06 174.26 335.29 173.88C333.51 173.5 329.59 173.37 327.06 173.63C324.53 173.88 318.46 179.82 318.46 179.82C318.46 179.82 314.03 185.77 313.52 189.69C313.02 193.62 313.65 199.56 313.65 201.33C313.65 203.1 312.39 210.19 311.88 213.98C311.37 217.78 308.34 221.07 308.34 221.07C308.34 220.06 304.41 217.9 303.65 217.53C302.89 217.15 299.85 217.52 299.85 217.52C296.18 215.88 290.86 218.03 289.6 217.4C288.33 216.76 280.6 213.6 280.6 213.6C280.6 213.6 279.94 212.45 279.68 211.31C279.43 210.17 276.84 205.6 274.81 203.7C272.79 201.81 270.51 197.47 269.75 194.69C269.75 194.69 270.76 190.83 269.12 187.92C267.47 185.01 264.39 183.37 260.85 182.99C257.31 182.61 256.25 182.74 256.25 182.74C256.25 182.77 256.25 183.08 256.25 183.11C256.25 183.11 254.59 181.09 252.94 182.23C251.3 183.37 250.4 185.64 250.28 186.15C250.15 186.66 248.82 187.42 248.82 188.68C248.82 189.95 248.47 191.46 248.97 193.87C249.48 196.27 247.6 198.93 248.1 199.69C248.61 200.45 250.26 200.45 251.78 200.45C253.3 200.45 254.82 201.08 257.1 202.09C259.37 203.1 261.15 200.45 261.15 201.58C261.15 202.72 261.72 202.79 261.72 202.79C265.13 214.05 269.85 220.53 270.1 222.68C270.35 224.83 272.71 226.11 273.21 226.62C273.72 227.13 274.08 227.77 275.59 229.03C277.11 230.3 282.54 233.08 283.68 234.35C284.82 235.61 284.31 236.37 284.31 236.37C280.26 245.61 280.51 277.87 280.38 282.68C280.25 287.49 277.34 286.6 277.34 286.6C277.34 286.6 275.7 287.36 274.81 289.13C273.93 290.9 277.72 300.9 278.23 304.31C278.73 307.73 279.37 307.98 278.48 310.77C277.59 313.55 273.17 334.68 273.17 334.68C273.91 334.84 279.89 336.16 280.63 336.32C280.63 336.32 281.26 342.4 282.53 345.31C283.79 348.22 289.11 358.72 289.11 358.72C289.11 358.72 288.85 359.86 289.74 361.12C290.63 362.39 300.75 364.16 300.75 364.16C300.75 364.16 300.24 363.14 302.52 363.9C304.8 364.66 323.65 378.45 323.65 378.45C323.65 378.45 329.09 382.37 329.85 384.53C330.6 386.68 333.77 386.3 335.03 388.83C336.3 391.36 343.76 393.38 345.03 393.51C346.29 393.63 348.19 397.3 348.19 399.07C348.19 400.85 349.33 402.87 346.93 405.15C344.52 407.42 347.43 409.07 347.43 409.07C347.43 409.07 347.43 409.07 347.05 415.02C346.67 420.96 350.09 433.99 350.09 433.99C349.33 436.65 351.61 439.05 352.49 441.96C353.38 444.87 352.37 442.85 352.24 445.25C352.11 447.66 353.88 446.9 353.76 448.54C353.63 450.19 352.62 451.33 353.12 454.11C353.63 456.89 356.03 459.55 356.03 459.55C356.03 459.55 354.77 462.46 353.5 463.22C352.24 463.98 352.75 466.38 351.61 467.27C350.47 468.15 350.09 469.29 350.09 469.29C350.09 469.29 350.09 469.29 347.94 472.71C345.79 476.12 349.83 476.75 349.83 476.75C350.28 476.98 352.52 478.12 356.54 480.17L346.29 482.57C345.08 482.73 344.4 482.81 344.27 482.83C337.31 477.01 330.68 479.75 326.98 485.82C322.42 493.29 328.66 502.65 336.17 502.52C345.8 502.36 347.94 493.2 347.94 493.2C350.35 492.59 369.69 487.74 372.1 487.13C372.1 487.13 380.83 489.91 383.36 491.56C385.89 493.2 394.87 493.83 399.3 492.95C403.73 492.06 402.21 488.77 401.2 486.88C400.19 484.98 393.86 482.83 393.86 482.83C393.84 482.78 393.71 482.57 393.48 482.19C423.39 474.76 440.01 470.62 443.33 469.8C447.38 469.16 449.4 464.99 450.41 462.21C451.43 459.42 451.68 456.13 451.68 456.13C452.31 454.55 457.37 441.9 458 440.32C458 440.32 459.02 439.81 460.03 441.08C461.04 442.34 460.28 442.6 461.67 443.61C463.07 444.62 461.8 444.37 459.78 445.63C457.75 446.9 460.28 447.53 460.66 448.67C461.04 449.81 460.92 450.57 460.92 450.57C454.59 457.65 461.42 472.96 472.81 470.68C484.19 468.4 483.18 459.8 483.18 459.8C484.19 450.95 474.45 446.77 474.45 446.77" id="g7eXScT55y"></path></defs><g><g><use xlink:href="#g7eXScT55y" opacity="1" fill="#000000" fill-opacity="1"></use></g></g></svg>