<?xml version="1.0" encoding="UTF-8" standalone="no"?>
<!DOCTYPE svg PUBLIC "-//W3C//DTD SVG 1.1//EN" "http://www.w3.org/Graphics/SVG/1.1/DTD/svg11.dtd">
<svg version="1.1" xmlns="http://www.w3.org/2000/svg" xmlns:xlink="http://www.w3.org/1999/xlink" preserveAspectRatio="xMidYMid meet" viewBox="1299.7999798363319 137.99560594559887 238.2973333512973 476.43548876591046" width="234.3" height="472.44"><defs><path d="M1527.25 222.82C1527.68 223.86 1528.95 225.14 1529.33 225.57C1529.69 226 1529.33 228.99 1529.33 228.99C1527.98 227.89 1523.84 222.27 1523.84 221.84C1523.84 221.42 1526.57 222.63 1527.25 222.82ZM1300.81 146.81C1300.99 147.73 1301.66 152.55 1301.85 152.85C1302.03 153.16 1303.19 153.34 1303.19 153.34C1303.19 153.34 1306.42 159.2 1306.73 159.39C1307.03 159.57 1309.42 159.88 1309.42 159.14C1309.42 158.41 1309.54 157.98 1309.54 157.98C1309.54 157.98 1309.29 159.33 1310.51 160.18C1311.74 161.04 1311.8 161.1 1313.51 161.89C1315.22 162.68 1315.95 162.32 1315.95 162.32C1316.57 162.65 1321.55 165.29 1322.18 165.62C1322.18 165.62 1320.89 172.94 1320.89 173.8C1320.89 174.65 1321.08 177.28 1323.58 177.89C1323.58 177.89 1326.02 185.76 1330.17 191.07C1330.17 191.07 1334.18 196.77 1334.3 197.38C1334.42 197.99 1336.18 199.14 1336.79 199.02C1337.39 198.9 1340.19 198.59 1341.54 199.26C1342.88 199.93 1346.24 206.1 1346.6 207.8C1346.97 209.51 1348.07 210.61 1348.07 210.61C1348.07 210.61 1349.34 211.83 1351 209.69C1352.64 207.56 1352.33 207.8 1352.7 207.8C1353.06 207.8 1353.49 208.29 1354.17 209.15C1354.84 210 1354.66 211.47 1356.67 210.73C1358.69 210 1359.66 208.6 1359.85 208.66C1360.03 208.72 1360.39 208.66 1360.51 209.45C1360.63 210.24 1361.67 214.34 1364.36 212.63C1367.04 210.92 1367.91 212.2 1368.51 212.87C1369.12 213.54 1370.35 215.31 1373.64 213.85C1376.95 212.38 1375.84 212.2 1376.45 212.08C1377.07 211.95 1377.43 213.6 1377.43 213.6C1377.43 213.6 1376.76 216.78 1381.16 218.18C1385.55 219.58 1384.02 222.52 1385.37 224.35C1386.71 226.18 1389.63 225.81 1389.82 228.19C1390.01 230.57 1390.19 230.7 1390.67 231.86C1391.17 233.02 1395.99 242.24 1395.99 242.24C1395.99 242.24 1399.4 246.08 1399.96 247.43C1400.51 248.77 1401.55 253.47 1406.43 255.48C1406.43 255.48 1407.84 255.85 1407.84 258.54C1407.84 261.22 1405.03 266.96 1405.03 267.94C1405.03 268.92 1403.32 271.85 1405.52 273.8C1407.7 275.75 1411.25 276.49 1412.1 277.83C1412.96 279.17 1412.48 279.42 1412.48 279.42C1412.48 279.42 1409.66 281.86 1408.57 282.35C1407.46 282.84 1396.11 285.28 1394.52 285.89C1392.94 286.5 1385.37 289.67 1382.56 290.16C1379.74 290.65 1370.23 294.19 1370.23 294.19C1370.23 294.19 1363.14 297.98 1362.29 301.03C1361.43 304.08 1359.85 308.11 1363.87 315.07C1367.91 322.03 1369.38 324.47 1373.16 327.16C1376.95 329.85 1379.14 330.58 1387.81 340.35C1387.81 340.35 1393.55 347.19 1393.91 348.16C1392.53 349.47 1381.5 359.92 1380.12 361.23C1380.12 361.23 1369.74 371.97 1368.64 373.93C1367.54 375.88 1362.41 382.96 1362.54 384.18C1362.66 385.41 1360.46 387.97 1365.59 397.49C1370.71 407.02 1374.99 418.74 1374.99 418.74C1375.67 420.86 1381.15 437.86 1381.84 439.99C1381.84 439.99 1385.74 454.88 1385.74 456.96C1385.74 459.04 1384.42 461.48 1385.15 463.8C1385.89 466.12 1387.74 470.39 1387.62 471.25C1387.5 472.1 1387.06 473.81 1387.06 475.03C1387.06 476.25 1387.85 478.94 1387.85 478.94C1387.85 478.94 1386.06 478.69 1386.06 479.91C1386.06 480.83 1386.06 480.99 1386.06 481.01C1386.06 481.01 1385.95 483.33 1386.69 485.17C1387.42 487 1386.95 488.46 1386.95 488.46C1386.95 488.46 1386.13 485.35 1383.29 485.35C1380.6 485.35 1375.84 486.63 1375.84 490.17C1375.84 490.17 1376.29 495.79 1378.25 496.46C1380.21 497.13 1382.33 497.19 1382.33 497.19C1382.56 497.96 1384.38 504.12 1384.61 504.88C1384.61 504.88 1383.58 506.59 1383.58 507.14C1383.58 507.69 1382.13 508.18 1382.13 508.18C1382.13 508.18 1380.66 509.53 1380.9 509.95C1381.14 510.38 1380.9 510.38 1380.9 510.38C1380.73 510.59 1379.37 512.23 1379.2 512.44C1379.2 512.44 1377.73 511.97 1377.43 513.68C1377.12 515.39 1375.17 515.69 1375.17 515.69C1375.17 515.69 1374.07 515.94 1374.07 517.34C1374.07 517.34 1372.17 519.72 1371.87 520.33C1371.56 520.94 1368.58 523.26 1368.58 523.26C1368.58 523.26 1365.52 525.77 1364.91 526.07C1364.3 526.38 1359.9 529.31 1359.9 529.31C1359.9 529.31 1356.06 531.69 1355.64 531.99C1355.21 532.3 1352.7 533.46 1352.04 536.39C1351.36 539.32 1351.85 540.91 1351.9 541.15C1351.97 541.39 1352.76 543.1 1355.21 543.29C1357.65 543.47 1365.4 543.17 1368.7 542.86C1372 542.56 1381.82 539.87 1381.82 539.87C1382.33 539.67 1386.38 538.11 1386.89 537.91C1386.89 537.91 1386.77 544.57 1385.91 548.72C1385.06 552.87 1383.05 559.96 1383.6 563.13C1384.14 566.3 1385.25 570.33 1385.25 570.33C1385.22 570.38 1384.97 570.77 1384.94 570.82C1384.94 570.82 1383.53 571.62 1382.98 571.43C1382.44 571.25 1381.28 570.46 1380.66 570.64C1380.05 570.82 1380.05 570.82 1380.05 570.82C1380.05 570.82 1379.44 569.3 1379.14 568.99C1378.84 568.69 1378.96 568.08 1378.96 568.08C1378.96 568.08 1380.52 566.76 1380.9 565.91C1381.2 565.3 1381.46 562.82 1379.69 560.44C1377.92 558.06 1376.39 558.25 1376.39 558.25C1376.39 558.25 1372.79 557.51 1369.98 560.2C1369.98 560.2 1367.72 562.12 1368.72 564.53C1368.72 564.53 1369.55 567.71 1370.14 568.17C1370.71 568.62 1371.63 569.54 1374.53 569.6C1374.53 569.6 1374.84 569.57 1375.48 570.79C1376.12 572.01 1381.28 585.69 1381.28 585.69C1381.46 586.09 1382.92 589.32 1383.1 589.72C1383.1 589.72 1383.44 590.24 1382.74 591.15C1382.04 592.07 1380.3 593.62 1381.12 595.49C1381.23 595.79 1382.14 598.23 1382.25 598.54C1382.25 598.54 1382.86 600.62 1384.9 600.83C1386.95 601.04 1390.13 600.01 1391.69 598.85C1393.24 597.69 1394.22 596.16 1393.51 594.11C1392.82 592.07 1391.75 590.3 1391.75 590.3C1391.75 590.3 1390.34 588.96 1389.46 589.02C1388.57 589.08 1387.17 589.44 1387.17 588.59C1387.17 587.73 1387.14 582.45 1387.14 582.45C1387.14 582.45 1387.01 581.48 1388.66 582.27C1390.31 583.06 1391.66 584.62 1391.97 586.06C1392.26 587.49 1395.66 595.73 1395.66 595.73C1395.91 596.31 1397.19 599.18 1399.49 604.34C1400.73 607.38 1401.41 609.07 1401.55 609.41C1401.55 609.41 1402.31 612.89 1404.23 610.72C1404.23 610.72 1404.72 609.62 1403.01 607.09C1401.29 604.55 1402.24 599.94 1402.24 599.94C1402.24 599.94 1404.2 593.75 1406.4 575.61C1408.6 557.48 1409.42 548.32 1409.42 548.32C1409.59 546.96 1410.41 540.12 1411.89 527.81C1416.4 526.05 1418.9 525.07 1419.41 524.88C1419.41 524.88 1426.72 522.86 1425.63 518.47C1424.54 514.07 1424.54 513.51 1424.54 513.51C1424.54 513.51 1423.62 510.12 1423.52 508.38C1423.43 506.64 1423.98 505.79 1422.6 504.05C1421.23 502.31 1419.86 502.27 1419.86 501.08C1419.86 499.89 1418.77 498.44 1418.77 498.44C1418.71 498.44 1418.26 498.44 1418.21 498.44C1418.21 498.44 1421.51 483.59 1416.57 471.96C1416.3 471.4 1414.17 466.92 1413.9 466.36C1413.9 466.36 1414.63 464.94 1412.44 462.1C1412.44 462.1 1412.08 461.3 1412.26 459.65C1412.44 458 1412.08 457.24 1411.53 455.41C1410.98 453.57 1410.7 451.08 1410.61 449.53C1410.52 447.97 1410.25 444.76 1410.25 444.76C1410.25 444.76 1410.25 439.26 1410.06 437.7C1409.88 436.14 1411.8 428.82 1405.57 414.62C1405.51 414.41 1405 412.72 1404.93 412.51C1404.93 412.51 1405.03 411.14 1404.48 411.05C1403.92 410.96 1403.92 410.96 1403.92 410.96C1403.75 410.43 1402.36 406.18 1402.19 405.64C1402.19 405.64 1402.73 403.9 1401.64 403.54C1400.53 403.17 1400.08 402.07 1399.89 400.42C1399.71 398.78 1398.98 400.06 1398.88 398.68C1398.8 397.31 1399.61 396.12 1398.52 396.03C1397.43 395.94 1398.07 396.76 1397.7 395.48C1397.34 394.2 1397.88 392.82 1399.26 391.91C1400.63 390.99 1401.45 390.17 1401.45 390.17C1401.45 390.17 1402.83 391.82 1403.01 389.16C1403.38 388.95 1406.31 387.26 1406.68 387.05C1406.68 387.05 1409.14 386.5 1409.33 385.31C1409.52 384.12 1416.19 379.91 1416.57 380C1416.93 380.09 1417.66 380.92 1417.57 381.28C1417.47 381.65 1418.94 387.05 1419.31 387.51C1419.67 387.97 1421.04 390.53 1421.04 390.53C1421.29 390.97 1423.28 394.49 1423.52 394.93C1423.52 394.93 1420.87 395.75 1420.97 396.94C1421.04 398.13 1421.23 398.04 1421.04 399.87C1420.87 401.71 1418.85 403.72 1419.77 404.09C1420.69 404.45 1419.86 404.91 1420.69 405.46C1421.51 406.01 1422.88 406.1 1422.88 406.1C1422.88 406.1 1423.24 407.75 1423.07 410.68C1422.88 413.61 1423.43 412.97 1423.15 415.17C1422.88 417.37 1421.78 417.73 1422.24 419.2C1422.7 420.66 1423.8 424.51 1423.8 424.51C1423.64 425.36 1422.32 432.18 1422.15 433.03C1422.15 433.03 1419.77 439.81 1419.58 441.18C1419.41 442.55 1417.02 446.68 1418.13 448.7C1419.22 450.71 1422.51 453.83 1422.51 453.83C1422.51 453.83 1425.82 456.23 1428.65 453.67C1431.49 451.1 1441.01 438.78 1445.05 429.99C1449.07 421.2 1455.67 407.35 1458.32 404.33C1460.97 401.31 1470.05 387.61 1467.12 385.51C1464.18 383.4 1463.27 382.5 1462.81 382.5C1462.36 382.5 1460.71 382.5 1460.71 382.5C1460.71 382.5 1457.49 380.74 1456.03 379.65C1454.56 378.55 1455.76 378.12 1453.38 377.39C1450.99 376.65 1450.18 376.91 1450.18 376.91C1450.14 376.97 1449.84 377.43 1449.8 377.49C1449.8 377.49 1449.45 377.15 1447.61 376.14C1445.78 375.13 1444.31 374.59 1444.41 374.13C1444.5 373.67 1445.14 373.31 1444.22 372.95C1443.3 372.58 1443.3 372.58 1443.3 372.58C1443.3 372.58 1443.77 370.66 1442.3 369.93C1440.84 369.19 1441.38 369.19 1441.38 369.19C1441.38 369.19 1441.74 367 1440.74 367.09C1439.73 367.18 1439.28 366.36 1439.28 366.36C1439.28 366.36 1438.82 365.44 1440.74 363.52C1442.66 361.59 1447.89 358.21 1447.89 358.21C1447.89 358.21 1449.99 357.66 1450.35 356.01C1450.72 354.36 1469.13 346.67 1469.13 346.67C1469.13 346.67 1471.42 346.85 1473.79 345.66C1476.18 344.47 1478.19 343 1478.19 343C1478.19 343 1486.8 336.04 1488.36 332.56C1489.92 329.08 1492.39 325.15 1492.39 325.15C1492.39 325.15 1495.05 317.09 1495.32 315.8C1495.6 314.52 1498.72 305.18 1498.72 305.18C1498.72 305.18 1498.98 300.97 1498.34 298.95C1497.7 296.94 1497.52 290.8 1497.52 290.8C1497.52 290.8 1498.34 273.22 1495.5 265.99C1492.67 258.75 1489 250.42 1489 250.42C1489 250.42 1484.7 243.73 1483.87 242.36C1483.06 240.98 1477.74 235.12 1476.82 234.02C1475.91 232.93 1473.34 228.07 1473.34 228.07C1473.34 228.07 1476.91 228.44 1478.29 227.61C1479.66 226.79 1481.67 226.52 1481.67 226.52C1481.67 226.52 1484.6 230.27 1490.92 229.45C1490.92 229.45 1492.21 229.72 1492.69 229.9C1493.18 230.09 1494.84 230.39 1496.36 229.9C1497.89 229.42 1500.63 227.64 1501.55 227.64C1502.46 227.64 1503.45 227.28 1504.78 226.55C1506.13 225.81 1509.67 231.37 1510.1 232.16C1510.52 232.96 1512.23 235.09 1512.48 235.34C1512.72 235.58 1518.21 239.98 1520.29 242.24C1522.37 244.49 1523.84 242.78 1523.84 242.78C1524.93 244.19 1526.34 244.19 1527.32 243.27C1528.29 242.36 1525.97 239.61 1525.97 239.61C1525.97 239.61 1522.12 233.2 1521.33 232.28C1520.53 231.37 1520.6 229.96 1520.11 229.42C1519.63 228.87 1517.79 224.47 1517.55 224.16C1517.29 223.86 1518.03 223.86 1518.28 223.8C1518.52 223.74 1520.41 226.3 1521.03 227.09C1521.64 227.89 1525.24 231.49 1525.85 231.55C1526.46 231.61 1528.9 234.97 1530.61 236.8C1532.31 238.63 1532.81 238.94 1534.39 238.57C1535.98 238.21 1534.39 236.31 1534.39 236.31C1534.39 236.31 1532.57 233.63 1532.26 232.89C1531.95 232.16 1532.57 228.99 1532.75 227.46C1532.93 225.94 1532.38 224.65 1532.38 224.65C1532.38 224.65 1531.95 224.35 1530.98 221.29C1529.99 218.24 1527.32 218 1526.7 217.63C1526.09 217.27 1518.83 214.15 1518.64 214.15C1518.47 214.15 1512.18 212.87 1512.18 212.87C1511.73 212.64 1508.16 210.78 1507.71 210.55C1507.71 210.55 1507.83 207.5 1506.37 205.05C1504.91 202.61 1504.91 203.1 1504.18 200.78C1503.45 198.46 1502.83 197.61 1500.63 195.16C1498.44 192.72 1499.41 191.75 1496.48 191.01C1493.54 190.28 1486.71 190.89 1482.8 188.82C1478.9 186.74 1479.26 185.52 1477.55 185.03C1475.85 184.54 1475.97 184.54 1472.55 183.69C1469.13 182.83 1456.07 178.44 1448.13 179.05C1440.2 179.66 1438.6 180.39 1434.33 178.56C1430.05 176.73 1424.92 174.65 1423.34 174.65C1421.75 174.65 1418.7 171.96 1418.7 171.96C1418.7 171.96 1411.13 168.42 1409.54 167.93C1407.96 167.45 1406.73 167.81 1405.39 167.45C1404.05 167.08 1403.68 164.52 1400.63 163.3C1397.58 162.07 1394.15 162.2 1393.67 162.32C1393.18 162.44 1393.18 162.44 1393.18 162.44C1393.18 162.44 1393.3 159.51 1389.03 159.39C1384.76 159.26 1382.06 157.92 1379.38 159.51C1376.69 161.1 1375.6 162.68 1375.6 162.68C1375.6 162.68 1371.56 160.24 1370.96 158.29C1370.35 156.33 1370.83 154.87 1369.62 154.63C1368.39 154.38 1367.42 154.5 1367.42 154.5C1367.42 154.5 1365.1 150.6 1363.87 148.64C1362.66 146.69 1362.29 144.49 1359.97 143.51C1357.65 142.54 1353.86 141.93 1352.04 142.05C1350.2 142.17 1347.88 140.83 1346.05 140.46C1344.21 140.1 1342.87 139.12 1340.19 141.07C1337.5 143.03 1336.4 144.37 1334.82 145.22C1333.23 146.08 1333.47 147.05 1331.76 147.54C1330.05 148.03 1327.98 148.52 1327.98 148.52C1327.98 148.52 1326.94 146.93 1326.27 146.32C1325.59 145.71 1325.05 144.06 1324.25 143.7C1323.46 143.33 1323.34 142.35 1322.79 141.99C1322.24 141.62 1321.38 140.16 1320.28 140.16C1319.18 140.16 1319.06 140.03 1318.45 140.16C1317.84 140.28 1316.31 139.24 1315.7 139.54C1315.09 139.85 1313.69 140.22 1312.59 140.16C1311.49 140.1 1307.83 139 1306.48 139C1305.14 139 1305.26 139 1304.59 139.73C1303.92 140.46 1300.62 145.9 1300.81 146.81" id="a2ybP23Zmj"></path></defs><g><g><use xlink:href="#a2ybP23Zmj" opacity="1" fill="#000000" fill-opacity="1"></use></g></g></svg>