<?xml version="1.0" encoding="UTF-8" standalone="no"?>
<!DOCTYPE svg PUBLIC "-//W3C//DTD SVG 1.1//EN" "http://www.w3.org/Graphics/SVG/1.1/DTD/svg11.dtd">
<svg version="1.1" xmlns="http://www.w3.org/2000/svg" xmlns:xlink="http://www.w3.org/1999/xlink" preserveAspectRatio="xMidYMid meet" viewBox="375.6616920665163 581.717546759407 51.13931695114951 133.86869651301208" width="47.14" height="129.87"><defs><path d="M422.11 641.89C421.94 637.79 419.64 632.63 417.9 632.07C418.81 629.03 417.45 623.87 414.92 621.62C413.75 620.39 413.41 618.6 413.46 617.92C413.52 617.24 415.37 611.17 414.58 609.94C415.54 608.6 416.72 605.91 415.55 602.31C414.37 598.71 412.41 593.72 412.35 591.48C412.45 590.86 412.02 590.05 412.18 588.84C412.35 587.55 412.23 586.37 412.06 585.8C411.89 585.24 411.27 583.05 410.04 583.05C409.2 582.38 408.25 582.88 408.14 583.16C407.63 582.83 407.17 583.16 407.17 583.16C405.94 582.66 404.31 584.12 405.83 585.52C405.43 587.09 406.12 589.23 407.12 590.24C408.14 591.25 409.2 593.49 409.43 595.85C409.65 598.21 409.98 601.64 410.66 602.81C411.34 604 411.56 605.73 410.66 606.75C410.04 606.75 409.03 607.59 407.96 609.89C406.05 610.96 403.47 613.87 403.47 613.87C402.74 614.22 402.01 615.67 401.62 615.56C401.23 615.45 401.35 616.18 401.73 616.35C401 616.18 398.65 614.49 398.37 613.65C398.47 612.92 398.14 612.41 397.47 612.64C397.24 610.34 395.33 606.8 389.49 607.08C388.88 607.03 388.21 607.25 388.09 607.59C386.07 608.32 383.49 610.11 384.16 615.67C383.6 616.46 381.19 618.71 381.53 619.32C381.86 619.94 383.71 620.11 386.29 618.76C387.25 619.04 387.81 619.1 387.81 619.6C387.81 620.11 388.48 622.36 388.98 622.36C389.49 622.36 390.11 621.96 390.33 622.3C390.56 622.63 391.51 622.63 391.51 622.63C391.59 622.69 392.17 623.14 392.24 623.2C389.44 623.2 386.07 622.29 384.56 621.4C383.04 620.5 381.58 619.61 380.9 619.16C380.23 618.7 378.99 617.19 378.6 616.18C378.21 615.16 377.2 615.72 377.25 616.86C377.32 617.98 378.21 618.7 378.99 619.77C378.89 620.33 379.45 621.34 379.45 621.34C379.22 621.74 379.61 622.41 379.61 622.41C378.83 622.75 376.86 623.7 376.8 624.09C376.75 624.49 377.32 624.77 377.32 624.77C376.53 625.05 376.41 626.11 377.2 626.34C377.99 626.56 379.78 626.9 382.81 625.22C385.22 625.89 392.53 629.09 394.94 629.77C397.35 630.44 398.47 629.77 398.47 629.77C398.63 629.86 399.89 630.57 400.05 630.66C400.05 630.66 400.89 632.57 400.95 633.3C401 634.03 402.41 634.36 402.41 634.36C403.03 635.49 403.76 637.34 403.7 638.02C403.64 638.7 404.65 640.38 404.65 640.38C403.81 642.68 402.52 648.57 402.63 651.38C401.62 651.54 400.44 652.06 400.27 652.34C400.1 652.62 399.26 652.22 397.3 653.85C395.34 655.48 393.6 654.47 392.75 655.87C392.58 656.37 391.18 658.06 389.72 658.34C388.26 658.62 388.03 659.63 388.03 659.63C387.19 660.02 385.45 663.22 385.45 664.23C385.45 665.25 385.68 665.81 385.68 665.81C384.83 667.27 387.59 671.93 389.55 673.16C390 673.5 390.96 675.18 391.46 676.87C391.97 678.55 393.19 679.73 394.2 681.36C395.22 682.99 395.84 684.61 395.84 684.61C395.86 685.14 395.99 689.32 396.01 689.84C394.32 690.57 393.31 691.63 393.82 693.04C393.54 693.6 394.21 694.27 395.17 694.33C394.55 695.45 392.25 696.75 392.81 697.92C391.79 698.59 390.51 699.44 390.79 700.62C390.34 701.29 391.07 702.8 391.07 702.8C390.39 703.7 389.33 704.32 387.64 704.6C385.95 704.88 384.44 707.02 386.41 708.25C385.78 709.09 386.14 710.77 390.5 711.17C394.2 711.51 397.58 711.12 398.14 710.89C398.03 712.52 400.44 713.36 401.45 711.62C402.46 709.88 400.62 708.81 400.05 709.15C400.05 709.15 400.67 708.58 402.91 708.3C405.16 708.02 405.83 707.86 405.1 704.15C406.4 702.47 410.61 699.04 411.45 698.54C412.01 699.49 413.19 700.84 414.03 700.55C414.87 700.28 416.44 697.53 413.8 696.69C417.06 695.1 418.99 689.48 415.66 688.15C413.13 687.14 409.87 688.55 409.87 688.55C409.87 688.55 409.48 687.93 409.71 687.42C409.93 686.91 409.71 685.74 408.86 685.51C408.86 685.51 409.2 685.12 408.92 684.89C408.64 684.67 407.34 683.94 407.4 683.04C407.46 682.15 407.06 681.02 406.5 680.57C405.95 680.13 406.56 678.56 406.56 677.93C406.56 677.31 405.67 677.04 411.05 671.19C416.44 665.36 417.01 663 417.01 663C418.18 662.89 420.31 660.42 421.21 658.85C422.67 659.23 423.13 658.79 423.24 658.39C423.34 658 423.06 656.15 423.69 653.46C424.3 650.76 422.28 645.99 422.11 641.89" id="gt9tcdZoZ"></path></defs><g><g><use xlink:href="#gt9tcdZoZ" opacity="1" fill="#000000" fill-opacity="1"></use></g></g></svg>