<?xml version="1.0" encoding="UTF-8" standalone="no"?>
<!DOCTYPE svg PUBLIC "-//W3C//DTD SVG 1.1//EN" "http://www.w3.org/Graphics/SVG/1.1/DTD/svg11.dtd">
<svg version="1.1" xmlns="http://www.w3.org/2000/svg" xmlns:xlink="http://www.w3.org/1999/xlink" preserveAspectRatio="xMidYMid meet" viewBox="687.8310268648682 73.94554208856114 303.76895332643915 383.282277462751" width="299.77" height="379.28"><defs><path d="M785.81 166.39C785.81 166.39 790.97 166.62 789.95 166.62C789.42 166.62 787.56 167.15 787.56 167.15C787.21 167 785.98 166.47 785.81 166.39ZM791.06 170.42C790.04 171.54 789.48 172.16 789.37 172.29C789.37 172.29 787.44 170.53 781.78 174.91C781.78 174.91 785.34 170.13 789.89 169.37C790.05 169.51 790.44 169.86 791.06 170.42ZM792.57 169.25L791.64 169.83L791.12 169.13L792.57 169.25ZM840.02 179.75C840.02 179.75 841.36 182.03 841.36 182.2C841.36 182.38 840.83 183.78 840.83 183.78C840.67 182.97 840.18 180.56 840.02 179.75ZM839.55 187.69C839.55 187.69 839.26 184.25 839.14 183.61C839.02 182.96 840.19 185.59 840.19 185.59C840.19 185.59 839.61 187.48 839.55 187.69ZM860.61 199.01C860.61 199.01 858.98 200.29 858.51 200.18C858.05 200.06 856.35 200.35 855.95 200.99C855.54 201.64 853.85 202.22 853.49 201.87C853.14 201.52 851.1 201.64 849.88 202.69C849.88 202.69 848.13 202.51 847.66 202.98C847.66 202.98 845.27 202.92 844.97 204.15C844.68 205.37 844.97 205.78 843.92 206.19C843.92 206.19 843.05 206.65 842.35 207.47C841.65 208.29 841.07 208.87 840.6 208.81C840.13 208.76 840.42 208.46 839.26 208.46C838.09 208.46 837.62 208.7 837.27 208.11C836.92 207.53 836.22 205.95 836.81 204.61C837.39 203.27 839.49 201.4 839.84 200.59C840.19 199.77 841.53 199.59 840.48 195.04C840.48 195.04 839.84 190.96 839.61 190.43C839.37 189.91 840.02 189.97 840.25 189.32C840.48 188.68 840.83 188.27 840.83 188.27C840.83 188.27 841.36 186.81 841.3 186.29C841.24 185.76 842.12 183.37 841.65 182.96C841.32 182.68 842.24 183.42 842.75 184.18C842.61 183.21 842.42 181.81 842.14 181.07C841.8 180.66 841.59 180.39 841.88 180.63C841.98 180.71 842.06 180.86 842.14 181.07C842.61 181.63 843.34 182.44 843.34 182.44C843.34 182.44 841.07 176.31 838.56 174.62C838.7 174.7 839.82 175.35 839.96 175.44C839.96 175.44 830.97 162.89 824.38 162.01C824.38 162.01 820.58 159.62 819.3 159.21C818.02 158.81 811.13 155.3 803.66 161.08C803.49 161.23 802.61 161.94 801.04 163.24L798.53 161.84C799.16 162.61 799.51 163.04 799.58 163.12C799.58 163.12 795.49 162.25 795.08 162.36C794.68 162.48 796.25 163.24 796.25 163.24C796.25 163.24 793.39 165.17 793.22 165.69C793.04 166.22 793.04 166.22 793.04 166.22C793.04 166.22 788.78 164.52 787.26 164.93C785.75 165.34 784.17 165.87 784.17 165.87C784.17 165.87 774.84 164.99 774.14 166.27C774.14 166.27 776.59 164.7 782.25 166.33C782.25 166.33 781.6 166.74 780.84 167.28C781.69 166.83 782.7 166.57 783.82 166.86C784.03 166.92 785.66 167.44 785.86 167.5C785.86 167.5 780.67 167.73 776.82 178.7C776.82 178.7 773.2 189.5 778.04 193.58C778.04 193.58 779.15 194.4 780.2 194.58C780.2 194.58 775.94 192.88 777.11 187.75C778.28 182.61 781.95 180.45 783.18 180.63C783.18 180.63 780.85 185.01 780.61 187.98C780.38 190.96 779.8 197.67 781.84 200.24C783.88 202.8 786.04 204.15 786.8 204.15C786.77 204.06 786.53 203.41 786.51 203.33C786.51 203.33 790.36 205.49 791.52 205.37C791.52 205.37 787.5 204.32 787.38 201.17C787.26 198.02 787.44 197.32 787.44 197.32C787.44 197.32 789.07 198.08 789.95 198.25C789.95 198.25 787.97 196.97 787.97 195.74C787.97 194.52 788.08 193.47 788.08 193.47C788.08 193.47 789.89 196.09 790.59 196.39C790.62 196.33 790.85 195.86 790.88 195.8C790.88 195.8 792.11 198.54 792.46 199.54C792.81 200.53 793.45 202.05 794.62 204.15C795.78 206.25 795.26 207.71 796.54 210.33C797.83 212.96 801.39 219.32 801.79 220.25C802.2 221.18 806.11 225.79 808.33 227.43C810.55 229.06 812.3 229.76 812.3 229.76C812.3 229.76 809.96 232.21 806.17 237.46C802.38 242.72 796.95 249.49 798.12 256.78C799.29 264.07 798.18 265.53 799.17 266.93C800.16 268.33 803.43 271.78 803.54 272.77C803.66 273.76 802.84 283.97 805.18 286.31C805.18 286.31 805.94 287.71 808.97 285.9C808.97 285.9 812.65 295.53 812.01 300.14C811.36 304.75 810.61 313.26 812.88 319.57C812.88 319.57 815.22 325.29 814.75 328.14C813.81 329.14 809.12 334.1 800.69 343.03C767.32 333.78 748.78 328.65 745.08 327.62C745.08 327.62 744.08 328.14 742.57 323.48C741.05 318.81 726.23 277.44 726.23 277.14C726.23 276.85 726.46 275.28 725.88 274.17C725.29 273.06 726.99 271.6 726.87 271.13C726.75 270.67 726.75 270.67 726.75 270.67C726.75 270.67 728.97 270.14 727.8 268.04C727.8 268.04 727.51 267.52 727.8 266.88C728.15 266.14 729.88 262.49 733 255.9L732.65 254.68C759.43 196.66 774.31 164.43 777.29 157.99C777.29 157.99 781.02 151.63 786.27 147.84C791.52 144.04 794.17 142.15 798.64 140.48C799.2 140.3 803.69 138.8 804.25 138.62C804.25 138.62 810.55 137.27 811.07 136.46C811.6 135.64 814.01 136.38 814.01 136.38C814.01 136.38 823.03 139.55 827.7 143.52C827.7 143.52 827.35 144.8 828.29 145.44C829.22 146.08 829.22 146.08 829.22 146.08C829.22 146.08 827.35 149.18 829.16 151.04C830.97 152.91 832.9 153.67 833.25 153.85C833.6 154.02 834.94 154.37 835.58 153.32C836.22 152.27 836.34 151.22 836.34 151.22C836.34 151.22 837.45 150.81 837.68 152.45C837.91 154.08 839.08 155.54 840.6 155.13C841.11 154.99 841.36 154.87 841.49 154.77C841.48 154.69 841.47 154.63 841.47 154.6C841.47 154.49 841.74 154.58 841.49 154.77C841.55 155.29 841.84 156.76 842.7 157.11C843.69 157.52 844.63 158.28 845.73 156.94C846.84 155.6 846.43 156.47 846.78 156.94C847.13 157.4 848.13 158.11 849.06 157.87C849.99 157.64 850.81 158.16 850.81 158.16C850.81 158.16 852.09 158.51 853.44 161.37C854.78 164.23 864.35 185.65 866.62 187.92C868.9 190.2 867.5 190.84 867.5 190.84C867.5 190.84 863.94 192.77 860.61 199.01ZM807.63 161.14C807.63 161.14 812.94 157.7 816.27 160.56C816.27 160.56 815.73 162.37 815.45 161.9C814.34 160.03 809.19 161.29 807.63 161.14ZM769.37 115.55C769.37 115.55 776.61 123.79 778.01 124.88C779.41 125.97 779.56 126.44 779.09 126.98C778.63 127.53 773.26 141.46 773.26 141.46C773.26 141.46 772.33 142.7 771.94 140.83C771.94 140.83 773.18 127.37 769.21 118.58C765.25 109.79 769.34 116.15 769.37 115.55ZM790.07 133.52C790.07 133.52 790.45 132.59 791.86 132.74C791.86 132.74 802.59 134.92 803.29 134.92C803.99 134.92 804.46 135.08 804.46 135.08C804.46 135.08 807.41 135.49 805.85 136.19C804.29 136.89 794.19 137.8 783.61 147.6C783.61 147.6 781.82 148.61 782.6 146.75C784.09 144.1 789.32 134.84 790.07 133.52ZM864.64 369.92C864.64 369.92 866.86 371.05 867.17 371.75C867.42 372.31 868.57 375.22 868.18 375.92C867.79 376.62 867.4 377.04 865.34 376.54C863.28 376.03 861.53 374.71 859.78 371.52C859.78 371.52 859.35 370.97 860.87 370.66C862.38 370.35 863.89 370.07 864.64 369.92ZM869.66 357.71C869.66 357.71 870.16 357.75 869.81 358.53C869.46 359.3 867.91 361.8 867.91 361.8C867.91 361.8 867.75 362.57 866.08 362.18C864.41 361.8 862.42 361.17 862.42 361.17C862.42 361.17 861.88 360.9 862.15 360.55C863.65 359.98 865.07 356.7 869.66 357.71ZM873.74 360.55C874.72 361.48 875.18 363.51 875.34 364.6C875.49 365.69 874.87 365.41 874.87 365.41C874.87 365.41 872.42 364.75 871.91 364.4C871.41 364.05 871.41 363.78 871.41 363.27C871.41 362.77 872.58 359.97 872.58 359.97C872.58 359.97 872.77 359.62 873.74 360.55ZM869.74 374.59C869.27 372.88 869.04 371.17 869.54 371.21C869.54 371.21 872.24 371.9 872.81 372.06C873.63 372.3 874.68 372.38 874.75 372.8C874.83 373.23 874.99 373.62 873.51 374.4C872.03 375.18 870.2 376.3 869.74 374.59ZM707.1 313.25C707.13 313.16 707.26 312.75 707.26 311.28C707.26 311.28 708.61 307.08 706.45 305.74C706.45 305.74 702.99 303.84 701.6 304.75C699.91 305.85 699.56 306.2 698.39 307.95C697.36 309.5 696 312.16 696 312.16C696 312.16 696.58 310.11 697.81 307.25C699.04 304.39 699.44 303.52 699.44 303.52C699.44 303.52 699.68 302.35 701.66 302.41C703.65 302.47 706.21 302.7 709.25 304.86C709.25 304.86 710.41 305.5 709.77 307.14C709.15 308.73 707.19 313.04 707.1 313.25ZM987.53 367.55C986.52 366.23 983.8 364.36 981.46 363.35C979.13 362.34 975.63 364.13 975.63 364.13C975.06 364.02 970.52 363.15 969.95 363.04C969.95 363.04 971.5 362.49 971.97 361.41C972.44 360.32 967.38 363.04 966.21 361.17C965.05 359.3 962.09 358.84 962.09 358.84C962.09 358.84 964.66 354.79 964.97 353.08C965.28 351.37 967.3 347.95 969.01 346.47C970.72 344.99 969.56 342.81 969.56 342.81C969.33 343 967.53 344.56 967.3 344.75C967.3 344.75 967.3 343.98 966.21 342.27C965.12 340.55 962.79 346.93 962.79 346.93C962.79 346.93 962.79 346.23 962.48 345.69C962.17 345.14 959.91 350.2 959.91 350.2C959.91 350.2 951.51 338.38 950.26 336.82C949.02 335.26 939.06 317.45 938.12 315.35C937.19 313.25 935.87 310.91 935.25 310.13C934.62 309.36 923.58 299.24 923.27 298.7C922.95 298.15 916.65 290.68 916.65 290.68C914.63 287.49 913.31 286.01 909.8 284.54C906.3 283.06 903.74 286.09 903.19 285.78C902.65 285.47 898.99 285.55 898.99 285.55C898.77 285.01 897.03 280.72 896.81 280.18C894.87 274.81 882.89 255.05 882.89 255.05C883.12 251.39 878.06 241.35 877.52 240.42C876.97 239.49 875.65 237.31 875.65 237.31C875.65 235.6 872.93 227.82 872.23 225.02C871.53 222.22 873.47 220.5 873.47 220.5C876.19 221.05 877.13 219.1 877.13 219.1C879.93 218.09 879.07 211.63 879.07 211.63C879.08 211.51 879.14 210.51 879.15 210.39C883.58 203.08 885.3 195.53 885.3 195.53C886.23 194.67 886.07 192.57 885.53 189.3C884.99 186.04 881.1 179.42 881.1 179.42C878.84 173.43 864.91 157.95 864.91 157.95C864.94 157.79 865.19 156.55 865.22 156.39C865.22 156.39 864.99 156.01 864.91 155.07C864.83 154.14 861.33 152.81 861.33 152.81C861.28 152.74 860.99 152.38 860.48 151.73C859.5 150.32 858.95 149.55 858.84 149.39C859.78 148.22 859 146.05 858.46 145.42C857.91 144.8 857.68 144.57 856.67 142.54C855.65 140.52 854.8 140.68 854.18 140.29C853.55 139.9 851.76 138.81 851.76 138.81C851.76 138.81 849.43 137.57 848.57 136.24C847.72 134.92 846.01 135.31 845.38 135.23C844.76 135.15 844.29 134.69 843.83 134.38C843.36 134.06 844.29 134.14 841.49 133.29C838.69 132.43 835.27 138.11 835.27 138.11C835.27 138.11 833.48 137.1 832.62 136.63C831.77 136.16 831.22 137.18 831.22 137.18C831.02 137.08 829.4 136.27 829.2 136.16C823.52 132.12 813.64 128.54 805.7 127.76C797.77 126.98 793.88 126.44 787.19 123.09C780.5 119.75 772.09 107.92 772.09 107.92C764.86 99.91 754.78 95.05 754.78 95.05C754.78 95.05 756.11 93.86 754.43 92.91C752.76 91.97 724.77 75.23 724.77 75.23C724.77 75.23 722.74 74.23 721.72 76.01C720.7 77.79 718.46 80.88 718.91 81.87C719.36 82.87 723.3 85.21 725.97 86.96C728.64 88.72 748.55 100.77 748.55 100.77C748.55 100.77 749.91 102.09 751.47 100.79C751.45 100.8 751.33 100.91 751.32 100.92C751.32 100.92 760 106.17 761.63 108.04C763.27 109.91 767.67 119.83 769.22 125.12C770.78 130.41 769.76 141.8 769.6 144.92C769.45 148.03 768.82 151.41 768.82 151.41C764.26 161.33 727.72 240.62 723.16 250.54C723.16 250.54 721.99 250.46 721.68 250.46C721.37 250.46 716.54 261.58 716.54 261.58C716.6 261.68 717.03 262.42 717.09 262.52C717.09 262.52 717.09 262.52 716.15 262.44C715.22 262.36 714.36 265.01 714.36 265.01C713.14 267.87 703.37 290.78 702.15 293.64C701.06 295.43 702.77 295.27 702.77 296.05C702.77 296.83 702.38 296.91 700.12 297.45C697.87 298 698.57 300.72 697.79 301.26C697.01 301.81 695.53 307.18 694.6 308.27C693.67 309.36 694.44 310.6 694.44 311.46C694.44 312.31 693.43 315.5 693.43 315.5C693.43 315.5 692.97 316.43 692.66 316.05C692.34 315.66 690.87 316.82 690.56 317.45C690.24 318.07 691.26 319.31 691.26 319.31C691.26 319.31 691.64 319.47 690.87 320.25C690.09 321.03 691.1 322.27 691.1 322.27C691.1 322.27 690.24 325.46 689.93 326.47C689.74 327.1 689.27 329.14 688.94 330.57C688.5 332.54 689.38 334.62 691.18 335.53C691.7 335.8 692.3 336.01 692.97 336.2C695.53 336.9 697.48 333.16 697.48 333.16C697.82 332.51 700.56 327.28 700.9 326.63C700.9 326.63 702.15 325.77 702.22 325.23C702.3 324.68 703.78 324.76 703.78 324.76C706.19 322.97 704.56 321.34 704.56 321.34C704.56 321.34 706.19 317.52 707.83 316.59C709.46 315.66 712.34 307.25 712.34 307.25C714.28 304.06 712.88 303.36 712.18 302.12C711.48 300.87 712.26 300.49 712.26 300.49C714.67 301.19 713.97 299.86 715.06 297.84C716.15 295.82 717.63 296.91 717.71 297.22C717.79 297.53 727.67 324.76 728.99 328.96C730.31 333.16 735.37 334.33 735.37 334.33C741.25 335.96 788.31 349.03 794.19 350.67C794.19 350.67 794.03 351.6 793.26 352.15C792.48 352.69 791.15 355.34 790.61 354.95C790.07 354.56 787.65 355.26 787.03 355.26C786.41 355.26 785.16 356.58 784.15 357.59C783.14 358.6 781.51 359.93 780.5 361.09C779.48 362.26 776.99 365.84 775.75 367.94C774.5 370.04 772.95 372.22 772.02 374.94C771.08 377.67 771.39 376.97 770.15 378.37C768.9 379.77 768.44 379.92 768.44 379.92C768.44 379.92 759.88 390.43 758.94 392.22C758.01 394.01 752.88 398.21 751.09 400.15C749.3 402.1 743.62 410.73 742.76 411.67C741.91 412.6 740.66 413.77 738.33 416.8C735.99 419.84 738.64 421 738.56 421.39C738.48 421.78 734.75 426.06 734.75 426.06C734.57 426.2 733.14 427.32 732.96 427.46C732.96 427.46 731.64 426.53 730.78 425.98C729.92 425.44 728.13 425.51 726.42 425.44C724.71 425.36 724.48 423.73 722.06 422.17C719.65 420.61 717.4 422.01 717.16 423.73C717 424.96 720.87 425.71 722.84 425.94C721.87 426.03 720.66 426.32 720.66 426.68C720.66 427.23 728.83 427.69 728.83 427.69C728.83 427.69 729.53 428.24 729.3 428.32C729.07 428.39 727.98 428.78 727.74 430.11C727.51 431.43 725.64 431.74 725.64 431.74C725.58 431.72 725.08 431.53 725.02 431.51C725.02 431.51 724.32 432.21 723.7 432.98C723.08 433.76 720.9 434.77 720.9 434.77C720.86 434.75 720.65 434.62 720.28 434.39C719.67 434.85 719.33 435.11 719.26 435.16C719.26 435.16 718.8 436.41 718.56 436.41C718.33 436.41 716.31 436.87 715.92 437.03C715.53 437.19 713.35 439.21 711.48 439.83C709.62 440.45 711.48 439.83 707.05 440.38C702.61 440.92 699.74 442.24 698.88 445.74C698.02 449.25 706.35 450.72 712.18 453.21C718.02 455.7 733.19 452.82 734.12 452.82C735.06 452.82 745.8 454.23 748.44 454.07C751.09 453.91 750.93 452.98 750.93 452.98C750.93 452.98 751.32 448.47 751.16 448.16C751.01 447.84 750.7 445.9 750.31 445.12C749.92 444.34 750.85 443.88 750.85 443.41C750.85 442.94 750.85 442.87 750.62 441.7C750.39 440.53 750.85 440.3 750.85 438.04C750.85 435.79 754.35 432.98 754.35 432.98C754.5 433.02 755.68 433.33 755.83 433.37C760.81 433.53 762.52 428.63 767.66 423.03C772.79 417.42 792.79 391.2 792.79 391.2C792.79 391.2 793.88 392.37 794.42 392.45C794.97 392.53 797.77 385.84 797.85 384.67C797.92 383.5 799.17 383.89 800.1 383.81C801.04 383.74 801.74 384.75 801.74 384.75C801.74 384.75 807.1 381.87 807.81 381.01C808.5 380.16 807.26 379.61 806.4 379.14C805.55 378.68 806.56 378.37 806.79 377.82C807.03 377.28 814.88 371.99 814.88 371.99C817.76 373.78 818.7 369.65 818.7 369.65C818.85 369.54 820.03 368.6 820.18 368.49C820.18 368.49 819.94 369.81 821.73 370.74C823.52 371.68 824.14 368.41 824.14 368.41C825.31 370.12 826.32 370.74 827.57 369.81C828.81 368.87 827.72 363.35 827.72 363.35C827.94 363.21 829.03 362.48 830.99 361.17C845.04 365.14 852.85 367.34 854.41 367.79C855 374.26 858.29 377.52 862.33 379.02C866.98 380.75 872.28 380.05 876.2 377C879.35 374.55 881.36 370.82 880.86 365.3C880.01 355.88 873.63 353.24 867.17 353.31C860.71 353.39 856.51 359.77 856.51 359.77C855.43 359.43 850.01 357.72 840.25 354.64C840.2 354.4 840.18 354.27 840.17 354.25C844.61 348.57 853.94 344.06 853.94 344.06C853.94 344.06 857.75 343.98 861.41 344.29C865.07 344.6 864.21 344.21 864.6 343.59C864.99 342.97 865.92 340.55 867.32 340.09C868.72 339.62 868.8 339.08 869.5 339C870.2 338.92 880.01 336.35 880.01 336.35C880.01 336.35 882.81 339.39 885.53 338.61C888.25 337.83 889.58 336.2 894.56 330.67C899.53 325.15 903.74 323.36 903.74 323.36C903.11 324.84 904.05 328.26 904.67 330.05C905.29 331.84 907.16 331.92 908.4 332.62C909.65 333.32 910.35 333.09 910.12 330.52C909.88 327.95 907 327.79 907 327.79C907 327.25 909.8 325.15 909.8 325.15C909.8 325.15 910.66 328.11 912.37 330.44C914.08 332.77 915.02 334.17 916.65 335.19C918.28 336.2 920.54 340.79 921.55 341.18C922.56 341.57 928.32 347.71 929.02 349.81C929.72 351.91 936.18 358.06 936.88 359.07C937.58 360.08 938.51 360.16 939.53 363.04C940.54 365.92 945.67 369.19 945.67 369.19C945.67 369.19 946.29 369.96 947.07 371.99C947.85 374.01 948.16 373.15 949.1 373.78C950.03 374.4 952.67 377.9 953.53 378.91C954.39 379.92 957.81 386.92 957.81 386.92C957.81 386.92 958.28 387.86 958.51 388.33C958.74 388.79 960.07 389.41 961.23 391.13C962.4 392.84 962.55 391.59 968.55 387.86C974.54 384.12 985.74 373.54 987.53 371.83C989.32 370.12 988.54 368.87 987.53 367.55" id="a3vCOkzYk4"></path></defs><g><g><use xlink:href="#a3vCOkzYk4" opacity="1" fill="#000000" fill-opacity="1"></use></g></g></svg>